<?xml version="1.0" encoding="UTF-8"?>
<svg version="1.1" xmlns="http://www.w3.org/2000/svg" width="512" height="512">
<path d="M0 0 C1.26899554 -0.00445784 2.53799109 -0.00891569 3.84544104 -0.01350862 C5.26171347 -0.01341932 6.6779859 -0.01322946 8.09425831 -0.01294994 C9.59257424 -0.01624849 11.09088928 -0.01997404 12.58920318 -0.02409142 C16.71715443 -0.03412055 20.84509115 -0.03782968 24.97305286 -0.04048073 C29.42105375 -0.04438108 33.8690431 -0.05395959 38.31703663 -0.0626936 C49.0641542 -0.08246553 59.81127272 -0.09252509 70.55840394 -0.10142139 C75.61755464 -0.10580305 80.67670428 -0.11117017 85.73585415 -0.11641026 C102.55039948 -0.13342318 119.36494415 -0.14791784 136.17949677 -0.155159 C140.54397234 -0.15706894 144.90844791 -0.15898926 149.27292347 -0.16094494 C150.35771226 -0.16142868 151.44250105 -0.16191242 152.56016222 -0.16241082 C170.13708498 -0.17071295 187.71393973 -0.19605267 205.29083278 -0.22852562 C223.33048572 -0.2615822 241.37010408 -0.27960649 259.40978748 -0.28280324 C269.54090772 -0.28496962 279.67192877 -0.29373704 289.80301952 -0.31926441 C298.43031695 -0.34095225 307.0574911 -0.34903127 315.68481269 -0.33929763 C320.08682523 -0.33474738 324.48858332 -0.33668116 328.8905611 -0.35605907 C332.92184339 -0.37365193 336.95268486 -0.37272478 340.98397157 -0.35716178 C342.4409513 -0.35477979 343.89796124 -0.35913993 345.35489472 -0.37099043 C354.05975072 -0.43739875 361.17786348 -0.4122877 367.80832386 5.88031483 C368.17055042 6.43847889 368.53277699 6.99664295 368.90598011 7.57172108 C369.28625355 8.12730701 369.66652699 8.68289295 370.05832386 9.25531483 C372.51499517 14.32681225 372.12055876 19.92751988 372.12669849 25.42921925 C372.13163647 26.36862486 372.13657445 27.30803048 372.14166206 28.27590293 C372.15702548 31.42504432 372.16539459 34.57416533 372.17380238 37.72333241 C372.1833818 39.98020068 372.19339192 42.23706717 372.20380116 44.49393177 C372.23084924 50.62359403 372.25185937 56.75326399 372.27180314 62.88295293 C372.29366325 69.28782414 372.32105183 75.69267162 372.34785938 82.09752369 C372.39211108 92.84859722 372.43294639 103.5996775 372.47116566 114.35077381 C372.51053836 125.42370015 372.55196883 136.49661563 372.59616566 147.56952381 C372.59888993 148.25223218 372.6016142 148.93494055 372.60442103 149.63833705 C372.6181008 153.06333633 372.63182101 156.48833545 372.64556134 159.91333449 C372.75947126 188.32027402 372.86621993 216.72723738 372.96848011 245.13422108 C374.04081898 245.66241444 375.11315784 246.1906078 376.21799183 246.73480701 C377.65312498 247.4459196 379.08817937 248.15719113 380.52316761 248.86859608 C381.57830555 249.3875243 381.57830555 249.3875243 382.65475941 249.91693592 C415.79139271 266.38020849 437.68335236 294.12325579 450.96848011 328.13422108 C451.69438343 328.1488036 452.42028675 328.16338612 453.16818714 328.17841053 C456.47713743 328.25316967 459.78510963 328.34973898 463.09348011 328.44672108 C464.23558949 328.46927967 465.37769886 328.49183826 466.55441761 328.51508045 C473.91104262 328.75032137 478.85907002 329.11747553 484.32785511 334.42328358 C487.47259224 339.68730007 486.37191826 346.62545829 486.21848011 352.50922108 C486.20043324 353.81761951 486.18238636 355.12601795 486.16379261 356.47406483 C486.11677359 359.69486796 486.05106192 362.91416582 485.96848011 366.13422108 C486.75223011 366.25797108 487.53598011 366.38172108 488.34348011 366.50922108 C490.96848011 367.13422108 490.96848011 367.13422108 492.96848011 369.13422108 C493.65150268 376.19212098 493.65150268 376.19212098 491.15598011 379.63422108 C488.96848011 381.13422108 488.96848011 381.13422108 485.96848011 381.13422108 C485.98942738 381.9510033 486.01037464 382.76778553 486.03195667 383.60931873 C486.11533141 387.32582662 486.16720999 391.0421374 486.21848011 394.75922108 C486.25199574 396.04441639 486.28551136 397.3296117 486.32004261 398.65375233 C486.44328601 410.54674021 486.44328601 410.54674021 481.96848011 415.13422108 C477.6046411 418.04344708 473.60497275 418.24899511 468.44894886 418.45062733 C467.42736683 418.49252186 466.4057848 418.53441639 465.35324574 418.57758045 C464.29814808 418.61689686 463.24305042 418.65621326 462.15598011 418.69672108 C461.08154652 418.73990467 460.00711292 418.78308826 458.90012074 418.82758045 C456.25635929 418.93333091 453.61250901 419.03542341 450.96848011 419.13422108 C450.48379261 420.35496326 449.99910511 421.57570545 449.49973011 422.83343983 C435.51406034 457.44144869 409.88385816 486.44416129 375.07004261 501.27875233 C347.36215385 512.54414208 317.29128176 515.67169872 287.96848011 509.13422108 C287.2794762 508.98388416 286.5904723 508.83354725 285.88058949 508.67865467 C273.93492903 505.94229144 255.68948435 500.85522532 246.96848011 492.13422108 C245.02619725 492.03159771 243.08021062 491.99850034 241.13522816 491.99237537 C239.88690708 491.98534092 238.63858601 491.97830647 237.35243702 491.97105885 C236.68096323 491.96924295 236.00948944 491.96742706 235.31766796 491.96555614 C233.22027859 491.95840601 231.12312529 491.94275007 229.02580738 491.92421436 C223.06117497 491.8716812 217.09666886 491.82377559 211.13181019 491.80829334 C207.48643862 491.79820968 203.84165589 491.76887357 200.19651699 491.72697353 C198.80711605 491.71466037 197.41763193 491.70954288 196.02817822 491.71177197 C194.08202765 491.71412536 192.13590039 491.68976451 190.18991566 491.66425037 C188.52898129 491.65545101 188.52898129 491.65545101 186.83449268 491.64647388 C183.29496526 491.01384133 182.10822094 489.98166254 179.96848011 487.13422108 C179.43007379 483.36537686 179.2812079 481.17046607 181.41476917 477.95355701 C185.23847906 475.22943789 188.7369089 475.53128381 193.32785511 475.52484608 C194.23223316 475.50830982 195.13661121 475.49177357 196.06839466 475.47473621 C198.95182532 475.42622129 201.83472845 475.40487764 204.71848011 475.38422108 C206.67553795 475.3560643 208.63257118 475.32613728 210.58957386 475.29437733 C215.38249919 475.22046138 220.17513107 475.1709081 224.96848011 475.13422108 C224.17860706 474.5096703 223.38873402 473.88511951 222.57492542 473.24164295 C198.98258395 454.1662316 185.04417212 420.07764209 181.35519886 390.76312733 C177.71251434 353.62561342 186.86119127 317.55787815 209.84348011 288.00922108 C213.03306234 284.14713657 216.35479535 280.40717747 219.71848011 276.69672108 C220.17851429 276.18802479 220.63854847 275.6793285 221.11252308 275.15521717 C223.56413235 272.49461826 226.04834466 270.25700635 228.96848011 268.13422108 C227.92595963 268.13275452 226.88343914 268.13128796 225.80932713 268.12977695 C200.46346692 268.09321107 175.11773916 268.03379982 149.77198887 267.95031834 C137.51505528 267.91047861 125.25818635 267.8781112 113.00119495 267.86322498 C102.32023065 267.85023403 91.63940834 267.82333489 80.95852399 267.77960801 C75.30103154 267.75693565 69.64371459 267.74131385 63.98617268 267.74233723 C58.66408662 267.74308043 53.34238937 267.72526668 48.02040386 267.69305325 C46.06445748 267.68451555 44.10846768 267.68283038 42.15251064 267.68841839 C39.4866027 267.69502173 36.82194517 267.67722657 34.15616322 267.65320301 C32.98884651 267.66484364 32.98884651 267.66484364 31.79794765 267.67671943 C28.32346005 267.62109802 26.32546814 267.39483445 23.48409367 265.32053471 C21.27759948 262.13760705 21.49576203 259.91596575 21.96848011 256.13422108 C23.72863142 252.94918538 24.46738927 252.30125136 27.96848011 251.13422108 C30.19666452 251.06485045 32.42682535 251.04965024 34.65598011 251.07172108 C35.8354723 251.08074451 37.01496449 251.08976795 38.23019886 251.09906483 C39.13383167 251.11066639 40.03746449 251.12226795 40.96848011 251.13422108 C40.96403889 250.53366901 40.95959766 249.93311695 40.95502186 249.31436634 C40.91070604 243.05251925 40.88057939 236.79071688 40.85861683 230.52875233 C40.8485718 228.19312193 40.83493334 225.85750407 40.8176012 223.52191639 C40.79328734 220.16088227 40.78198184 216.80001473 40.77316761 213.43890858 C40.76284504 212.3980611 40.75252247 211.35721363 40.74188709 210.28482533 C40.74041342 200.71902137 40.74041342 200.71902137 42.96848011 196.13422108 C46.48101157 193.79253344 47.83317367 193.6379843 51.96848011 194.13422108 C54.63327503 195.40863514 54.63327503 195.40863514 56.96848011 198.13422108 C57.68754836 202.12627399 57.54842241 206.07420673 57.45676136 210.11859608 C57.44968662 211.28932667 57.44261189 212.46005726 57.43532276 213.66626453 C57.40732992 217.40623281 57.34457732 221.14470514 57.28098011 224.88422108 C57.25590379 227.41935571 57.23308947 229.9545138 57.21262074 232.48968983 C57.15748637 238.70511014 57.0711755 244.91941197 56.96848011 251.13422108 C63.89848011 251.13422108 70.82848011 251.13422108 77.96848011 251.13422108 C77.96848011 218.13422108 77.96848011 185.13422108 77.96848011 151.13422108 C71.03848011 151.13422108 64.10848011 151.13422108 56.96848011 151.13422108 C57.1657486 157.53715573 57.1657486 157.53715573 57.41891956 163.93793201 C57.52103363 170.49694896 57.52103363 170.49694896 54.67551136 173.77875233 C50.99370569 175.62231159 48.88721713 175.22275914 44.96848011 174.13422108 C42.15447579 172.16441806 41.63172242 170.41438286 40.96848011 167.13422108 C40.75060355 163.86607273 40.78335482 160.59644972 40.78098011 157.32172108 C40.76261097 156.00591053 40.76261097 156.00591053 40.74387074 154.66351795 C40.72998086 148.47326151 40.83763272 142.74622756 44.90598011 137.75922108 C50.32374925 133.49067569 58.63964189 134.83167478 65.246068 134.78412342 C66.93077893 134.76757324 68.61541991 134.74029514 70.29977894 134.70209217 C72.73789075 134.6471313 75.17436231 134.62542278 77.61301136 134.61078358 C78.36008854 134.5881142 79.10716572 134.56544483 79.8768816 134.54208851 C83.71626801 134.55748708 86.35396132 135.02847124 89.36569691 137.35443592 C94.56819832 142.91073281 94.24910827 148.18091089 94.19553089 155.43231678 C94.19582294 156.46692539 94.196115 157.501534 94.1964159 158.56749439 C94.19502435 161.98174949 94.17947115 165.39578543 94.16379261 168.81000233 C94.16006186 171.17940114 94.15721518 173.54880149 94.15521717 175.9182024 C94.14758559 182.15055072 94.12794107 188.38280563 94.10580921 194.61511707 C94.08534062 200.97628993 94.07621328 207.3374779 94.06613636 213.6986742 C94.04469482 226.17723744 94.00951643 238.65570687 93.96848011 251.13422108 C100.56848011 251.13422108 107.16848011 251.13422108 113.96848011 251.13422108 C113.95737705 248.87996296 113.94627399 246.62570484 113.93483448 244.30313587 C113.8327106 223.08437184 113.75827429 201.86564017 113.70941925 180.6466856 C113.68363347 169.73715865 113.64847564 158.827812 113.59128284 147.91840076 C113.54145952 138.4101716 113.50919182 128.902073 113.49803764 119.39371693 C113.4915171 114.35866804 113.47618402 109.32399267 113.43982983 104.28906345 C113.40588738 99.549746 113.39542365 94.81095589 113.4029417 90.07152843 C113.40156638 88.33245764 113.39162333 86.59336917 113.37245274 84.8544035 C113.34754069 82.4780254 113.35356643 80.10363303 113.36720753 77.72720814 C113.34536122 76.69703125 113.34536122 76.69703125 113.32307357 75.6460427 C113.40840448 70.13938935 115.2261926 67.87725757 118.96848011 64.13422108 C122.20157853 62.51767187 125.74643368 62.92854523 129.30051136 62.89593983 C130.1292728 62.88786808 130.95803425 62.87979633 131.81190968 62.87147999 C133.56793596 62.85763887 135.32398915 62.84691683 137.08005238 62.83905506 C139.7601802 62.82185457 142.43907039 62.77797182 145.11887074 62.73383045 C146.82524188 62.72370228 148.5316235 62.71518657 150.23801136 62.70843983 C151.03713444 62.69093174 151.83625751 62.67342365 152.65959644 62.65538502 C156.52512303 62.67038439 158.51434552 62.85797453 161.88913441 64.91083241 C165.88920358 69.18799924 166.25735071 72.73137155 166.20898914 78.44873524 C166.21069799 79.18719236 166.21240684 79.92564949 166.21416748 80.6864841 C166.21746254 83.16167473 166.2064585 85.63659447 166.19553089 88.11176014 C166.19496678 89.88572655 166.19528333 91.65969342 166.1964159 93.43365955 C166.19699042 98.25149166 166.18522004 103.06922446 166.17126799 107.88703346 C166.15877717 112.9212268 166.15759143 117.95542235 166.15521717 122.98962879 C166.14899755 132.52349597 166.13258021 142.05731735 166.11251819 151.59116435 C166.09017419 162.44473223 166.07916953 173.29830227 166.06912732 184.15188742 C166.04821441 206.47935823 166.01262684 228.80678516 165.96848011 251.13422108 C172.56848011 251.13422108 179.16848011 251.13422108 185.96848011 251.13422108 C185.95848736 249.08707401 185.95848736 249.08707401 185.94829273 246.99857044 C185.88748436 234.13855329 185.84250868 221.2785653 185.81304359 208.418437 C185.79738609 201.8068731 185.77614589 195.19542523 185.74216175 188.58392811 C185.7095719 182.20377556 185.69162773 175.82373465 185.68384838 169.44350529 C185.67830425 167.00903662 185.66747801 164.57457409 185.65128994 162.14015293 C185.62952117 158.73097739 185.62651303 155.3222635 185.62790394 151.91302967 C185.61711811 150.90602009 185.60633228 149.89901051 185.59521961 148.86148548 C185.61876622 143.5297746 185.93392108 139.72499071 188.96848011 135.13422108 C193.03317033 131.66788627 197.21336777 131.66682128 202.33957386 131.66547108 C203.13952274 131.65785755 203.93947163 131.65024403 204.76366138 131.64239979 C206.45047361 131.63162584 208.1373524 131.62873468 209.824193 131.63324451 C212.39491224 131.63421689 214.9626445 131.59256921 217.53293324 131.54828358 C219.17680726 131.5430759 220.82069159 131.54038839 222.46457386 131.54047108 C223.22725071 131.52407581 223.98992756 131.50768055 224.77571583 131.49078846 C230.48408837 131.56413912 232.97547477 133.05147229 236.96848011 137.13422108 C238.16079901 139.51885887 238.09171142 140.9654294 238.08873463 143.62668324 C238.09079662 145.04438511 238.09079662 145.04438511 238.09290028 146.49072742 C238.089305 147.53081959 238.08570972 148.57091175 238.0820055 149.64252186 C238.08215153 150.73521381 238.08229755 151.82790577 238.08244801 152.9537096 C238.08174925 156.57900419 238.07395853 160.20424792 238.06613636 163.82953358 C238.06427205 166.33774252 238.06284821 168.84595183 238.06184864 171.35416126 C238.05841572 177.28981907 238.05052775 183.22546045 238.04049915 189.16110981 C238.02823516 196.58052905 238.0228564 203.99995055 238.01730824 211.41937733 C238.00657271 224.65766792 237.98968882 237.89594334 237.96848011 251.13422108 C240.76051021 250.99372277 243.55197807 250.84706725 246.34348011 250.69672108 C247.13754261 250.65740467 247.93160511 250.61808826 248.74973011 250.57758045 C252.99449232 250.44528704 252.99449232 250.44528704 256.96848011 249.13422108 C256.98061039 248.08305607 256.98061039 248.08305607 256.99298573 247.0106554 C257.07109063 240.39010799 257.15842864 233.76975329 257.25600719 227.1494627 C257.30584513 223.74631124 257.35217555 220.34318894 257.39035511 216.93988514 C257.43445586 213.02271845 257.49405541 209.10585976 257.55441761 205.18890858 C257.56596882 203.97307087 257.57752003 202.75723316 257.58942127 201.50455189 C257.61922581 199.79345737 257.61922581 199.79345737 257.64963245 198.0477953 C257.66295612 197.04852009 257.67627979 196.04924488 257.69000721 195.01968861 C258.13340767 190.4252824 259.31961413 187.02213088 262.04074574 183.29852772 C266.03372751 180.34674458 268.96689054 180.42616049 273.81223011 180.50531483 C274.65894276 180.50290287 275.5056554 180.50049091 276.37802601 180.49800587 C278.16327072 180.49898277 279.94854631 180.51233911 281.73361683 180.53729725 C284.46009091 180.57161548 287.18332323 180.55794773 289.90988636 180.53851795 C291.64818135 180.54541674 293.38646801 180.55508943 295.12473011 180.56781483 C295.9363158 180.56285496 296.7479015 180.55789509 297.5840807 180.55278492 C301.37388797 180.63131061 303.54299262 180.89291517 306.89621449 182.79462147 C311.7296115 188.25155403 311.2402086 194.44960342 311.16379261 201.34515858 C311.15954777 202.79736301 311.15954777 202.79736301 311.15521717 204.27890491 C311.14406707 207.35580535 311.11897191 210.43240935 311.09348011 213.50922108 C311.08344363 215.60166477 311.07431895 217.69411306 311.06613636 219.78656483 C311.04414464 224.90256359 311.00965036 230.01834216 310.96848011 235.13422108 C311.63330402 235.11780567 312.29812794 235.10139027 312.98309803 235.08447742 C314.81835622 235.03916241 316.65363357 234.99461841 318.48892689 234.9507494 C320.36800274 234.90275201 322.24677357 234.84224261 324.12521839 234.77386951 C335.3505201 234.64628588 344.31772863 237.01590263 355.96848011 239.13422108 C355.47348011 128.74922108 355.47348011 128.74922108 354.96848011 16.13422108 C236.82848011 16.13422108 118.68848011 16.13422108 -3.03151989 16.13422108 C-3.03151989 167.60422108 -3.03151989 319.07422108 -3.03151989 475.13422108 C49.76848011 475.46422108 102.56848011 475.79422108 156.96848011 476.13422108 C160.96848011 480.13422108 160.96848011 480.13422108 161.46848011 483.63422108 C160.87969813 487.75569494 160.2320301 488.65628274 156.96848011 491.13422108 C153.91618252 491.63758564 153.91618252 491.63758564 150.26379871 491.64215565 C149.25434305 491.65151559 149.25434305 491.65151559 148.22449434 491.66106462 C145.9703424 491.67701456 143.71726889 491.66438361 141.46310902 491.6517992 C139.84665261 491.65721958 138.23020114 491.66434177 136.61375904 491.67303944 C132.22311421 491.69128883 127.83284498 491.68419793 123.44219351 491.67152309 C118.84721612 491.66140029 114.25227101 491.67078709 109.65729237 491.67706776 C101.93837172 491.68434773 94.21960409 491.67474884 86.50070667 491.65570545 C77.58016097 491.63395142 68.65998116 491.64097593 59.73944438 491.66301107 C52.07985354 491.68117352 44.42037276 491.68371881 36.76076734 491.6732564 C32.18642614 491.66702412 27.61225679 491.66617819 23.03792667 491.67940235 C18.73517428 491.69097199 14.4328925 491.68291496 10.13019085 491.65982533 C8.55240949 491.65454349 6.97458841 491.65604306 5.39682293 491.66487598 C3.23972659 491.67583713 1.08413002 491.66206365 -1.07287121 491.64215565 C-2.88193227 491.63989349 -2.88193227 491.63989349 -4.72754002 491.63758564 C-9.88040358 490.85254184 -12.95659361 488.35440766 -16.34401989 484.50922108 C-19.22222192 480.45841821 -19.17538695 477.4332275 -19.16574097 472.59874916 C-19.1680932 471.80837976 -19.17044543 471.01801037 -19.17286894 470.20369038 C-19.17958229 467.5270221 -19.17910001 464.8504021 -19.17869091 462.17372608 C-19.18198809 460.24658149 -19.18571334 458.31943759 -19.18983239 456.39229459 C-19.19987721 451.07439 -19.20357316 445.7564967 -19.2062217 440.43858397 C-19.21011742 434.71177381 -19.21969626 428.98497265 -19.22843456 423.25816822 C-19.24821988 409.41680223 -19.25826787 395.57543549 -19.26716235 381.73405889 C-19.27154193 375.22132445 -19.2769096 368.70859084 -19.28215122 362.19585705 C-19.29916568 340.55516453 -19.31368571 318.91447318 -19.32089996 297.2737751 C-19.32137472 295.8737641 -19.32185061 294.4737531 -19.32232763 293.0737421 C-19.322564 292.37945151 -19.32280038 291.68516091 -19.32304392 290.96983121 C-19.32424513 287.45211806 -19.32546058 283.93440492 -19.32668591 280.41669178 C-19.32692606 279.71858649 -19.32716621 279.02048119 -19.32741363 278.30122119 C-19.33530736 255.66464384 -19.35873988 233.02811888 -19.39124185 210.39156441 C-19.42553003 186.46734766 -19.44524904 162.5431651 -19.4485442 138.61892289 C-19.45071219 125.57421293 -19.4595029 112.52957995 -19.48500538 99.48489285 C-19.50667016 88.37731693 -19.51478363 77.26983668 -19.5050386 66.16224203 C-19.50048163 60.49256512 -19.50246115 54.82308576 -19.52180004 49.15343571 C-19.53934484 43.96506696 -19.53850481 38.77704116 -19.52290275 33.5886692 C-19.52051343 31.70974329 -19.52491833 29.83079416 -19.5367314 27.95190386 C-19.55178167 25.40048322 -19.54222598 22.85028855 -19.52650452 20.2988987 C-19.53672672 19.56702582 -19.54694893 18.83515294 -19.5574809 18.0811021 C-19.48348033 12.58986484 -18.07238135 9.55116087 -15.03151989 5.13422108 C-9.95554441 1.1977503 -6.33768114 0.01030237 0 0 Z M129.96848011 79.13422108 C129.96848011 135.89422108 129.96848011 192.65422108 129.96848011 251.13422108 C136.56848011 251.13422108 143.16848011 251.13422108 149.96848011 251.13422108 C149.96848011 194.37422108 149.96848011 137.61422108 149.96848011 79.13422108 C143.36848011 79.13422108 136.76848011 79.13422108 129.96848011 79.13422108 Z M201.96848011 148.13422108 C201.96848011 182.12422108 201.96848011 216.11422108 201.96848011 251.13422108 C208.56848011 251.13422108 215.16848011 251.13422108 221.96848011 251.13422108 C221.96848011 217.14422108 221.96848011 183.15422108 221.96848011 148.13422108 C215.36848011 148.13422108 208.76848011 148.13422108 201.96848011 148.13422108 Z M273.96848011 196.13422108 C273.96848011 211.31422108 273.96848011 226.49422108 273.96848011 242.13422108 C280.99280758 240.57325942 287.98764734 238.87942927 294.96848011 237.13422108 C294.96848011 223.60422108 294.96848011 210.07422108 294.96848011 196.13422108 C288.03848011 196.13422108 281.10848011 196.13422108 273.96848011 196.13422108 Z M239.96848011 280.13422108 C239.02746449 280.91281483 238.08644886 281.69140858 237.11691761 282.49359608 C217.33515908 299.54491469 204.51246874 323.8101725 198.96848011 349.13422108 C198.74289417 350.13066639 198.51730824 351.1271117 198.28488636 352.15375233 C192.2421656 383.95096569 200.36504125 417.04997729 218.27316761 443.65765858 C227.30052546 455.96769201 238.77460635 468.31938816 251.96848011 476.13422108 C253.56562855 477.11068592 253.56562855 477.11068592 255.19504261 478.10687733 C283.40680827 495.03314337 316.76838218 501.08620737 348.96848011 493.13422108 C367.58452115 488.33843302 384.32499224 479.5422185 398.96848011 467.13422108 C400.19437855 466.13455311 400.19437855 466.13455311 401.44504261 465.11468983 C407.41159892 460.08104868 412.23272784 454.32040671 416.96848011 448.13422108 C417.56402699 447.36593983 418.15957386 446.59765858 418.77316761 445.80609608 C422.6307546 440.57968789 425.77827004 435.03559325 428.84348011 429.32172108 C429.2372887 428.59195057 429.6310973 427.86218006 430.03683949 427.1102953 C431.94402467 423.47105749 433.46453873 420.27141728 433.96848011 416.13422108 C433.24660511 415.63922108 432.52473011 415.14422108 431.78098011 414.63422108 C428.309595 411.54854542 426.25213332 408.13790244 423.96848011 404.13422108 C422.15888775 406.84860961 420.917761 409.48157034 419.6601305 412.4774828 C408.11731283 439.97381437 389.04240438 460.77570905 361.60129261 472.66937733 C334.66733664 483.52984344 303.92549021 483.64605377 277.04660511 472.53656483 C250.01665 460.22215635 229.66950754 439.90560509 218.96848011 412.13422108 C208.93123376 384.91935745 209.93369764 355.33316929 221.27316761 328.66547108 C225.96236303 318.89811472 232.02909903 310.40693301 238.96848011 302.13422108 C239.73160511 301.12359608 240.49473011 300.11297108 241.28098011 299.07172108 C259.35172866 279.31997266 286.50675103 267.81052971 312.96848011 266.13422108 C313.81281605 266.08008045 314.65715199 266.02593983 315.52707386 265.97015858 C343.17183242 265.10748526 368.90650921 274.58754376 389.96848011 292.13422108 C390.6426598 292.65629139 391.31683949 293.1783617 392.01144886 293.71625233 C407.21168487 305.78600495 416.93103389 325.0929112 422.96848011 343.13422108 C425.00324804 341.1974448 426.35368581 339.53777354 427.90598011 337.13422108 C429.77444723 334.41645071 431.23212196 332.89330846 433.96848011 331.13422108 C430.01827701 317.06162252 422.24769475 305.22955112 412.96848011 294.13422108 C412.18730824 293.1880492 411.40613636 292.24187733 410.60129261 291.26703358 C391.08478812 268.67907919 361.71579612 253.70895981 331.96848011 251.13422108 C297.66974722 249.53202578 266.50227681 257.51291451 239.96848011 280.13422108 Z M258.96848011 304.13422108 C258.14348011 304.76715076 257.31848011 305.40008045 256.46848011 306.05218983 C239.31698909 320.33616594 229.30406632 344.17340451 227.22238636 365.96234608 C225.44171536 390.30772574 233.25397469 413.82834664 248.77316761 432.62250233 C266.43652091 452.83164142 289.08973672 464.13595584 315.89865589 466.02777576 C339.38396256 467.23555988 362.2840367 458.31336834 379.96848011 443.13422108 C397.96482027 426.81307215 409.64289105 405.65761871 410.96848011 381.13422108 C406.34848011 381.13422108 401.72848011 381.13422108 396.96848011 381.13422108 C396.73773792 382.15000233 396.50699574 383.16578358 396.26926136 384.21234608 C391.07388494 406.44258859 381.29514411 425.85259992 361.53098011 438.50922108 C342.53542445 449.45012416 321.71936689 453.37992916 300.30832386 448.10687733 C281.48287239 442.62437743 263.75035151 431.69378623 253.8644762 414.17816639 C244.78569245 397.13053199 244.78569245 397.13053199 245.96848011 389.13422108 C247.59348011 387.13422108 247.59348011 387.13422108 249.96848011 386.13422108 C254.07129492 385.7155665 255.4797936 385.80843007 258.96848011 388.13422108 C259.95781751 390.44267501 260.82589685 392.70785779 261.65598011 395.07172108 C267.63714303 410.98081366 278.82702272 422.25732152 294.02707386 429.61468983 C309.00118554 436.11936764 324.25147101 437.35360238 339.96848011 432.13422108 C347.83927861 428.92363578 354.57938738 424.71848623 360.96848011 419.13422108 C361.57176136 418.62504139 362.17504261 418.1158617 362.79660511 417.59125233 C371.41284617 409.73184325 377.51903953 398.49511324 379.96848011 387.13422108 C379.96848011 385.15422108 379.96848011 383.17422108 379.96848011 381.13422108 C375.34848011 381.13422108 370.72848011 381.13422108 365.96848011 381.13422108 C365.61656605 382.18480701 365.26465199 383.23539295 364.90207386 384.31781483 C362.02602976 392.61101792 359.20441263 399.73346214 352.96848011 406.13422108 C352.42449574 406.6936742 351.88051136 407.25312733 351.32004261 407.82953358 C340.92378249 417.54247143 328.40248525 419.73968858 314.71066761 419.44281483 C302.47462578 418.85887699 292.44987805 413.1697372 284.15598011 404.32172108 C280.59180918 399.99259836 278.19092768 395.2589237 275.96848011 390.13422108 C275.34973011 388.71109608 275.34973011 388.71109608 274.71848011 387.25922108 C271.61661452 374.33478113 272.75096095 361.70816056 279.14426136 349.98968983 C285.76005268 339.63392226 294.62285182 332.17835057 306.49973011 328.66547108 C321.71274873 325.39178353 334.89880453 328.0047578 347.96848011 336.13422108 C357.71473567 343.40066014 362.21035452 353.85984431 365.96848011 365.13422108 C370.58848011 365.13422108 375.20848011 365.13422108 379.96848011 365.13422108 C379.19260266 349.61667199 370.78130732 337.05560794 359.82004261 326.52484608 C346.38502481 315.26151609 330.2797712 310.80868669 312.90207386 311.95843983 C295.67689432 313.52436524 282.35540024 322.76540553 271.10129261 335.19672108 C264.79977747 343.03280208 260.9198456 352.57279794 257.82785511 362.05218983 C256.96848011 364.13422108 256.96848011 364.13422108 254.96848011 365.13422108 C251.7764729 365.41178692 249.56138931 365.38386706 246.59348011 364.13422108 C244.5629919 361.63515867 244.41130246 359.73735435 244.58566761 356.56390858 C247.26335739 339.56877548 258.09771329 324.13003553 270.96848011 313.13422108 C289.66956305 299.81059972 311.45695437 293.97569151 334.24191761 297.75531483 C347.65888936 300.48132339 360.84207081 306.91230659 370.96848011 316.13422108 C372.10349964 317.1493578 372.10349964 317.1493578 373.26144886 318.18500233 C384.86175467 329.1246542 391.18986895 342.85446219 394.96848011 358.13422108 C395.35742442 359.53198967 395.75221254 360.92816216 396.15598011 362.32172108 C396.55816761 363.71390858 396.55816761 363.71390858 396.96848011 365.13422108 C401.58848011 365.13422108 406.20848011 365.13422108 410.96848011 365.13422108 C410.42081447 345.96592373 401.67626871 327.25883002 388.96848011 313.13422108 C388.53938343 312.65597889 388.11028675 312.1777367 387.66818714 311.68500233 C370.65877767 293.00046923 347.75802629 282.27192073 322.46457386 281.00922108 C298.72701024 280.45638117 276.80478145 288.697713 258.96848011 304.13422108 Z M295.99582386 352.78265858 C290.1940858 359.51222758 287.68042073 367.80651666 288.08566761 376.70843983 C289.43389031 385.4718874 294.0098545 393.48441367 301.08176136 398.88422108 C309.3408148 404.35605772 317.08031475 405.45807432 326.96848011 404.13422108 C336.67468312 401.06674746 342.8455601 395.4734069 347.90598011 386.82172108 C349.15230955 384.15089188 349.15230955 384.15089188 348.96848011 381.13422108 C346.54993565 380.99885478 344.13898228 380.90001828 341.71848011 380.82172108 C340.69560902 380.75887928 340.69560902 380.75887928 339.65207386 380.69476795 C337.35562911 380.5867497 337.35562911 380.5867497 333.96848011 381.13422108 C331.59772846 383.44483218 331.59772846 383.44483218 329.96848011 386.13422108 C325.13459923 389.39428027 320.6375865 390.00335237 314.96848011 389.13422108 C310.80761107 387.76358186 307.95634518 385.59324898 305.53098011 381.94672108 C303.44186386 377.75047895 303.28176465 373.72349027 303.96848011 369.13422108 C305.66012069 364.41543419 307.82896629 361.92839291 311.96848011 359.13422108 C317.18621594 357.3949758 322.13391333 357.44193173 327.28098011 359.38422108 C329.96848011 361.13422108 329.96848011 361.13422108 331.65207386 363.22797108 C334.87048053 365.8765081 337.7530035 365.57912163 341.71848011 365.38422108 C342.41586292 365.3661742 343.11324574 365.34812733 343.83176136 365.32953358 C345.5445955 365.28260661 347.25671835 365.21086713 348.96848011 365.13422108 C347.01438873 356.84968783 342.54211122 351.36223403 335.53879261 346.41937733 C321.7749726 338.83388547 306.97774028 341.85413884 295.99582386 352.78265858 Z M434.99509144 351.88104725 C431.52054825 358.21731355 431.52054825 358.21731355 429.96848011 365.13422108 C443.16848011 365.13422108 456.36848011 365.13422108 469.96848011 365.13422108 C469.96848011 358.53422108 469.96848011 351.93422108 469.96848011 345.13422108 C450.17267002 341.95951989 450.17267002 341.95951989 434.99509144 351.88104725 Z M429.96848011 381.13422108 C430.62848011 383.11422108 431.28848011 385.09422108 431.96848011 387.13422108 C432.26202381 388.15298328 432.26202381 388.15298328 432.56149769 389.19232655 C434.15171529 394.40857817 436.19929367 399.18540672 440.96848011 402.13422108 C450.4015437 404.11143863 460.45047504 402.96696941 469.96848011 402.13422108 C469.96848011 395.20422108 469.96848011 388.27422108 469.96848011 381.13422108 C456.76848011 381.13422108 443.56848011 381.13422108 429.96848011 381.13422108 Z " fill="#000000" transform="translate(19.031519889831543,-0.13422107696533203)"/>
<path d="M0 0 C1.08232407 -0.00426498 2.16464813 -0.00852997 3.2797699 -0.01292419 C5.06117622 -0.01224442 5.06117622 -0.01224442 6.87857056 -0.0115509 C8.12918777 -0.01490952 9.37980499 -0.01826813 10.6683197 -0.02172852 C14.10020504 -0.02960918 17.53202988 -0.03290659 20.96392012 -0.0335443 C23.8291855 -0.03449382 26.69444508 -0.03817265 29.55970824 -0.0417164 C36.3204583 -0.04986066 43.08119505 -0.05230067 49.84194946 -0.05158997 C56.81460192 -0.05098929 63.78717698 -0.06153912 70.75980985 -0.07733363 C76.74716378 -0.09041267 82.73449242 -0.0957737 88.72186053 -0.09513456 C92.29737291 -0.09487966 95.87281652 -0.09772623 99.44831467 -0.10831261 C103.43681609 -0.1197992 107.42521153 -0.11524451 111.41372681 -0.10920715 C112.59728256 -0.11482666 113.78083832 -0.12044617 115.0002594 -0.12623596 C116.63220497 -0.11994423 116.63220497 -0.11994423 118.29711914 -0.11352539 C119.23990408 -0.11407016 120.18268902 -0.11461493 121.1540432 -0.1151762 C124.07226625 0.16188408 126.16966866 0.79567235 128.77554321 2.13371277 C131.25593228 5.85429637 131.23891524 7.73167847 130.77554321 12.13371277 C128.72609793 14.81482239 127.5320685 15.98664648 124.18618011 16.63707733 C123.19952614 16.63858543 122.21287216 16.64009354 121.19631958 16.64164734 C120.06069077 16.65292664 118.92506195 16.66420593 117.75502014 16.67582703 C116.51333572 16.6677301 115.27165131 16.65963318 113.99234009 16.65129089 C112.02600365 16.66180481 112.02600365 16.66180481 110.01994324 16.67253113 C106.42690041 16.69076328 102.83431709 16.68369778 99.24126625 16.67101479 C95.48082874 16.66088639 91.72043052 16.67028001 87.95999146 16.67655945 C81.64501889 16.68383635 75.33023346 16.67424715 69.01528931 16.65519714 C61.71471838 16.63342814 54.41459428 16.6404795 47.11403418 16.66250277 C40.84553881 16.68065566 34.57717795 16.68321568 28.3086648 16.67274809 C24.56491935 16.66651248 20.82138392 16.66567917 17.07765198 16.67889404 C12.9044143 16.69259608 8.73194672 16.67360482 4.55874634 16.65129089 C2.69621971 16.66343628 2.69621971 16.66343628 0.79606628 16.67582703 C-0.33956253 16.66454773 -1.47519135 16.65326843 -2.64523315 16.64164734 C-4.12521412 16.63938519 -4.12521412 16.63938519 -5.63509369 16.63707733 C-8.97948501 15.9869375 -10.16819272 14.80647844 -12.22445679 12.13371277 C-12.72445679 8.63371277 -12.72445679 8.63371277 -12.22445679 5.13371277 C-8.76929637 0.60626119 -5.47078015 0.00973235 0 0 Z " fill="#000000" transform="translate(53.224456787109375,303.8662872314453)"/>
<path d="M0 0 C1.70344322 -0.01691895 1.70344322 -0.01691895 3.44129944 -0.03417969 C4.68298386 -0.02608276 5.92466827 -0.01798584 7.20397949 -0.00964355 C9.17031593 -0.02015747 9.17031593 -0.02015747 11.17637634 -0.03088379 C14.76941917 -0.04911594 18.36200249 -0.04205044 21.95505333 -0.02936745 C25.71549084 -0.01923905 29.47588906 -0.02863267 33.23632812 -0.03491211 C39.55130069 -0.04218901 45.86608612 -0.03259981 52.18103027 -0.0135498 C59.4816012 0.00821919 66.7817253 0.00116784 74.0822854 -0.02085543 C80.35078077 -0.03900832 86.61914163 -0.04156835 92.88765478 -0.03110075 C96.63140023 -0.02486514 100.37493566 -0.02403183 104.1186676 -0.0372467 C108.29190528 -0.05094874 112.46437286 -0.03195748 116.63757324 -0.00964355 C118.50009987 -0.02178894 118.50009987 -0.02178894 120.4002533 -0.03417969 C121.53588211 -0.02290039 122.67151093 -0.01162109 123.84155273 0 C124.82820671 0.0015081 125.81486069 0.0030162 126.83141327 0.00457001 C130.17580459 0.65470983 131.3645123 1.8351689 133.42077637 4.50793457 C133.92077637 8.00793457 133.92077637 8.00793457 133.42077637 11.50793457 C131.3645123 14.18070024 130.17580459 15.36115931 126.83141327 16.01129913 C125.84475929 16.01280724 124.85810532 16.01431534 123.84155273 16.01586914 C122.70592392 16.02714844 121.5702951 16.03842773 120.4002533 16.05004883 C119.15856888 16.0419519 117.91688446 16.03385498 116.63757324 16.0255127 C114.6712368 16.03602661 114.6712368 16.03602661 112.66517639 16.04675293 C109.07213356 16.06498508 105.47955025 16.05791958 101.8864994 16.04523659 C98.12606189 16.03510819 94.36566367 16.04450181 90.60522461 16.05078125 C84.29025205 16.05805816 77.97546661 16.04846895 71.66052246 16.02941895 C64.35995153 16.00764995 57.05982743 16.0147013 49.75926733 16.03672457 C43.49077197 16.05487747 37.22241111 16.05743749 30.95389795 16.04696989 C27.21015251 16.04073428 23.46661708 16.03990097 19.72288513 16.05311584 C15.54964746 16.06681788 11.37717988 16.04782662 7.20397949 16.0255127 C5.34145287 16.03765808 5.34145287 16.03765808 3.44129944 16.05004883 C2.30567062 16.03876953 1.17004181 16.02749023 0 16.01586914 C-1.47998096 16.01360699 -1.47998096 16.01360699 -2.98986053 16.01129913 C-6.33425186 15.36115931 -7.52295956 14.18070024 -9.57922363 11.50793457 C-10.07922363 8.00793457 -10.07922363 8.00793457 -9.57922363 4.50793457 C-6.66819773 0.72413549 -4.70527469 0.00719202 0 0 Z " fill="#000000" transform="translate(50.5792236328125,379.4920654296875)"/>
<path d="M0 0 C1.09645844 -0.00365067 2.19291687 -0.00730133 3.32260132 -0.01106262 C6.94496167 -0.0191651 10.56687433 -0.00556087 14.18920898 0.0090332 C16.70596822 0.00955181 19.22272786 0.0090341 21.73948669 0.00752258 C27.01273594 0.00761229 32.28586942 0.01770081 37.55908203 0.03613281 C43.6524952 0.05731001 49.74571989 0.06080743 55.83916241 0.05457085 C61.70660707 0.04887347 67.57398437 0.05463147 73.4414196 0.0657444 C75.93613353 0.06959771 78.43085313 0.07074407 80.92556953 0.06915855 C84.40882349 0.06878841 87.89178926 0.08139394 91.375 0.09765625 C92.40939713 0.09517883 93.44379425 0.09270142 94.50953674 0.09014893 C95.45860901 0.09723373 96.40768127 0.10431854 97.38551331 0.11161804 C98.62019269 0.11469735 98.62019269 0.11469735 99.8798151 0.11783886 C102.38179596 0.40169823 103.98310949 1.06272673 106.12280273 2.37231445 C108.01166527 4.89079783 108.12996112 6.20051313 107.99780273 9.37231445 C106.91922247 13.07030394 106.29043874 14.14789156 103.12280273 16.37231445 C99.48578626 16.98973813 95.872969 16.92857576 92.19140625 16.90576172 C90.52008636 16.91868507 90.52008636 16.91868507 88.81500244 16.93186951 C85.12700253 16.95459669 81.43975835 16.94777755 77.75170898 16.9387207 C75.19107333 16.94395342 72.63043962 16.9502286 70.06980896 16.95750427 C64.70057103 16.96792116 59.33160812 16.96365716 53.96240234 16.94873047 C47.7603276 16.93181104 41.55895677 16.94764063 35.35695893 16.97995335 C29.38538049 17.00988428 23.41402077 17.0118308 17.44236565 17.00245476 C14.90380882 17.00163374 12.36523749 17.00852567 9.8267231 17.02322578 C6.27848969 17.04062133 2.73176606 17.026168 -0.81640625 17.00341797 C-1.86748062 17.01511017 -2.91855499 17.02680237 -4.0014801 17.03884888 C-11.12318139 16.94582128 -11.12318139 16.94582128 -15.04066467 13.96617126 C-16.92378227 11.30651935 -17.50959085 10.40305504 -17.00219727 7.24731445 C-16.92227539 6.58473633 -16.84235352 5.9221582 -16.76000977 5.23950195 C-13.73254892 -1.1637117 -5.95719462 -0.04410735 0 0 Z " fill="#000000" transform="translate(221.877197265625,96.627685546875)"/>
<path d="M0 0 C1.38134125 -0.01073296 1.38134125 -0.01073296 2.79058838 -0.02168274 C5.82891726 -0.03856612 8.86577007 -0.01917049 11.90405273 0.00219727 C14.01724876 0.00136861 16.13044472 -0.00109065 18.24363708 -0.00511169 C22.66962108 -0.00796936 27.09509892 0.00673017 31.52099609 0.03417969 C37.19638291 0.06828291 42.87086587 0.06223684 48.54629612 0.04351711 C52.90862066 0.03295361 57.27073453 0.04187875 61.63303947 0.05690193 C63.72583325 0.06208755 65.818649 0.06159735 67.9114399 0.05535698 C70.83467128 0.0499119 73.75660406 0.07025675 76.6796875 0.09765625 C77.54577133 0.09113037 78.41185516 0.08460449 79.30418396 0.07788086 C85.16067475 0.17130993 85.16067475 0.17130993 88.28892517 2.51210022 C90.04607486 5.01738388 90.6259294 6.57215323 90.77514648 9.63110352 C89.71115575 13.44373698 89.14998139 14.38121358 85.77514648 16.63110352 C82.7513871 16.84184171 79.81847546 16.93518787 76.79321289 16.9375 C75.87421707 16.94582352 74.95522125 16.95414703 74.00837708 16.96272278 C70.96444486 16.98685693 67.92072678 16.99559899 64.87670898 17.00219727 C62.76305068 17.01116083 60.64939305 17.02028263 58.53573608 17.02955627 C54.1021775 17.046058 49.66869453 17.05374858 45.23510742 17.05664062 C39.55301882 17.0620263 33.87164051 17.09970933 28.18975258 17.14538479 C23.82314455 17.17512173 19.45670827 17.18236345 15.09000778 17.18336678 C12.99520997 17.18757558 10.90041195 17.20003621 8.80571365 17.22088432 C5.87523362 17.24772912 2.94640919 17.24299372 0.01586914 17.23046875 C-0.84976151 17.24530304 -1.71539215 17.26013733 -2.60725403 17.27542114 C-6.96894176 17.22231367 -8.70229478 17.03525007 -12.26333618 14.28114319 C-14.22485352 11.63110352 -14.22485352 11.63110352 -14.84985352 8.63110352 C-13.13591873 0.40421656 -7.10405714 -0.09613001 0 0 Z " fill="#000000" transform="translate(55.224853515625,416.368896484375)"/>
<path d="M0 0 C1.12977768 -0.01007584 1.12977768 -0.01007584 2.28237915 -0.02035522 C4.77441999 -0.03936634 7.26619192 -0.04326102 9.75830078 -0.04541016 C11.49081534 -0.05183618 13.2233288 -0.0585644 14.95584106 -0.06558228 C18.58907588 -0.077563 22.22221557 -0.08126231 25.85546875 -0.08007812 C30.50842487 -0.07987495 35.16077011 -0.10717193 39.81358147 -0.14162254 C43.39269811 -0.16387402 46.97166737 -0.1679162 50.5508461 -0.16685867 C52.26604441 -0.16921747 53.98124661 -0.17805674 55.6963768 -0.19352341 C58.09749704 -0.21314758 60.49729541 -0.20736023 62.8984375 -0.1953125 C63.95843964 -0.21217102 63.95843964 -0.21217102 65.03985596 -0.22937012 C69.805501 -0.16868957 72.24277334 0.90105797 75.57861328 4.29052734 C76.24267578 6.29052734 76.24267578 6.29052734 76.20361328 8.29052734 C76.22294922 9.28052734 76.22294922 9.28052734 76.24267578 10.29052734 C75.19166421 13.45592691 73.34039987 14.49563989 70.57861328 16.29052734 C67.9114868 16.66759755 65.66494527 16.81931784 63.00610352 16.77636719 C62.26077362 16.78016388 61.51544373 16.78396057 60.74752808 16.78787231 C58.29365417 16.79525784 55.84097497 16.77392667 53.38720703 16.75146484 C51.67757811 16.74907933 49.96794654 16.74817533 48.25831604 16.74868774 C44.67977426 16.74556329 41.10163412 16.72902426 37.52319336 16.70214844 C32.9375985 16.66814336 28.35244413 16.66052082 23.76673794 16.6620388 C20.23826396 16.66149486 16.70988615 16.65052419 13.18144417 16.63603592 C11.49056793 16.62967507 9.79968081 16.62573069 8.10879326 16.6242485 C5.74624965 16.61990933 3.38417189 16.60239619 1.02172852 16.58105469 C0.32395798 16.58196106 -0.37381256 16.58286743 -1.09272766 16.58380127 C-4.65919059 16.53672053 -7.49022726 16.44063852 -10.42138672 14.29052734 C-11.93281659 10.64935537 -12.67936659 8.34589953 -11.73388672 4.47802734 C-8.84417497 -0.33815891 -5.03237059 -0.00641775 0 0 Z " fill="#000000" transform="translate(108.42138671875,341.70947265625)"/>
<path d="M0 0 C0.68651642 -0.00686325 1.37303284 -0.0137265 2.08035278 -0.02079773 C4.35008417 -0.03910138 6.61912665 -0.03522333 8.88891602 -0.02954102 C10.46688564 -0.03410133 12.04485326 -0.03940645 13.62281799 -0.04542542 C16.93075628 -0.05436363 20.23845325 -0.05192569 23.54638672 -0.04199219 C27.78473274 -0.03050478 32.02224533 -0.05070606 36.26048183 -0.07990932 C39.51961048 -0.09826014 42.77853903 -0.09798111 46.03770638 -0.0922718 C47.60021191 -0.09211843 49.16273087 -0.09817592 50.7251873 -0.11056328 C52.91107231 -0.12545039 55.09541317 -0.11481531 57.28125 -0.09765625 C58.52462631 -0.09749008 59.76800262 -0.09732391 61.04905701 -0.09715271 C64.79694577 0.49800077 65.98766932 1.36939984 68.20532227 4.40405273 C68.70532227 7.90405273 68.70532227 7.90405273 68.20532227 11.40405273 C65.98669197 14.31122346 64.68587298 15.24386916 61.20532227 16.40405273 C59.16174142 16.50317212 57.11506306 16.54232326 55.0690918 16.54931641 C53.80412872 16.55569626 52.53916565 16.56207611 51.23587036 16.56864929 C49.85329222 16.57017811 48.47071356 16.571292 47.08813477 16.57202148 C45.66950446 16.57523532 44.25087448 16.57859949 42.83224487 16.58210754 C39.85812614 16.58809527 36.88403645 16.58994783 33.90991211 16.58935547 C30.10460905 16.58925392 26.29949288 16.60290027 22.49423409 16.62012768 C19.56366119 16.63126366 16.63313323 16.63327418 13.70254135 16.63274574 C12.29995963 16.63392367 10.89737667 16.63833497 9.49481583 16.64607811 C7.53001572 16.65590877 5.56516074 16.65172777 3.6003418 16.64697266 C1.92513962 16.64911018 1.92513962 16.64911018 0.21609497 16.65129089 C-3.79740171 16.3217112 -6.66468095 15.42104984 -9.66967773 12.71655273 C-11.33051528 9.30260889 -10.7142048 7.01648051 -9.79467773 3.40405273 C-7.2605191 -0.38498613 -4.30355739 0.01871271 0 0 Z " fill="#000000" transform="translate(215.794677734375,62.595947265625)"/>
<path d="M0 0 C1.87214172 -0.01407143 1.87214172 -0.01407143 3.78210449 -0.02842712 C5.1405506 -0.01794875 6.49899009 -0.00657973 7.85742188 0.00561523 C9.25459875 0.00546021 10.65177605 0.0039706 12.0489502 0.00120544 C14.97439633 -0.00017784 17.89935176 0.01236659 20.82470703 0.03515625 C24.57084129 0.06354145 28.31616046 0.060803 32.06235504 0.04806614 C34.94662412 0.04110448 37.83070546 0.04890365 40.71495056 0.06132317 C42.09601623 0.06583298 43.47710209 0.06617856 44.85816956 0.06225777 C46.78959479 0.05934114 48.72101604 0.07802849 50.65234375 0.09765625 C52.2997052 0.10576073 52.2997052 0.10576073 53.98034668 0.11402893 C57.18933806 0.55118226 58.55602447 1.21931006 60.82617188 3.50170898 C61.82617188 6.87670898 61.82617188 6.87670898 61.82617188 10.50170898 C60.05976015 13.30360344 58.79567366 15.01695809 55.82617188 16.50170898 C53.94323978 16.60813754 52.05655166 16.65053554 50.1706543 16.6628418 C48.9856987 16.67244934 47.8007431 16.68205688 46.57987976 16.69195557 C45.29346085 16.69620544 44.00704193 16.70045532 42.68164062 16.70483398 C41.36456619 16.71053406 40.04749176 16.71623413 38.69050598 16.72210693 C35.89872857 16.73261724 33.10697996 16.73845937 30.31518555 16.74194336 C26.74405295 16.74742133 23.17330294 16.77143375 19.60229015 16.79991531 C16.19124767 16.8230643 12.78025759 16.82499318 9.36914062 16.82983398 C8.0887944 16.84218079 6.80844818 16.85452759 5.48930359 16.86724854 C4.29489151 16.86424744 3.10047943 16.86124634 1.86987305 16.8581543 C0.82111496 16.86179993 -0.22764313 16.86544556 -1.30818176 16.86920166 C-4.61777443 16.44477697 -6.49836612 15.46439836 -9.17382812 13.50170898 C-10.71969688 10.40997147 -10.46742334 7.90741346 -10.17382812 4.50170898 C-7.16522338 0.45895959 -4.92492619 0.00074516 0 0 Z " fill="#000000" transform="translate(51.173828125,93.498291015625)"/>
<path d="M0 0 C1.90701439 -0.01407143 1.90701439 -0.01407143 3.85255432 -0.02842712 C5.23626378 -0.01794991 6.61996673 -0.00658104 8.00366211 0.00561523 C9.42565484 0.00546023 10.84764801 0.00397095 12.26963806 0.00120544 C15.24635549 -0.00017777 18.22259062 0.01236706 21.19921875 0.03515625 C25.01494889 0.06356725 28.82987942 0.06079589 32.64566898 0.04806614 C35.58050877 0.04111263 38.51516361 0.0488939 41.44997978 0.06132317 C42.85699187 0.06583909 44.26402379 0.06617322 45.67103767 0.06225777 C47.6361938 0.05934847 49.60134625 0.07800214 51.56640625 0.09765625 C52.68463272 0.10305923 53.80285919 0.10846222 54.95497131 0.11402893 C57.71850586 0.50170898 57.71850586 0.50170898 59.54832458 1.84727478 C61.34468556 4.38701893 61.59507319 6.41589226 61.71850586 9.50170898 C60.42601869 12.66112206 59.53228104 14.09729041 56.45787048 15.62516785 C53.49049195 16.57466881 51.12460719 16.76179192 48.01367188 16.77636719 C46.33151329 16.79066521 46.33151329 16.79066521 44.6153717 16.80525208 C42.8121067 16.80388496 42.8121067 16.80388496 40.97241211 16.80249023 C39.10660744 16.80891792 39.10660744 16.80891792 37.20310974 16.81547546 C33.90263734 16.82268137 30.6023477 16.81959944 27.30187988 16.81390381 C25.28430968 16.81420849 23.26703308 16.82424632 21.24951172 16.83789062 C17.36533864 16.8623942 13.48165287 16.86654572 9.59741211 16.86499023 C7.79718346 16.87880486 7.79718346 16.87880486 5.96058655 16.89289856 C-4.58574773 16.83448542 -4.58574773 16.83448542 -9.28149414 13.50170898 C-10.8273629 10.40997147 -10.57508935 7.90741346 -10.28149414 4.50170898 C-7.25347916 0.41604852 -4.96362074 0.00073707 0 0 Z " fill="#000000" transform="translate(51.281494140625,62.498291015625)"/>
<path d="M0 0 C0.93928345 -0.00145523 1.87856689 -0.00291046 2.84631348 -0.00440979 C4.83002833 -0.00275154 6.81375615 0.0088014 8.79736328 0.02954102 C11.83291296 0.0584904 14.86671547 0.05014944 17.90234375 0.03710938 C19.83073765 0.04334712 21.75912604 0.05173834 23.6875 0.0625 C25.04856873 0.05809654 25.04856873 0.05809654 26.43713379 0.05360413 C32.66951398 0.14686178 32.66951398 0.14686178 35.88476562 1.81225586 C38.28196984 4.57890872 38.34375 6.90984417 38.34375 10.49609375 C36.57733828 13.29798821 35.31325178 15.01134286 32.34375 16.49609375 C29.34000896 16.63202236 26.36065296 16.70888274 23.35546875 16.734375 C22.46011917 16.74244675 21.56476959 16.75051849 20.64228821 16.75883484 C18.74502501 16.77267805 16.84773687 16.78339914 14.95043945 16.79125977 C12.05306606 16.80846421 9.15683621 16.85234652 6.25976562 16.89648438 C4.41667506 16.90661207 2.57357479 16.91512793 0.73046875 16.921875 C-0.13427567 16.93938309 -0.99902008 16.95689117 -1.88996887 16.97492981 C-6.01849277 16.96009196 -8.12233085 16.82926922 -11.70361328 14.59448242 C-13.80866717 12.33229961 -14.31952692 11.53125747 -14.21875 8.49609375 C-14.22003906 7.83609375 -14.22132813 7.17609375 -14.22265625 6.49609375 C-12.19488325 -0.66404265 -6.1801909 -0.07651502 0 0 Z " fill="#000000" transform="translate(291.65625,131.50390625)"/>
<path d="M0 0 C0.80469223 -0.0038269 1.60938446 -0.00765381 2.4384613 -0.01159668 C4.13371029 -0.01431025 5.82900155 -0.00698792 7.52416992 0.00976562 C10.11667163 0.03121342 12.70641134 0.009933 15.29882812 -0.015625 C16.94922485 -0.01298217 18.59961986 -0.00785812 20.25 0 C21.02299942 -0.00809692 21.79599884 -0.01619385 22.59242249 -0.02453613 C26.14174161 0.03724823 28.16233722 0.2288468 31.02319336 2.41210938 C32.83737726 4.91602356 33.40791578 6.44235162 33.55859375 9.53125 C32.84618373 12.31612553 32.35647204 13.96370238 29.98217773 15.65258789 C26.51440337 16.90981766 23.11334911 16.87632294 19.46875 16.90234375 C18.68721054 16.91137222 17.90567108 16.9204007 17.10044861 16.92970276 C15.45054951 16.94418341 13.80059326 16.95308657 12.15063477 16.95678711 C9.63263996 16.96869539 7.11708814 17.01790643 4.59960938 17.06835938 C2.9935015 17.07782315 1.38737863 17.08505841 -0.21875 17.08984375 C-0.96785141 17.10937607 -1.71695282 17.12890839 -2.48875427 17.14903259 C-6.44790526 17.1150198 -8.25505609 16.67609386 -11.41625977 14.21899414 C-13.44140625 11.53125 -13.44140625 11.53125 -14.06640625 7.96875 C-13.44140625 4.53125 -13.44140625 4.53125 -11.42993164 2.34960938 C-7.60107277 0.0199516 -4.35115599 -0.04569664 0 0 Z " fill="#000000" transform="translate(54.44140625,341.46875)"/>
<path d="M0 0 C1.14662109 -0.00064453 2.29324219 -0.00128906 3.47460938 -0.00195312 C4.66763672 0.01802734 5.86066406 0.03800781 7.08984375 0.05859375 C8.28673828 0.05150391 9.48363281 0.04441406 10.71679688 0.03710938 C19.49697954 0.10134256 19.49697954 0.10134256 21.83764648 1.84350586 C23.66124308 4.37663234 23.90355555 6.4013888 24.02734375 9.49609375 C22.79362081 12.51186095 21.86630037 14.03216206 19 15.6171875 C14.83748994 16.84789021 10.90792571 16.82521454 6.58984375 16.80859375 C5.75646484 16.82470703 4.92308594 16.84082031 4.06445312 16.85742188 C-1.01947658 16.86144079 -4.58622038 16.3531859 -8.97265625 13.49609375 C-10.51852501 10.40435623 -10.26625146 7.90179823 -9.97265625 4.49609375 C-7.00556711 0.53894817 -4.84691147 -0.00856016 0 0 Z " fill="#000000" transform="translate(305.97265625,62.50390625)"/>
</svg>
