<?xml version="1.0" encoding="UTF-8"?>
<svg version="1.1" xmlns="http://www.w3.org/2000/svg" width="512" height="512">
<path d="M0 0 C1.20962367 -0.00453111 2.41924734 -0.00906223 3.66552627 -0.01373065 C7.01095174 -0.02418035 10.35616175 -0.02570401 13.70158815 -0.02334189 C17.31457836 -0.0229329 20.92753678 -0.03398089 24.54051208 -0.04345703 C31.61523762 -0.06005134 38.68992982 -0.0655659 45.76467319 -0.06668179 C51.51859507 -0.0676332 57.27250599 -0.07174813 63.02642441 -0.07808304 C79.35446525 -0.09569272 95.68247984 -0.10492257 112.01053025 -0.10342209 C113.33017694 -0.10330222 113.33017694 -0.10330222 114.67648315 -0.10317993 C115.5573272 -0.10309817 116.43817124 -0.10301641 117.34570752 -0.10293217 C131.61138273 -0.10211979 145.87695221 -0.12124598 160.14259686 -0.14945666 C174.80479966 -0.17822171 189.46695097 -0.19199491 204.1291827 -0.19026911 C212.35506904 -0.18960636 220.58084462 -0.19504778 228.80670547 -0.21662521 C235.81249643 -0.23488494 242.81812642 -0.23914536 249.82393093 -0.22560637 C253.39422257 -0.21910017 256.96420587 -0.21887345 260.5344677 -0.23631287 C264.41610416 -0.25507706 268.29729636 -0.24242742 272.17895508 -0.22705078 C273.29192495 -0.23733791 274.40489481 -0.24762503 275.55159104 -0.25822389 C287.42792084 -0.1547962 297.5478448 3.03151741 306.97042847 10.26742554 C307.83667847 10.84492554 308.70292847 11.42242554 309.59542847 12.01742554 C317.69300476 19.6888136 323.54069245 30.64787542 324.17355347 41.86898804 C324.19467269 43.2100586 324.21015109 44.55122806 324.22042847 45.89242554 C324.25136597 46.91336304 324.25136597 46.91336304 324.28292847 47.95492554 C324.29855347 49.93148804 324.29855347 49.93148804 323.97042847 53.26742554 C300.66641759 68.80343279 267.97836385 55.26742554 239.97042847 55.26742554 C239.97042847 111.03742554 239.97042847 166.80742554 239.97042847 224.26742554 C272.61039543 224.14870532 272.61039543 224.14870532 305.25021362 223.99716187 C311.57077026 223.98361206 311.57077026 223.98361206 314.53204346 223.98109436 C316.59513287 223.97649515 318.65821434 223.96595949 320.72125244 223.95069885 C323.85083982 223.92871102 326.97993547 223.92570847 330.10958862 223.92684937 C331.02483622 223.91605504 331.94008381 223.90526072 332.88306618 223.89413929 C338.71090761 223.92254239 343.17071492 224.65391621 347.61495972 228.80258179 C351.36709884 233.70922526 352.09555968 235.81242223 352.09741211 241.98629761 C352.0989721 242.68488278 352.10053209 243.38346795 352.10213935 244.10322237 C352.10614355 246.45550395 352.10296195 248.80772155 352.099823 251.16000366 C352.1011773 252.84176166 352.10295739 254.52351936 352.10513306 256.20527649 C352.109704 260.78160004 352.10791921 265.35790112 352.10475397 269.93422508 C352.10222863 274.7152551 352.1045684 279.49628314 352.10614014 284.27731323 C352.10796132 292.30738675 352.10555686 300.33745107 352.10079956 308.36752319 C352.09535704 317.66175781 352.09711973 326.95597048 352.10262597 336.25020456 C352.10715855 344.21878959 352.10780693 352.18736799 352.1051873 360.15595388 C352.10362533 364.92017063 352.10342859 369.68437705 352.10672379 374.44859314 C352.1096046 378.92678928 352.10762291 383.40495704 352.10182953 387.8831501 C352.10050306 389.5303448 352.10089413 391.17754187 352.10309219 392.82473564 C352.10580813 395.06604091 352.10241709 397.30725413 352.09741211 399.54855347 C352.09703508 400.80512505 352.09665806 402.06169662 352.09626961 403.35634613 C351.97042847 406.26742554 351.97042847 406.26742554 350.97042847 408.26742554 C351.72968628 408.22101929 352.48894409 408.17461304 353.27120972 408.12680054 C354.2650769 408.09070679 355.25894409 408.05461304 356.28292847 408.01742554 C357.26906128 407.97101929 358.25519409 407.92461304 359.27120972 407.87680054 C361.97042847 408.26742554 361.97042847 408.26742554 363.87277222 410.11508179 C364.97042847 412.26742554 364.97042847 412.26742554 364.22042847 414.95492554 C362.97042847 417.26742554 362.97042847 417.26742554 361.97042847 418.26742554 C359.72585776 418.36829184 357.47803699 418.39667641 355.23120213 418.3988533 C354.51477703 418.40090594 353.79835194 418.40295857 353.06021699 418.4050734 C350.62911206 418.41078482 348.19806304 418.4092811 345.76695251 418.40786743 C344.01859882 418.41044869 342.27024572 418.41346118 340.52189344 418.41687083 C335.69374378 418.42497206 330.86560895 418.42673213 326.03745329 418.4274683 C320.83969764 418.42931343 315.64194978 418.43685795 310.44419861 418.44360352 C299.06845432 418.45720905 287.69271355 418.46321487 276.31696248 418.46761417 C269.22072668 418.47037259 262.12449225 418.47460917 255.02825737 418.47911835 C235.40007773 418.49131342 215.7718992 418.50161258 196.14371586 418.50499344 C194.25787247 418.50532279 194.25787247 418.50532279 192.33393123 418.50565879 C191.07361231 418.50587707 189.81329338 418.50609535 188.51478297 418.50632024 C185.96069149 418.50676371 183.40660002 418.50721028 180.85250854 418.50765991 C178.95211273 418.50799206 178.95211273 418.50799206 177.01332509 418.50833091 C156.47056887 418.51228147 135.92784808 418.5297423 115.38510556 418.55301943 C94.31937165 418.57669753 73.25365555 418.58919365 52.18790811 418.59036136 C40.35005067 418.59128007 28.51223938 418.59708146 16.67439461 418.61518097 C6.59688827 418.63053418 -3.48055766 418.6357308 -13.55807345 418.62744287 C-18.70457588 418.62351945 -23.85095649 418.62454779 -28.99744415 418.63850021 C-33.70197248 418.65113844 -38.4062862 418.65013141 -43.1108138 418.6379095 C-44.81942394 418.63593487 -46.52804876 418.63911125 -48.23663818 418.64775386 C-50.54619351 418.65870349 -52.85497203 418.6514625 -55.16450405 418.63936234 C-56.4512139 418.63995942 -57.73792374 418.64055651 -59.0636248 418.64117169 C-60.04238722 418.51783546 -61.02114964 418.39449923 -62.02957153 418.26742554 C-64.18151523 415.03950999 -64.23043596 413.98341745 -64.02957153 410.26742554 C-65.14525513 409.88070679 -65.14525513 409.88070679 -66.28347778 409.48617554 C-74.8807634 405.67059501 -80.56487121 396.24624938 -84.02957153 387.84164429 C-86.55038798 380.63065494 -87.23030032 373.67385191 -87.27957153 366.07992554 C-87.30019653 365.27361694 -87.32082153 364.46730835 -87.34207153 363.63656616 C-87.34722778 362.86119507 -87.35238403 362.08582397 -87.35769653 361.28695679 C-87.36704224 360.58675415 -87.37638794 359.88655151 -87.38601685 359.16513062 C-86.89033192 356.52611766 -86.22141673 355.84298389 -84.02957153 354.26742554 C-81.44182382 354.00589485 -79.100575 353.91784116 -76.51785278 353.97445679 C-75.78962814 353.97870163 -75.0614035 353.98294647 -74.31111145 353.98731995 C-71.98772026 354.0040982 -69.66520003 354.04174699 -67.34207153 354.07992554 C-65.7659122 354.09497356 -64.18973925 354.10866177 -62.61355591 354.12094116 C-58.75189276 354.15399868 -54.89087976 354.2057736 -51.02957153 354.26742554 C-51.03033097 353.61814756 -51.03109041 352.96886958 -51.03187287 352.29991651 C-51.0766554 313.79524613 -51.11095799 275.29057913 -51.13170219 236.78588797 C-51.13420352 232.15977936 -51.13679218 227.53367079 -51.13943481 222.90756226 C-51.13995944 221.98661002 -51.14048406 221.06565778 -51.14102457 220.11679789 C-51.14972074 205.21631972 -51.16548638 190.31585702 -51.18387713 175.41538802 C-51.2025981 160.11948318 -51.21369291 144.82358644 -51.21774852 129.52767062 C-51.22048902 120.09373865 -51.22913626 110.65985042 -51.24540447 101.22593191 C-51.25599848 94.75160864 -51.25916669 88.27730789 -51.25657429 81.80297658 C-51.25529676 78.07091891 -51.25721765 74.33893755 -51.26798248 70.60689354 C-51.2795935 66.55165126 -51.27552824 62.49656993 -51.27008057 58.4413147 C-51.27590625 57.27396577 -51.28173193 56.10661685 -51.28773415 54.90389371 C-51.23056295 39.10737073 -48.17379348 25.2932653 -37.28738403 13.35726929 C-26.59843952 3.26708308 -14.23750761 -0.03914973 0 0 Z M-32.02957153 23.62680054 C-39.10955303 33.12577572 -40.47575404 41.58396153 -40.39033508 53.27037048 C-40.39289836 54.56029575 -40.39546163 55.85022101 -40.39810258 57.17923492 C-40.40477729 60.73909761 -40.39285686 64.298687 -40.3777684 67.8585149 C-40.36476846 71.70501798 -40.36920028 75.55150664 -40.37147522 79.39802551 C-40.37304546 86.05555918 -40.36366238 92.7130044 -40.3467617 99.37051582 C-40.32234239 108.99605106 -40.31456344 118.62154369 -40.31079773 128.24710654 C-40.30423784 143.86531327 -40.28428924 159.48347289 -40.25588989 175.10165405 C-40.22833734 190.26994597 -40.20714403 205.43822501 -40.19436646 220.60653687 C-40.19356246 221.55162084 -40.19275847 222.49670481 -40.19193012 223.47042769 C-40.18569156 230.86200994 -40.17982089 238.25359246 -40.17406642 245.6451751 C-40.14578422 281.85263515 -40.08542488 318.05997724 -40.02957153 354.26742554 C56.00042847 354.76242554 56.00042847 354.76242554 153.97042847 355.26742554 C155.33665664 357.99988189 155.1301891 360.5861477 155.20895386 363.5899353 C155.60898527 377.39299941 157.83484628 388.18575602 167.97042847 398.26742554 C176.46323697 405.38994047 184.72629704 407.5839489 195.66183472 407.66586304 C199.86416193 407.29219003 199.86416193 407.29219003 206.97042847 404.26742554 C206.97042847 380.50742554 206.97042847 356.74742554 206.97042847 332.26742554 C200.18069458 332.25807983 193.39096069 332.24873413 186.39547729 332.23910522 C164.67518106 332.20640298 142.95496848 332.15412105 121.2347443 332.08950458 C117.86140183 332.07948703 114.48805887 332.06964292 111.11471558 332.05990601 C110.4431388 332.05796463 109.77156203 332.05602326 109.07963445 332.05402306 C98.20308646 332.02299516 87.32655956 332.00602022 76.44997565 331.99423131 C65.29102492 331.98182383 54.13217119 331.9540338 42.97328585 331.91281247 C36.70487314 331.89014542 30.43661873 331.874518 24.16816139 331.87554169 C18.27072438 331.87628519 12.37363799 331.85845881 6.47629166 331.82625771 C4.30951854 331.81772391 2.14270625 331.81603222 -0.02407646 331.82162285 C-2.97860695 331.82823181 -5.93201174 331.81041626 -8.88642883 331.78640747 C-10.17777757 331.7980481 -10.17777757 331.7980481 -11.49521416 331.80992389 C-15.53899655 331.75160155 -17.54268534 331.57607325 -21.03851795 329.35998917 C-24.52200433 325.69890392 -24.445687 322.64669595 -24.35379028 317.74789429 C-24.02957153 315.26742554 -24.02957153 315.26742554 -22.21707153 312.26742554 C-18.98359202 310.23857565 -17.03322451 309.7536586 -13.33035278 309.14242554 C-12.33817749 308.97484741 -11.3460022 308.80726929 -10.32376099 308.63461304 C-9.56667847 308.51344116 -8.80959595 308.39226929 -8.02957153 308.26742554 C-8.02370529 307.35953781 -8.01783905 306.45165009 -8.01179504 305.51625061 C-7.95392976 296.96693025 -7.88188874 288.41787287 -7.79385662 279.86880779 C-7.74909836 275.47346003 -7.70985448 271.07820612 -7.68313599 266.68270874 C-7.65715714 262.44205954 -7.61679377 258.20177049 -7.56638527 253.96134377 C-7.54967973 252.34224738 -7.53818845 250.72308865 -7.53195763 249.10391808 C-7.52235623 246.83861771 -7.49434667 244.5742464 -7.46194458 242.30917358 C-7.45084152 241.01899826 -7.43973846 239.72882294 -7.42829895 238.39955139 C-7.02957153 235.26742554 -7.02957153 235.26742554 -5.72740173 233.35157776 C-2.76448967 231.45960547 0.62750796 231.8418688 4.03292847 231.86898804 C5.2144751 231.86468277 5.2144751 231.86468277 6.41989136 231.86029053 C8.08420532 231.85825032 9.74854328 231.86377721 11.41281128 231.87631226 C13.96120793 231.89236745 16.50801868 231.8764631 19.05636597 231.85726929 C20.67355697 231.85925173 22.29074698 231.86309542 23.90792847 231.86898804 C24.6704895 231.86291534 25.43305054 231.85684265 26.21871948 231.85058594 C31.46667925 231.92040111 31.46667925 231.92040111 33.91183472 233.60482788 C36.27026915 237.30891886 36.12207801 240.76296755 36.17575073 245.03378296 C36.18565033 245.71697098 36.19554993 246.400159 36.20574951 247.10404968 C36.23731525 249.36029607 36.26210237 251.6165635 36.28683472 253.87289429 C36.3074085 255.43802943 36.32840509 257.00315906 36.34980774 258.56828308 C36.40498456 262.6863967 36.45441317 266.80456009 36.50265503 270.92276001 C36.55290211 275.12558418 36.60857144 279.32833611 36.66378784 283.53109741 C36.77131573 291.77647904 36.8727726 300.02192111 36.97042847 308.26742554 C39.61042847 308.26742554 42.25042847 308.26742554 44.97042847 308.26742554 C44.9902478 307.02130493 45.01006714 305.77518433 45.03048706 304.49130249 C45.10666501 299.85991502 45.19536379 295.22883673 45.28781128 290.5977478 C45.32605064 288.59488029 45.36091228 286.59194529 45.39230347 284.58895874 C45.43806343 281.70679636 45.49604001 278.82509659 45.55636597 275.94320679 C45.56791718 275.05031448 45.57946838 274.15742218 45.59136963 273.23747253 C45.69436238 268.88084768 45.78267367 265.16427266 47.97042847 261.26742554 C51.11394056 259.69566949 54.48286364 260.08341202 57.93527222 260.06430054 C59.11894127 260.05575043 59.11894127 260.05575043 60.32652283 260.04702759 C61.99679217 260.03757629 63.66708018 260.03104309 65.33737183 260.02719116 C67.89442359 260.01747684 70.45067451 259.98645222 73.00753784 259.95492554 C74.62927785 259.94839632 76.25102362 259.94314553 77.87277222 259.93930054 C78.63847031 259.92695374 79.4041684 259.91460693 80.19306946 259.90188599 C85.50126152 259.92419545 85.50126152 259.92419545 87.66925049 261.51023865 C89.31127132 263.72771968 89.36437094 264.9949184 89.40280151 267.73886108 C89.42259567 268.63956833 89.44238983 269.54027557 89.46278381 270.46827698 C89.4723687 271.9215313 89.4723687 271.9215313 89.48214722 273.40414429 C89.50009842 274.39872147 89.51804962 275.39329865 89.5365448 276.41801453 C89.59075863 279.59694164 89.62457929 282.77571766 89.65792847 285.95492554 C89.69109173 288.10924349 89.72558045 290.26354147 89.76144409 292.41781616 C89.84649162 297.70091046 89.91325015 302.98395908 89.97042847 308.26742554 C92.94042847 308.26742554 95.91042847 308.26742554 98.97042847 308.26742554 C98.98255875 306.47670624 98.98255875 306.47670624 98.99493408 304.64981079 C99.07236619 293.40782618 99.16009813 282.16596304 99.25795555 270.92413712 C99.30793475 265.14438535 99.35426476 259.36465201 99.39230347 253.58480835 C99.42913558 248.00857976 99.47549009 242.43250469 99.52849197 236.85640717 C99.54704691 234.72735025 99.56215079 232.59826041 99.57377243 230.46915436 C99.59061589 227.49061813 99.61964667 224.51243438 99.65158081 221.5340271 C99.65482109 220.20909241 99.65482109 220.20909241 99.65812683 218.85739136 C99.66929031 218.04413391 99.6804538 217.23087646 99.69195557 216.39297485 C99.69748632 215.68872501 99.70301708 214.98447517 99.70871544 214.25888443 C100.01928467 211.8956629 100.72687025 210.29360873 101.97042847 208.26742554 C105.04962602 206.72782676 108.30006494 207.06277436 111.68136597 207.02914429 C112.44591095 207.02107254 113.21045593 207.01300079 113.99816895 207.00468445 C115.61715427 206.99084741 117.23616873 206.98012354 118.85519409 206.97225952 C121.32906412 206.95503945 123.80159993 206.91115203 126.27511597 206.86703491 C127.84802281 206.85690839 129.420941 206.84839216 130.99386597 206.84164429 C131.73252899 206.8241362 132.47119202 206.80662811 133.23223877 206.78858948 C136.36473848 206.80179517 138.51848635 206.96975427 141.16351318 208.7118988 C143.87746829 212.5502552 143.54223346 216.02869375 143.5163269 220.62582397 C143.52666458 221.57250443 143.53700226 222.51918488 143.5476532 223.49455261 C143.57713949 226.62214102 143.57858162 229.74908391 143.57980347 232.87680054 C143.59478114 235.04586018 143.61150742 237.21490839 143.62991333 239.38394165 C143.67364512 245.09183265 143.69359896 250.79956979 143.70864868 256.50759888 C143.72819866 262.33258178 143.77017106 268.15739802 143.81027222 273.98226929 C143.88563758 285.41060337 143.93589082 296.83890026 143.97042847 308.26742554 C146.94042847 308.26742554 149.91042847 308.26742554 152.97042847 308.26742554 C152.97189503 307.60628124 152.97336159 306.94513695 152.97487259 306.26395798 C153.01191478 290.18120758 153.07089478 274.09871021 153.15433121 258.01613998 C153.19415067 250.23873292 153.22652831 242.46142747 153.24142456 234.68392944 C153.25442611 227.90551352 153.28135213 221.1273209 153.32504153 214.34903073 C153.34769045 210.75949444 153.36333712 207.1702339 153.36231232 203.58061981 C153.3614294 199.57453762 153.39163174 195.56927115 153.42453003 191.56332397 C153.41698448 189.77552773 153.41698448 189.77552773 153.4092865 187.95161438 C153.42319931 186.86068985 153.43711212 185.76976532 153.45144653 184.64578247 C153.45697729 183.22437769 153.45697729 183.22437769 153.46261978 181.77425766 C154.12782896 178.49040729 155.3475152 177.29634871 157.97042847 175.26742554 C160.74184729 174.86936267 163.1084727 174.70557165 165.87667847 174.73617554 C166.63839355 174.73234863 167.40010864 174.72852173 168.18490601 174.72457886 C169.79197515 174.72186241 171.39908871 174.72920509 173.006073 174.74594116 C175.46264434 174.76735767 177.91629158 174.74613375 180.37277222 174.72055054 C181.93658074 174.72319386 183.50038745 174.72831895 185.06417847 174.73617554 C185.79656738 174.72807861 186.5289563 174.71998169 187.28353882 174.7116394 C190.55267159 174.77159362 192.54094041 174.93520019 195.16321182 176.96362686 C197.36084429 179.76511875 197.47568803 181.11913211 197.4894104 184.64578247 C197.50332321 185.736707 197.51723602 186.82763153 197.53157043 187.95161438 C197.52654007 189.14347855 197.5215097 190.33534271 197.5163269 191.56332397 C197.52666458 192.82211868 197.53700226 194.08091339 197.5476532 195.37785339 C197.57552103 198.82594111 197.57891774 202.27367023 197.57793331 205.72185421 C197.58106179 209.32674637 197.60667857 212.93147686 197.62991333 216.5362854 C197.67048203 223.36080694 197.69081601 230.18523291 197.70388722 237.00985646 C197.71975438 244.78014105 197.75816874 252.55026293 197.79848051 260.32045317 C197.88089129 276.30272893 197.93497595 292.28497246 197.97042847 308.26742554 C200.94042847 308.59742554 203.91042847 308.92742554 206.97042847 309.26742554 C206.9740741 308.36842026 206.97771973 307.46941498 206.98147583 306.54316711 C207.01940675 298.05391284 207.07631739 289.56504075 207.15433121 281.07605648 C207.19377165 276.7121783 207.22597683 272.34850086 207.24142456 267.98446655 C207.25661397 263.76966253 207.29109945 259.55541051 207.33873749 255.34085274 C207.35352786 253.73623018 207.36146814 252.1315288 207.36231232 250.5268383 C207.36469094 248.2717248 207.3918388 246.01812585 207.42453003 243.76327515 C207.43341248 242.48198227 207.44229492 241.20068939 207.45144653 239.88056946 C208.26930903 234.18662383 210.4128345 230.47535555 215.03292847 226.89242554 C218.22543317 225.25570969 221.15858674 224.93568417 224.71652222 224.66586304 C226.19463379 224.54863892 226.19463379 224.54863892 227.7026062 224.42904663 C228.45098755 224.37571167 229.1993689 224.32237671 229.97042847 224.26742554 C229.97262831 222.84474381 229.97262831 222.84474381 229.97487259 221.39332104 C230.01150644 198.28985712 230.071007 175.18653774 230.15433121 152.08319378 C230.19410003 140.91047113 230.22650351 129.7378187 230.24142456 118.56503296 C230.25445221 108.82411761 230.28144543 99.08335689 230.32504153 89.34252864 C230.34763116 84.18727281 230.36334064 79.03220753 230.36231232 73.87689781 C230.36156424 69.01851479 230.37957452 64.1605526 230.4115963 59.30227852 C230.42007252 57.52504268 230.42186079 55.74775952 230.41623116 53.97051239 C230.38393779 42.20267197 231.50763516 32.2581537 237.84542847 22.01742554 C238.29660034 21.26976929 238.74777222 20.52211304 239.21261597 19.75180054 C240.74621805 17.5843096 242.34673259 15.61838292 244.08029175 13.6121521 C244.62130524 12.9848822 245.16231873 12.3576123 245.71972656 11.71133423 C246.13245819 11.23484436 246.54518982 10.75835449 246.97042847 10.26742554 C214.70623934 10.17607096 182.44208717 10.10533317 150.17779883 10.06316422 C146.36412763 10.05816171 142.5504567 10.05298439 138.73678589 10.04769897 C137.97758916 10.04664973 137.21839243 10.04560049 136.43618973 10.04451945 C124.1617651 10.02713932 111.8874158 9.9956149 99.61303578 9.95881435 C87.00768937 9.9213382 74.40238229 9.89917561 61.79698247 9.89107156 C54.02589715 9.88559758 46.25502483 9.86834195 38.48400512 9.83575967 C32.51369269 9.81201057 26.54356144 9.80962246 20.57319641 9.81499481 C18.13239421 9.81389815 15.69158363 9.80599221 13.2508297 9.79060364 C-11.98985928 9.54309727 -11.98985928 9.54309727 -32.02957153 23.62680054 Z M248.65792847 23.51742554 C242.9946384 30.2186094 241.19989445 36.66116367 239.97042847 45.26742554 C264.39042847 45.26742554 288.81042847 45.26742554 313.97042847 45.26742554 C313.02514255 37.62736276 313.02514255 37.62736276 310.15792847 31.07992554 C309.65648315 30.09637085 309.15503784 29.11281616 308.63839722 28.09945679 C303.21272153 18.88724397 294.78690144 13.59124183 284.65792847 10.57992554 C270.13596439 8.89132506 258.79983471 12.9068545 248.65792847 23.51742554 Z M162.97042847 184.26742554 C162.97042847 225.18742554 162.97042847 266.10742554 162.97042847 308.26742554 C171.22042847 308.26742554 179.47042847 308.26742554 187.97042847 308.26742554 C187.97042847 267.34742554 187.97042847 226.42742554 187.97042847 184.26742554 C179.72042847 184.26742554 171.47042847 184.26742554 162.97042847 184.26742554 Z M108.97042847 216.26742554 C108.97042847 246.62742554 108.97042847 276.98742554 108.97042847 308.26742554 C117.22042847 308.26742554 125.47042847 308.26742554 133.97042847 308.26742554 C133.97042847 277.90742554 133.97042847 247.54742554 133.97042847 216.26742554 C125.72042847 216.26742554 117.47042847 216.26742554 108.97042847 216.26742554 Z M216.97042847 239.26742554 C216.23242094 242.45600876 216.23242094 242.45600876 216.35569763 245.9919281 C216.35001438 246.65491344 216.34433112 247.31789879 216.33847564 248.0009746 C216.3255889 250.21551786 216.34834423 252.4282271 216.37106323 254.64266968 C216.36919883 256.23295983 216.36516144 257.82324869 216.3591156 259.41352844 C216.34914088 263.72766373 216.3703104 268.041142 216.39759564 272.35518193 C216.4214267 276.86965368 216.4184807 281.38411242 216.41889954 285.89863586 C216.4235274 293.47879153 216.44716878 301.058696 216.48336792 308.63876343 C216.52511634 317.40421484 216.54268368 326.16944009 216.54598767 334.93498522 C216.54958654 344.26566057 216.56845965 353.59625448 216.59310794 362.92689586 C216.59933791 365.61646161 216.60297337 368.30602117 216.60614204 370.99559212 C216.61204104 375.22028048 216.6283497 379.4448071 216.6527462 383.66942787 C216.66018899 385.22063192 216.66425831 386.77185632 216.66472626 388.32307816 C216.66598334 390.43885463 216.67952323 392.55420422 216.6962738 394.66990662 C216.70092431 395.85436906 216.70557482 397.0388315 216.71036625 398.25918674 C216.96875831 401.24810617 217.16813368 402.88453848 218.97042847 405.26742554 C222.28304369 407.02611244 225.07191282 407.51875456 228.79000854 407.52812195 C230.20305771 407.53874916 230.20305771 407.53874916 231.64465332 407.54959106 C232.66610443 407.54711365 233.68755554 407.54463623 234.73995972 407.54208374 C236.36760757 407.54975014 236.36760757 407.54975014 238.02813721 407.55757141 C241.6131238 407.57146585 245.19791816 407.57051092 248.78292847 407.56820679 C251.27487255 407.57209337 253.76681598 407.57642797 256.25875854 407.58119202 C261.48070423 407.58865361 266.70258229 407.58836304 271.92453003 407.58309937 C277.28853545 407.57772458 282.65235225 407.58478159 288.0163269 407.60360718 C294.49304161 407.62604774 300.96959867 407.63386259 307.4463501 407.62993431 C309.91512602 407.63044813 312.38390561 407.63569714 314.85266113 407.64574623 C318.30225665 407.65806595 321.75131054 407.65134565 325.20089722 407.63973999 C326.22234833 407.64738373 327.24379944 407.65502747 328.29620361 407.66290283 C335.13446814 407.63693214 335.13446814 407.63693214 340.97042847 404.26742554 C342.3931049 401.42207267 342.10957904 399.01032321 342.12432861 395.82775879 C342.12871087 395.15916962 342.13309312 394.49058044 342.13760817 393.80173099 C342.15101292 391.55087247 342.15717871 389.30005311 342.16329956 387.04916382 C342.17119909 385.43961408 342.17946795 383.83006611 342.18807983 382.22052002 C342.21431301 376.9262766 342.22960683 371.63202521 342.24386597 366.33773804 C342.24922475 364.51701731 342.25460225 362.69629664 342.25999832 360.87557602 C342.28162723 353.30425006 342.3003656 345.73292626 342.31162071 338.16157722 C342.32787132 327.30029757 342.36107575 316.43937503 342.41802156 305.57823002 C342.45667428 297.94676773 342.47624774 290.31540114 342.48154128 282.68384349 C342.48520062 278.12284904 342.49728359 273.56223535 342.52964401 269.00134659 C342.55964348 264.71175635 342.56606585 260.42277888 342.55426025 256.13310623 C342.55403885 254.55768046 342.56239936 252.98222692 342.57991409 251.4068985 C342.6025127 249.25754213 342.59435802 247.11042548 342.57843018 244.96105957 C342.58174032 243.75795198 342.58505047 242.5548444 342.58846092 241.31527901 C342.21613117 238.11270104 342.21613117 238.11270104 339.74077034 235.88123989 C336.83144582 234.18646362 335.35804511 233.76389999 332.03695679 233.75276184 C331.06968155 233.74003738 330.10240631 233.72731293 329.1058197 233.71420288 C327.53156471 233.7239917 327.53156471 233.7239917 325.92550659 233.73397827 C324.81114731 233.7253627 323.69678802 233.71674713 322.54866028 233.70787048 C318.86609658 233.68517251 315.18429142 233.69195655 311.50167847 233.70101929 C308.94247206 233.69578568 306.38326758 233.68951017 303.82406616 233.68223572 C298.46080443 233.67182453 293.09781812 233.67607471 287.73458862 233.69100952 C281.53987735 233.70793692 275.34587043 233.69208585 269.15123606 233.65978664 C263.18446094 233.62985734 257.21790471 233.62790848 251.25105286 233.63728523 C248.71528711 233.63810616 246.17950683 233.63121592 243.64378357 233.61651421 C240.10044809 233.5991196 236.55862461 233.61357065 233.01535034 233.63632202 C231.96584702 233.62462982 230.91634369 233.61293762 229.83503723 233.60089111 C228.38412437 233.61987206 228.38412437 233.61987206 226.90390015 233.63923645 C226.06695366 233.63982276 225.23000717 233.64040907 224.36769867 233.64101315 C220.74039691 234.5888357 219.23951899 236.3360069 216.97042847 239.26742554 Z M1.97042847 241.26742554 C1.97042847 263.37742554 1.97042847 285.48742554 1.97042847 308.26742554 C9.89042847 308.26742554 17.81042847 308.26742554 25.97042847 308.26742554 C25.97042847 286.15742554 25.97042847 264.04742554 25.97042847 241.26742554 C18.05042847 241.26742554 10.13042847 241.26742554 1.97042847 241.26742554 Z M55.97042847 269.26742554 C55.97042847 282.13742554 55.97042847 295.00742554 55.97042847 308.26742554 C63.89042847 308.26742554 71.81042847 308.26742554 79.97042847 308.26742554 C79.97042847 295.39742554 79.97042847 282.52742554 79.97042847 269.26742554 C72.05042847 269.26742554 64.13042847 269.26742554 55.97042847 269.26742554 Z M-15.02957153 319.26742554 C-15.02957153 320.25742554 -15.02957153 321.24742554 -15.02957153 322.26742554 C57.24042847 322.26742554 129.51042847 322.26742554 203.97042847 322.26742554 C203.97042847 321.27742554 203.97042847 320.28742554 203.97042847 319.26742554 C202.14894131 317.44593838 199.62195976 318.14207724 197.19727856 318.13368213 C196.36111081 318.13591285 195.52494306 318.13814358 194.66343689 318.14044189 C193.34120099 318.13810191 193.34120099 318.13810191 191.99225324 318.13571465 C189.01499101 318.13170068 186.03777905 318.13489583 183.06051636 318.13803101 C180.93556183 318.13667713 178.81060753 318.13489728 176.68565369 318.13272095 C170.89650122 318.1281447 165.10736649 318.12993703 159.3182137 318.13310003 C153.27328393 318.13562298 147.22835573 318.13328625 141.1834259 318.13171387 C131.0288465 318.12989184 120.87427435 318.1322992 110.71969604 318.13705444 C98.96417854 318.14249566 87.20867838 318.14073555 75.4531613 318.13522804 C65.37845716 318.13069611 55.30375826 318.1300468 45.22905344 318.13266671 C39.20391362 318.13422923 33.17878196 318.13442395 27.15364265 318.13113022 C21.48944089 318.1282504 15.82526157 318.13022926 10.16106224 318.13602448 C8.07686526 318.13735154 5.9926664 318.13695886 3.90847015 318.13476181 C1.07375546 318.13204818 -1.76088632 318.13543412 -4.59559631 318.14044189 C-5.42953334 318.13821117 -6.26347037 318.13598045 -7.12267822 318.13368213 C-11.20776558 318.04672747 -11.20776558 318.04672747 -15.02957153 319.26742554 Z M-76.02957153 364.26742554 C-76.02957153 379.28035997 -74.46138512 387.51131143 -64.40457153 397.95492554 C-56.65148826 405.13370634 -47.97749599 407.42538548 -37.65206909 407.38768005 C-36.7992725 407.38853448 -35.94647591 407.3893889 -35.067837 407.39026922 C-32.20577673 407.3919184 -29.34377486 407.3864118 -26.48171997 407.38095093 C-24.43189495 407.38066891 -22.38206983 407.38082708 -20.33224487 407.38139343 C-14.76240262 407.38168083 -9.19258182 407.37579331 -3.62274456 407.36881948 C2.19621485 407.36257645 8.01517472 407.36198138 13.83413696 407.36079407 C24.85545753 407.35768356 35.8767682 407.34947393 46.8980844 407.33944458 C59.44449094 407.32827475 71.99089795 407.32277079 84.53730822 407.31774914 C110.34835379 407.3072911 136.15939057 407.28969707 161.97042847 407.26742554 C161.55810471 406.720289 161.14578094 406.17315247 160.72096252 405.60943604 C160.18026627 404.89055206 159.63957001 404.17166809 159.08248901 403.43099976 C158.54641525 402.71886322 158.01034149 402.00672668 157.45802307 401.27301025 C148.4232728 389.0923012 147.01136572 379.88148429 145.97042847 364.26742554 C72.71042847 364.26742554 -0.54957153 364.26742554 -76.02957153 364.26742554 Z " fill="#000000" transform="translate(120.02957153320313,46.732574462890625)"/>
<path d="M0 0 C2.4294516 3.6441774 2.16179575 5.71241272 2 10 C2.70125 10.0825 3.4025 10.165 4.125 10.25 C11.15209901 12.08315626 15.81098747 17.3409646 20 23 C22.45894155 27.9178831 22.93245818 33.58603366 22 39 C19.8125 41.25 19.8125 41.25 17 42 C13.14695198 41.10394232 12.23230734 40.34846101 10 37 C9.731875 35.72125 9.46375 34.4425 9.1875 33.125 C8.19753139 28.88450452 6.42146217 26.76975509 3 24 C-0.82879131 21.68528558 -3.48501261 21.85203712 -7.8125 22.45703125 C-10.9834321 23.2441019 -12.77774139 24.64305905 -15 27 C-17.52773313 31.26052545 -17.67266897 35.15678344 -17 40 C-14.60205409 44.9803492 -12.1759166 47.15145836 -7 49 C-5.06607578 49.31450408 -3.1279676 49.60377835 -1.1875 49.875 C6.70229584 51.08731064 12.45256547 53.63369807 17.4375 60 C22.55990831 67.23850291 22.90850683 74.32186709 22 83 C19.44805336 91.53307157 14.26017062 96.58858267 6.6875 100.875 C4 102 4 102 2 102 C2.04125 103.093125 2.0825 104.18625 2.125 105.3125 C2 109 2 109 0 112 C-3.13007923 113.1843543 -4.62394724 113.12535092 -7.8125 112.0625 C-10 110 -10 110 -10.3125 108.015625 C-10.3125 106.00771286 -10.16403285 104.00120073 -10 102 C-11.09828125 101.83177734 -11.09828125 101.83177734 -12.21875 101.66015625 C-18.18712659 100.24350506 -23.41784225 96.37771828 -26.9375 91.375 C-29.71605816 86.31509935 -31.09094147 80.77064963 -31 75 C-28.9375 71.6875 -28.9375 71.6875 -26 70 C-23.375 69.875 -23.375 69.875 -21 71 C-18.61356913 73.93714569 -17.68304944 76.99452218 -16.625 80.5625 C-15.26926003 84.74096012 -14.00811752 86.86233732 -10 89 C-5.80217798 90.2402656 -2.8899074 90.32515847 1.25 88.8125 C5.07797019 86.28951964 7.53187732 84.40436803 9 80 C9.38438818 75.31046415 9.45895659 72.93556536 7.375 68.6875 C3.20225577 63.96571047 -0.74607512 62.97291199 -6.8125 62.125 C-14.70229584 60.91268936 -20.45256547 58.36630193 -25.4375 52 C-30.12284469 45.04964061 -31.88136677 37.84234131 -30.4375 29.5 C-28.40752959 21.8975618 -24.48270945 16.58568865 -17.8125 12.4375 C-14.83000628 10.74696208 -13.4591387 10 -10 10 C-10.0825 8.741875 -10.165 7.48375 -10.25 6.1875 C-10.23621386 2.29980991 -10.23621386 2.29980991 -8.375 -0.0625 C-5.16733041 -1.32868536 -3.2708979 -0.99549067 0 0 Z " fill="#000000" transform="translate(128,94)"/>
<path d="M0 0 C0.901241 -0.00700928 1.80248199 -0.01401855 2.73103333 -0.02124023 C5.70967432 -0.03884332 8.68736499 -0.02718919 11.66601562 -0.01367188 C13.73580101 -0.01636612 15.80558516 -0.02024798 17.87536621 -0.02526855 C22.2130946 -0.03116674 26.5504935 -0.02259016 30.88818359 -0.00390625 C36.45035782 0.01888329 42.01176005 0.00576195 47.57390594 -0.01819611 C51.84785791 -0.0326453 56.12162664 -0.02805209 60.39558411 -0.01768494 C62.44651887 -0.01501523 64.49747024 -0.01829596 66.54838562 -0.02760315 C69.41421624 -0.03775412 72.27879403 -0.02228788 75.14453125 0 C76.41796135 -0.01214539 76.41796135 -0.01214539 77.71711731 -0.02453613 C81.50232198 0.03004399 83.45670066 0.07754685 86.59889221 2.32371521 C88.77325577 5.56135717 88.62588733 8.69243781 88.56835938 12.45898438 C88.56981461 13.22307114 88.57126984 13.9871579 88.57276917 14.7743988 C88.5711127 16.38568953 88.55957946 17.99699648 88.53881836 19.6081543 C88.50982074 22.07538912 88.51822134 24.54047997 88.53125 27.0078125 C88.52501348 28.57488024 88.51662321 30.1419412 88.50585938 31.70898438 C88.50879501 32.44653458 88.51173065 33.18408478 88.51475525 33.94398499 C88.4204279 39.05732132 88.4204279 39.05732132 86.79091549 41.21147251 C83.7337634 43.53478664 79.86026051 42.9409244 76.16625977 42.92163086 C74.79998695 42.93192574 74.79998695 42.93192574 73.40611267 42.94242859 C70.38972464 42.9607572 67.37385374 42.95685038 64.35742188 42.95117188 C62.26378713 42.95573086 60.17015388 42.96103557 58.07652283 42.96705627 C53.68580043 42.97599937 49.29525981 42.9735507 44.90454102 42.96362305 C39.27398713 42.95213357 33.64406038 42.97233871 28.01358891 43.00154018 C23.68904119 43.01987465 19.3646445 43.01961518 15.04006767 43.01390266 C12.96400511 43.0137491 10.88793252 43.01982203 8.81190681 43.03219414 C5.91009157 43.04704972 3.00944437 43.03646687 0.10766602 43.01928711 C-1.18214676 43.03378906 -1.18214676 43.03378906 -2.49801636 43.04858398 C-6.31255123 43.00122512 -8.29502614 42.97027288 -11.46009827 40.70570374 C-13.58709117 37.53453098 -13.50104637 34.52107014 -13.45898438 30.83007812 C-13.46281128 30.09055908 -13.46663818 29.35104004 -13.47058105 28.58911133 C-13.47329709 27.02912023 -13.4659573 25.46908335 -13.44921875 23.90917969 C-13.4278011 21.52500626 -13.44902701 19.14384564 -13.47460938 16.75976562 C-13.47196604 15.24152983 -13.46684093 13.7232959 -13.45898438 12.20507812 C-13.4670813 11.49456299 -13.47517822 10.78404785 -13.48352051 10.05200195 C-13.42535518 6.97277044 -13.19119123 4.90840081 -11.45336914 2.33044434 C-7.7273148 -0.34406668 -4.4829783 -0.04275657 0 0 Z M-2.92773438 10.51757812 C-2.92773438 17.77757812 -2.92773438 25.03757812 -2.92773438 32.51757812 C23.80226563 32.51757812 50.53226562 32.51757812 78.07226562 32.51757812 C78.07226562 25.25757813 78.07226562 17.99757813 78.07226562 10.51757812 C51.34226562 10.51757812 24.61226563 10.51757812 -2.92773438 10.51757812 Z " fill="#000000" transform="translate(361.927734375,294.482421875)"/>
<path d="M0 0 C1.60247337 -0.01268921 1.60247337 -0.01268921 3.23731995 -0.02563477 C4.40419846 -0.01956207 5.57107697 -0.01348938 6.77331543 -0.00723267 C8.00617783 -0.01248962 9.23904022 -0.01774658 10.50926208 -0.02316284 C13.88747924 -0.0341048 17.26514524 -0.03153956 20.64333153 -0.02202559 C24.17954623 -0.01442718 27.71573749 -0.0214751 31.25195312 -0.02618408 C37.19026922 -0.03164112 43.12847336 -0.02445144 49.06677246 -0.01016235 C55.93102951 0.00616415 62.79501924 0.0008756 69.65926981 -0.01564157 C75.55407959 -0.02925798 81.44880893 -0.03117537 87.34362936 -0.02332556 C90.86377945 -0.01864986 94.38380392 -0.01802126 97.90394592 -0.02793503 C101.82795595 -0.03821438 105.75166684 -0.02396467 109.67565918 -0.00723267 C110.84253769 -0.01330536 112.0094162 -0.01937805 113.21165466 -0.02563477 C114.27997025 -0.01717529 115.34828583 -0.00871582 116.44897461 0 C117.84046345 0.00169662 117.84046345 0.00169662 119.26006317 0.00342751 C122.20617461 0.45474027 123.58906894 1.32752618 125.7244873 3.38095093 C126.1619873 5.88095093 126.1619873 5.88095093 125.7244873 8.38095093 C124.05386137 10.65366467 123.16306814 11.3112472 120.34908295 11.75847435 C119.40445442 11.75960543 118.4598259 11.7607365 117.48657227 11.76190186 C115.85875069 11.77459106 115.85875069 11.77459106 114.19804382 11.78753662 C113.00729752 11.78146393 111.81655121 11.77539124 110.58972168 11.76913452 C109.33589188 11.77439148 108.08206207 11.77964844 106.79023743 11.7850647 C103.35005064 11.79601832 99.91040398 11.79343395 96.47024727 11.78392744 C92.87216585 11.77633838 89.2741077 11.78337435 85.67602539 11.78808594 C79.63338064 11.7935457 73.59084584 11.78634614 67.54821777 11.77206421 C60.55956317 11.75573718 53.57117111 11.76102554 46.58252287 11.77754343 C40.58499003 11.79115206 34.58753629 11.79308103 28.589993 11.78522742 C25.00670346 11.78054744 21.42353737 11.77993486 17.84025574 11.78983688 C13.8464841 11.80010211 9.85300717 11.78587922 5.85925293 11.76913452 C4.07313347 11.77824356 4.07313347 11.77824356 2.25093079 11.78753662 C1.1657164 11.77907715 0.08050201 11.77061768 -1.03759766 11.76190186 C-2.45454044 11.76020524 -2.45454044 11.76020524 -3.90010834 11.75847435 C-6.71409353 11.3112472 -7.60488677 10.65366467 -9.2755127 8.38095093 C-9.7130127 5.88095093 -9.7130127 5.88095093 -9.2755127 3.38095093 C-6.26274294 0.48386243 -4.11530832 0.00501772 0 0 Z " fill="#000000" transform="translate(211.2755126953125,162.61904907226563)"/>
<path d="M0 0 C1.10211319 -0.00708481 2.20422638 -0.01416962 3.33973694 -0.02146912 C4.55435104 -0.0189917 5.76896515 -0.01651428 7.02038574 -0.01396179 C8.29518295 -0.01907272 9.56998016 -0.02418365 10.88340759 -0.02944946 C14.38540689 -0.04286694 17.88729846 -0.04341518 21.38931847 -0.04088616 C24.30949989 -0.03981845 27.22965933 -0.0446946 30.14983606 -0.04949158 C37.03655285 -0.06059597 43.9232151 -0.06101876 50.80993652 -0.05497742 C57.92297779 -0.04893368 65.03582144 -0.06125653 72.14882898 -0.08254749 C78.24907525 -0.10013799 84.34925846 -0.10616896 90.44952917 -0.10290974 C94.09596978 -0.10109287 97.7422694 -0.10377306 101.38868713 -0.11762428 C105.45224939 -0.13248192 109.51540682 -0.12325499 113.57897949 -0.11161804 C114.7935936 -0.11926178 116.0082077 -0.12690552 117.2596283 -0.13478088 C118.91279808 -0.12425941 118.91279808 -0.12425941 120.59936523 -0.11352539 C121.56096306 -0.11369313 122.52256088 -0.11386087 123.51329803 -0.1140337 C124.26780495 0.00962724 125.02231186 0.13328817 125.79968262 0.26069641 C127.79968262 3.26069641 127.79968262 3.26069641 127.54968262 6.38569641 C127.17843262 7.80882141 127.17843262 7.80882141 126.79968262 9.26069641 C124.25740093 10.53183725 122.48428182 10.38940925 119.6373291 10.39440918 C118.54363007 10.39867416 117.44993103 10.40293915 116.3230896 10.40733337 C115.11782623 10.40688019 113.91256287 10.406427 112.67077637 10.40596008 C110.77321091 10.410998 110.77321091 10.410998 108.83731079 10.4161377 C105.36219434 10.42498658 101.88710249 10.42731615 98.41197586 10.42795348 C95.51416862 10.42890176 92.61636715 10.43257903 89.71856213 10.43612558 C82.88459673 10.44427312 76.0506445 10.4467095 69.2166748 10.44599915 C62.15821035 10.44539791 55.0998222 10.45595809 48.04137707 10.47174281 C41.98784874 10.4847997 35.93434542 10.49018384 29.88080311 10.48954374 C26.26233553 10.48928825 22.64393578 10.49216734 19.02548218 10.50272179 C14.99313092 10.5141622 10.96095178 10.50966737 6.92858887 10.50361633 C5.7233255 10.50923584 4.51806213 10.51485535 3.27627563 10.52064514 C2.1825766 10.51645065 1.08887756 10.51225616 -0.03796387 10.50793457 C-0.99218735 10.50847934 -1.94641083 10.50902411 -2.92955017 10.50958538 C-5.20031738 10.26069641 -5.20031738 10.26069641 -7.20031738 8.26069641 C-7.45031738 5.26069641 -7.45031738 5.26069641 -7.20031738 2.26069641 C-4.6144024 -0.32521857 -3.5975909 0.00768033 0 0 Z " fill="#000000" transform="translate(209.2003173828125,88.73930358886719)"/>
<path d="M0 0 C1.08521439 -0.00708481 2.17042877 -0.01416962 3.28852844 -0.02146912 C5.0746479 -0.01775299 5.0746479 -0.01775299 6.89685059 -0.01396179 C8.77759529 -0.02162819 8.77759529 -0.02162819 10.69633484 -0.02944946 C14.13641092 -0.04098061 17.57624633 -0.04341711 21.016325 -0.04088616 C23.88675591 -0.03981733 26.75716452 -0.04469748 29.62759066 -0.04949158 C36.3978622 -0.06058998 43.16807825 -0.06102207 49.93835449 -0.05497742 C56.92699795 -0.04893387 63.91544026 -0.06125742 70.9040494 -0.08254749 C76.90157243 -0.10014769 82.89903135 -0.10616743 88.89657927 -0.10290974 C92.47988064 -0.10109448 96.06303849 -0.10375723 99.64631653 -0.11762428 C103.64006489 -0.13250144 107.63355579 -0.12324633 111.62731934 -0.11161804 C112.81806564 -0.11926178 114.00881195 -0.12690552 115.23564148 -0.13478088 C116.86346306 -0.12425941 116.86346306 -0.12425941 118.52416992 -0.11352539 C119.46879845 -0.11369313 120.41342697 -0.11386087 121.3866806 -0.1140337 C123.76208496 0.26069641 123.76208496 0.26069641 125.60507965 1.58877277 C126.76208496 3.26069641 126.76208496 3.26069641 126.51208496 6.38569641 C125.76208496 9.26069641 125.76208496 9.26069641 124.76208496 10.26069641 C123.07113085 10.36124246 121.37596029 10.39145986 119.68202209 10.39440918 C118.58128357 10.39867416 117.48054504 10.40293915 116.34645081 10.40733337 C115.12824142 10.40688019 113.91003204 10.406427 112.65490723 10.40596008 C110.74293045 10.410998 110.74293045 10.410998 108.79232788 10.4161377 C105.28616151 10.42499806 101.78001953 10.42731666 98.27384305 10.42795348 C95.35123273 10.42890092 92.42862814 10.43257731 89.50602001 10.43612558 C82.61310057 10.4442779 75.72019421 10.44670911 68.82727051 10.44599915 C61.70691111 10.44539816 54.58662743 10.45595234 47.4662872 10.47174281 C41.36182407 10.4848001 35.25738574 10.49018381 29.15290874 10.48954374 C25.50312737 10.48928821 21.85341323 10.49216923 18.20364571 10.50272179 C14.1352632 10.5141628 10.06705128 10.5096671 5.99865723 10.50361633 C4.1743795 10.51204559 4.1743795 10.51204559 2.31324768 10.52064514 C1.20968933 10.51645065 0.10613098 10.51225616 -1.03086853 10.50793457 C-2.47521349 10.50875172 -2.47521349 10.50875172 -3.94873714 10.50958538 C-6.23791504 10.26069641 -6.23791504 10.26069641 -8.23791504 8.26069641 C-8.55041504 5.26069641 -8.55041504 5.26069641 -8.23791504 2.26069641 C-4.91120439 0.04288931 -3.87582651 0.00842296 0 0 Z " fill="#000000" transform="translate(210.2379150390625,125.73930358886719)"/>
<path d="M0 0 C0.71495132 -0.00761353 1.42990265 -0.01522705 2.16651917 -0.02307129 C3.67518633 -0.03385226 5.183928 -0.0367335 6.69262695 -0.03222656 C8.99362377 -0.03125434 11.2912815 -0.07288529 13.59179688 -0.1171875 C15.061191 -0.12239524 16.53059665 -0.12508268 18 -0.125 C18.68348007 -0.14139526 19.36696014 -0.15779053 20.07115173 -0.17468262 C23.73744 -0.12198484 25.50433643 0.42383765 28.49780273 2.58984375 C30.98684436 6.05387997 31.20983049 7.89120817 31.23046875 12.125 C31.24013672 14.02958984 31.24013672 14.02958984 31.25 15.97265625 C31.23066406 17.29136719 31.21132813 18.61007812 31.19140625 19.96875 C31.21074219 21.28746094 31.23007812 22.60617187 31.25 23.96484375 C31.24355469 25.23457031 31.23710937 26.50429688 31.23046875 27.8125 C31.22200928 29.54790039 31.22200928 29.54790039 31.21337891 31.31835938 C30.35116536 35.51685128 29.02043944 36.96502216 25.56640625 39.46875 C22.83966241 39.9579666 20.74953528 40.15055281 18.03515625 40.09765625 C16.96485168 40.10127419 16.96485168 40.10127419 15.8729248 40.10496521 C14.37014181 40.10398935 12.86732171 40.09065765 11.36474609 40.06567383 C9.07264338 40.03134342 6.78439653 40.04502762 4.4921875 40.06445312 C3.02732744 40.05755418 1.56247728 40.04788133 0.09765625 40.03515625 C-0.58268677 40.04011612 -1.26302979 40.04507599 -1.96398926 40.05018616 C-5.40626077 39.96556087 -7.3867127 39.49753116 -10.34179688 37.68334961 C-14.87213427 32.88705053 -13.61722832 26.27391307 -13.62109375 20.03125 C-13.63333984 18.99419922 -13.64558594 17.95714844 -13.65820312 16.88867188 C-13.66013672 15.88513672 -13.66207031 14.88160156 -13.6640625 13.84765625 C-13.66817139 12.9357251 -13.67228027 12.02379395 -13.67651367 11.08422852 C-13.31764352 7.22033306 -12.43796098 4.54739994 -9.77319336 1.68554688 C-6.55271036 0.01061342 -3.54900685 0.00104278 0 0 Z M-2.43359375 10.46875 C-2.43359375 16.73875 -2.43359375 23.00875 -2.43359375 29.46875 C5.15640625 29.46875 12.74640625 29.46875 20.56640625 29.46875 C20.56640625 23.19875 20.56640625 16.92875 20.56640625 10.46875 C12.97640625 10.46875 5.38640625 10.46875 -2.43359375 10.46875 Z " fill="#000000" transform="translate(363.43359375,400.53125)"/>
<path d="M0 0 C0.76454498 -0.00807175 1.52908997 -0.01614349 2.31680298 -0.02445984 C3.93578831 -0.03829688 5.55480276 -0.04902074 7.17382812 -0.05688477 C9.64769816 -0.07410484 12.12023396 -0.11799226 14.59375 -0.16210938 C16.16665684 -0.1722359 17.73957504 -0.18075213 19.3125 -0.1875 C20.42049454 -0.21376213 20.42049454 -0.21376213 21.5508728 -0.24055481 C24.8620913 -0.22659569 26.95235488 0.0196447 29.75439453 1.83911133 C31.80542838 5.04552394 31.80616757 7.25589821 31.8203125 11.05078125 C31.8241394 11.70151611 31.82796631 12.35225098 31.83190918 13.02270508 C31.83462326 14.39438429 31.82729703 15.76611569 31.81054688 17.13769531 C31.78912369 19.2322981 31.81035887 21.32347209 31.8359375 23.41796875 C31.83329413 24.75391379 31.82816893 26.0898567 31.8203125 27.42578125 C31.81580078 28.63621094 31.81128906 29.84664063 31.80664062 31.09375 C31.2890625 34.23828125 31.2890625 34.23828125 29.75 36.63085938 C26.36048427 38.84480497 23.30249616 38.8128653 19.3828125 38.76953125 C18.62109741 38.77335815 17.85938232 38.77718506 17.07458496 38.78112793 C15.46751582 38.78384438 13.86040226 38.77650169 12.25341797 38.75976562 C9.79684663 38.73834911 7.34319939 38.75957303 4.88671875 38.78515625 C3.32291023 38.78251292 1.75910352 38.77738783 0.1953125 38.76953125 C-0.53707642 38.77762817 -1.26946533 38.7857251 -2.02404785 38.79406738 C-5.41794461 38.73182506 -7.3741847 38.48523331 -10.14257812 36.45507812 C-13.81833491 31.25958131 -12.93044844 24.99158237 -12.9609375 18.86328125 C-12.9815625 17.83460938 -13.0021875 16.8059375 -13.0234375 15.74609375 C-13.05208224 10.18901419 -12.97838446 5.98083776 -9.7109375 1.23828125 C-6.63173995 -0.30131752 -3.38130102 0.03363007 0 0 Z M-1.7109375 10.23828125 C-1.7109375 16.17828125 -1.7109375 22.11828125 -1.7109375 28.23828125 C5.8790625 28.23828125 13.4690625 28.23828125 21.2890625 28.23828125 C21.2890625 22.29828125 21.2890625 16.35828125 21.2890625 10.23828125 C13.6990625 10.23828125 6.1090625 10.23828125 -1.7109375 10.23828125 Z " fill="#000000" transform="translate(362.7109375,351.76171875)"/>
<path d="M0 0 C0.71353638 -0.00241196 1.42707275 -0.00482391 2.16223145 -0.00730896 C3.66501444 -0.0063331 5.16783454 0.0069986 6.67041016 0.03198242 C8.96251287 0.06631283 11.25075972 0.05262863 13.54296875 0.03320312 C15.00782881 0.04010207 16.47267897 0.04977492 17.9375 0.0625 C18.61784302 0.05754013 19.29818604 0.05258026 19.99914551 0.04747009 C23.32387243 0.12920565 25.46601746 0.62741745 28.39794922 2.22485352 C31.18327504 5.45841911 31.11374173 7.42535582 31.1328125 11.66015625 C31.13759613 12.33308716 31.14237976 13.00601807 31.14730835 13.69934082 C31.15070164 15.11810655 31.1415385 16.53695106 31.12060547 17.95556641 C31.09382054 20.12319798 31.12036063 22.28565381 31.15234375 24.453125 C31.14903954 25.83464681 31.14263304 27.2161654 31.1328125 28.59765625 C31.12435303 30.47614258 31.12435303 30.47614258 31.11572266 32.39257812 C30.46875 35.62890625 30.46875 35.62890625 28.39794922 38.03295898 C24.843067 39.96980388 21.89003415 40.22412745 17.9375 40.1953125 C17.22396362 40.20151108 16.51042725 40.20770966 15.77526855 40.21409607 C14.27255614 40.22117329 12.76976497 40.2180568 11.26708984 40.20532227 C8.97476356 40.19144266 6.6865139 40.22556232 4.39453125 40.26367188 C2.92968651 40.2646231 1.46483668 40.26276407 0 40.2578125 C-0.68034302 40.27107071 -1.36068604 40.28432892 -2.06164551 40.29798889 C-5.7140863 40.22692607 -7.48025887 39.66586823 -10.46044922 37.50561523 C-12.95309395 34.0428903 -13.17466987 32.20734365 -13.1953125 27.97265625 C-13.20175781 26.70292969 -13.20820313 25.43320312 -13.21484375 24.125 C-13.19550781 22.80628906 -13.17617188 21.48757813 -13.15625 20.12890625 C-13.18525391 18.15083984 -13.18525391 18.15083984 -13.21484375 16.1328125 C-13.20839844 14.86308594 -13.20195312 13.59335937 -13.1953125 12.28515625 C-13.18967285 11.12822266 -13.1840332 9.97128906 -13.17822266 8.77929688 C-11.67516528 1.46025824 -6.8058929 -0.13263008 0 0 Z M-2.53125 10.62890625 C-2.53125 16.89890625 -2.53125 23.16890625 -2.53125 29.62890625 C5.05875 29.62890625 12.64875 29.62890625 20.46875 29.62890625 C20.46875 23.35890625 20.46875 17.08890625 20.46875 10.62890625 C12.87875 10.62890625 5.28875 10.62890625 -2.53125 10.62890625 Z " fill="#000000" transform="translate(419.53125,400.37109375)"/>
<path d="M0 0 C0.76171509 -0.0038269 1.52343018 -0.00765381 2.30822754 -0.01159668 C3.91529668 -0.01431313 5.52241024 -0.00697044 7.12939453 0.00976562 C9.58596587 0.03118214 12.03961311 0.00995822 14.49609375 -0.015625 C16.05990227 -0.01298167 17.62370898 -0.00785658 19.1875 0 C20.28608337 -0.01214539 20.28608337 -0.01214539 21.40686035 -0.02453613 C24.69203309 0.03571225 26.78118732 0.327092 29.5546875 2.13867188 C31.61440642 5.34064609 31.61085319 7.54836365 31.625 11.34375 C31.6288269 11.99448486 31.63265381 12.64521973 31.63659668 13.31567383 C31.63931076 14.68735304 31.63198453 16.05908444 31.61523438 17.43066406 C31.59381119 19.52526685 31.61504637 21.61644084 31.640625 23.7109375 C31.63798163 25.04688254 31.63285643 26.38282545 31.625 27.71875 C31.62048828 28.92917969 31.61597656 30.13960938 31.61132812 31.38671875 C31.09375 34.53125 31.09375 34.53125 29.5546875 36.92382812 C26.16517177 39.13777372 23.10718366 39.10583405 19.1875 39.0625 C18.42578491 39.0663269 17.66406982 39.07015381 16.87927246 39.07409668 C15.27220332 39.07681313 13.66508976 39.06947044 12.05810547 39.05273438 C9.60153413 39.03131786 7.14788689 39.05254178 4.69140625 39.078125 C3.12759773 39.07548167 1.56379102 39.07035658 0 39.0625 C-0.73238892 39.07059692 -1.46477783 39.07869385 -2.21936035 39.08703613 C-5.50453309 39.02678775 -7.59368732 38.735408 -10.3671875 36.92382812 C-12.42690642 33.72185391 -12.42335319 31.51413635 -12.4375 27.71875 C-12.4413269 27.06801514 -12.44515381 26.41728027 -12.44909668 25.74682617 C-12.45181076 24.37514696 -12.44448453 23.00341556 -12.42773438 21.63183594 C-12.40631119 19.53723315 -12.42754637 17.44605916 -12.453125 15.3515625 C-12.45048163 14.01561746 -12.44535643 12.67967455 -12.4375 11.34375 C-12.43298828 10.13332031 -12.42847656 8.92289062 -12.42382812 7.67578125 C-11.90625 4.53125 -11.90625 4.53125 -10.3671875 2.13867188 C-6.97767177 -0.07527372 -3.91968366 -0.04333405 0 0 Z M-1.90625 10.53125 C-1.90625 16.47125 -1.90625 22.41125 -1.90625 28.53125 C5.68375 28.53125 13.27375 28.53125 21.09375 28.53125 C21.09375 22.59125 21.09375 16.65125 21.09375 10.53125 C13.50375 10.53125 5.91375 10.53125 -1.90625 10.53125 Z " fill="#000000" transform="translate(418.90625,351.46875)"/>
<path d="M0 0 C0.65871597 -0.00671722 1.31743195 -0.01343445 1.99610901 -0.02035522 C4.17855321 -0.03938844 6.36069081 -0.04326196 8.54321289 -0.04541016 C10.05774565 -0.05183422 11.57227714 -0.05856228 13.08680725 -0.06558228 C16.26362994 -0.07756821 19.44034378 -0.08126174 22.6171875 -0.08007812 C26.69084638 -0.07987481 30.76380855 -0.1071828 34.83730221 -0.14162254 C37.96598017 -0.16384437 41.09448918 -0.16791714 44.22323799 -0.16685867 C45.72517868 -0.16922154 47.22712355 -0.17808359 48.72898674 -0.19352341 C50.82893742 -0.21309062 52.92736934 -0.20738417 55.02734375 -0.1953125 C56.2226622 -0.19816254 57.41798065 -0.20101257 58.64952087 -0.20394897 C61.57836914 0.29052734 61.57836914 0.29052734 63.53468323 2.15292358 C64.57836914 4.29052734 64.57836914 4.29052734 63.82836914 6.97802734 C62.57836914 9.29052734 62.57836914 9.29052734 61.57836914 10.29052734 C59.47242486 10.39527292 57.36293148 10.42909191 55.25439453 10.43579102 C54.26413017 10.44082893 54.26413017 10.44082893 53.25386047 10.44596863 C51.06122989 10.45550429 48.86867545 10.45742305 46.67602539 10.45849609 C45.15766874 10.4617069 43.63931241 10.46507083 42.12095642 10.46858215 C38.93398318 10.47458 35.74703708 10.47642139 32.56005859 10.47583008 C28.46967314 10.47572843 24.37946117 10.48938077 20.28911686 10.50660229 C17.15192358 10.51770306 14.01477248 10.51974988 10.87756157 10.51922035 C9.36923055 10.52040337 7.86089853 10.52484309 6.35258675 10.53255272 C4.24551255 10.54231396 2.13881816 10.53949016 0.03173828 10.53344727 C-1.16881699 10.53487228 -2.36937225 10.5362973 -3.60630798 10.5377655 C-6.42163086 10.29052734 -6.42163086 10.29052734 -8.42163086 8.29052734 C-8.67163086 5.29052734 -8.67163086 5.29052734 -8.42163086 2.29052734 C-5.63130573 -0.49979779 -3.90941057 0.02495035 0 0 Z " fill="#000000" transform="translate(210.421630859375,200.70947265625)"/>
<path d="M0 0 C0.8765625 -0.020625 1.753125 -0.04125 2.65625 -0.0625 C3.49929687 -0.06765625 4.34234375 -0.0728125 5.2109375 -0.078125 C5.9848584 -0.0874707 6.7587793 -0.09681641 7.55615234 -0.10644531 C10.16636857 0.34327332 11.04084784 1.1614319 12.625 3.25 C12.9375 5.8125 12.9375 5.8125 12.625 8.25 C9.33428316 11.54071684 5.15734495 10.61876156 0.6875 10.625 C-0.69211914 10.66173828 -0.69211914 10.66173828 -2.09960938 10.69921875 C-2.98326172 10.70308594 -3.86691406 10.70695312 -4.77734375 10.7109375 C-5.99151978 10.72326416 -5.99151978 10.72326416 -7.23022461 10.73583984 C-9.375 10.25 -9.375 10.25 -11.20922852 8.38916016 C-12.375 6.25 -12.375 6.25 -11.625 3.5625 C-9.01515855 -1.26570668 -5.07633786 0.02959964 0 0 Z " fill="#000000" transform="translate(39.375,454.75)"/>
</svg>
