<?xml version="1.0" encoding="UTF-8"?>
<svg version="1.1" xmlns="http://www.w3.org/2000/svg" width="512" height="512">
<path d="M0 0 C0.60972656 0.06445312 1.21945312 0.12890625 1.84765625 0.1953125 C7.30031567 1.9687008 10.60558314 5.22018934 13.4375 10.0625 C13.76169922 10.61091553 14.08589844 11.15933105 14.41992188 11.72436523 C15.61298382 13.76341166 16.77722998 15.81711255 17.9375 17.875 C18.4221875 18.73319336 18.906875 19.59138672 19.40625 20.47558594 C22.31366601 25.63660566 25.20110787 30.80853035 28.08203125 35.984375 C31.70707991 42.48394851 35.39650828 48.9448468 39.10083008 55.39938354 C40.12062287 57.1798579 41.13626645 58.96262948 42.15039062 60.74633789 C45.18535665 66.08235694 48.2403551 71.40123664 51.39453125 76.66796875 C60.52231019 92.12945295 60.52231019 92.12945295 59.5546875 100.53125 C57.87019551 106.92805501 54.0936592 109.92677884 48.6953125 113.28515625 C30.76515082 123.62166589 30.76515082 123.62166589 22.9375 121.875 C17.6822338 120.05586939 15.11553224 117.26816222 11.9375 112.875 C11.9375 112.215 11.9375 111.555 11.9375 110.875 C4.98503233 114.1703893 -1.70199984 117.75987193 -8.3125 121.6875 C-9.02921875 122.11289063 -9.7459375 122.53828125 -10.484375 122.9765625 C-11.20753906 123.40582031 -11.93070313 123.83507812 -12.67578125 124.27734375 C-37.61960861 139.07960167 -37.61960861 139.07960167 -52.0625 141.875 C-51.505625 142.63941406 -50.94875 143.40382812 -50.375 144.19140625 C-29.81181202 173.05628667 -20.51065863 206.92569223 -26.25 242.3125 C-28.65598371 255.53438726 -33.0074126 267.87378564 -39.0625 279.875 C-39.51238281 280.79667969 -39.96226562 281.71835937 -40.42578125 282.66796875 C-44.40632754 290.43844361 -49.56965669 297.13962583 -55.0625 303.875 C-55.73410156 304.70257813 -56.40570313 305.53015625 -57.09765625 306.3828125 C-64.38306191 314.96971773 -77.6011159 328.96033723 -89.0625 330.875 C-88.5675 331.57625 -88.0725 332.2775 -87.5625 333 C-85.83042141 336.31981731 -85.66937002 338.17957817 -86.0625 341.875 C-86.93815196 344.50195588 -87.51582157 345.54065804 -89.8828125 346.98828125 C-96.45336476 349.66124785 -104.87899194 346.29703032 -111.4375 344.5625 C-112.2227002 344.36197021 -113.00790039 344.16144043 -113.81689453 343.95483398 C-121.6106486 341.78878419 -121.6106486 341.78878419 -124.0625 337.875 C-125.24688035 330.53820092 -122.39508655 325.79086352 -118.75 319.5625 C-118.25048828 318.66982422 -117.75097656 317.77714844 -117.23632812 316.85742188 C-111.87951006 307.42800306 -111.87951006 307.42800306 -107.1875 306 C-103.35005919 305.84650237 -101.99316558 306.41957749 -99.0625 308.875 C-97.25 312.0625 -97.25 312.0625 -96.0625 314.875 C-70.64769256 300.4104603 -53.86304563 275.83877788 -45.875 247.98046875 C-38.70147481 220.56242776 -43.07954016 190.90428958 -57 166.3125 C-60.56190033 160.41031448 -64.55493955 155.0807904 -69.0625 149.875 C-69.69929687 149.10542969 -70.33609375 148.33585938 -70.9921875 147.54296875 C-72.9450727 145.24107395 -74.96788058 143.04836451 -77.0625 140.875 C-77.70703125 140.1840625 -78.3515625 139.493125 -79.015625 138.78125 C-89.17635415 129.27840979 -104.75909996 126.82918386 -117.9375 123.75 C-127.18427637 121.50435431 -132.40078212 118.49113894 -137.93359375 110.7421875 C-140.08540053 107.18314376 -140.17275628 104.24678377 -140.125 100.1875 C-140.11597656 99.19363281 -140.10695313 98.19976562 -140.09765625 97.17578125 C-140.08605469 96.41652344 -140.07445312 95.65726562 -140.0625 94.875 C-143.30956656 96.7443555 -146.55613936 98.61456585 -149.80227661 100.48553467 C-150.97739382 101.16278716 -152.15258529 101.83991083 -153.32785034 102.51690674 C-160.77528726 106.80761428 -168.20537901 111.12557324 -175.61425781 115.48266602 C-215.26714031 138.75928104 -215.26714031 138.75928104 -231.47265625 135.37109375 C-237.53426375 133.60017336 -242.07972201 130.99156162 -245.50390625 125.609375 C-249.85852881 117.52044649 -250.8610981 111.14413259 -248.78125 102.1953125 C-245.49960764 91.60131489 -234.70206269 86.20748648 -225.77069092 80.90158081 C-223.25760872 79.40858324 -220.75328679 77.90115108 -218.24819946 76.39479065 C-216.98008005 75.63250671 -215.71150565 74.87097915 -214.44247437 74.11021423 C-209.07720407 70.8927295 -203.7497321 67.61683174 -198.4375 64.3125 C-196.75791779 63.2693617 -195.07822871 62.22639546 -193.3984375 61.18359375 C-192.54475586 60.65362793 -191.69107422 60.12366211 -190.81152344 59.57763672 C-184.46778695 55.64857648 -178.10803051 51.74540909 -171.74951172 47.84033203 C-166.51950079 44.62635448 -161.29657545 41.40236712 -156.09375 38.14453125 C-155.15789062 37.55994141 -154.22203125 36.97535156 -153.2578125 36.37304688 C-151.53149677 35.29347407 -149.80732826 34.21045539 -148.0859375 33.12304688 C-132.47995605 23.37574658 -117.96263174 18.92334219 -99.66691113 23.10547733 C-96.07191109 24.01802639 -92.51111863 25.03338738 -88.94921875 26.06640625 C-87.39572862 26.49711241 -85.84157823 26.92544332 -84.28681946 27.35154724 C-80.25395234 28.46195211 -76.22867018 29.5974662 -72.20507812 30.7409668 C-65.72430441 32.579635 -59.23440808 34.38526057 -52.7409153 36.17841911 C-50.48826312 36.80553666 -48.24026792 37.44757666 -45.99235535 38.09144592 C-44.6157272 38.47624858 -43.23896919 38.86058701 -41.86206055 39.24438477 C-40.66614792 39.58413834 -39.47023529 39.92389191 -38.23808289 40.27394104 C-35.07751959 40.87215717 -33.12247292 40.76262144 -30.0625 39.875 C-30.495625 39.09189453 -30.495625 39.09189453 -30.9375 38.29296875 C-34.03725412 32.14727569 -35.11642171 26.73081393 -34.0625 19.875 C-30.68741285 12.99982247 -24.66823831 9.44725418 -18.1875 5.75 C-17.30771484 5.22986328 -17.30771484 5.22986328 -16.41015625 4.69921875 C-11.37903641 1.81323572 -5.94197135 -0.78217033 0 0 Z M-10.6875 21.875 C-11.29851562 22.2565625 -11.90953125 22.638125 -12.5390625 23.03125 C-14.04936737 23.97519054 -15.55626128 24.92458458 -17.0625 25.875 C-11.45859417 36.71413364 -5.4278656 47.29899347 0.64599609 57.87939453 C5.91334144 67.05864557 11.10615373 76.27657013 16.24462891 85.52880859 C19.69171508 91.71806177 23.25325035 97.82383895 26.9375 103.875 C30.99292977 103.15898639 33.74571387 102.00851931 37.25 99.8125 C38.13300781 99.26464844 39.01601563 98.71679688 39.92578125 98.15234375 C40.58964844 97.73082031 41.25351562 97.30929688 41.9375 96.875 C36.31041813 85.17397976 30.0523636 73.92042361 23.55371094 62.68408203 C20.79578194 57.89061813 18.08880212 53.06853154 15.375 48.25 C13.76199954 45.39723539 12.14744218 42.54535857 10.53222656 39.69384766 C9.46167363 37.80153227 8.39334298 35.90795807 7.32714844 34.01318359 C5.8086098 31.31714596 4.28054114 28.62673714 2.75 25.9375 C2.29230225 25.12007324 1.83460449 24.30264648 1.36303711 23.46044922 C0.27798654 21.56497113 -0.88437621 19.71407484 -2.0625 17.875 C-5.40253617 17.875 -7.93575251 20.13457851 -10.6875 21.875 Z M-153.5859375 56.78125 C-160.00227328 60.84796902 -166.46320811 64.83887345 -172.9375 68.8125 C-174.54878784 69.80286255 -174.54878784 69.80286255 -176.19262695 70.81323242 C-180.60539031 73.5251575 -185.01944781 76.23496928 -189.43408203 78.94384766 C-196.98353131 83.5768358 -204.52820931 88.21739431 -212.0625 92.875 C-213.0412207 93.47989258 -214.01994141 94.08478516 -215.02832031 94.70800781 C-217.73108451 96.38255655 -220.42900387 98.0645821 -223.125 99.75 C-224.32177368 100.4910498 -224.32177368 100.4910498 -225.54272461 101.24707031 C-226.26210205 101.69920898 -226.98147949 102.15134766 -227.72265625 102.6171875 C-228.66057007 103.20282471 -228.66057007 103.20282471 -229.61743164 103.80029297 C-231.22731262 104.82893915 -231.22731262 104.82893915 -232.0625 106.875 C-232.7098056 112.57237343 -232.7098056 112.57237343 -230.1875 117.4375 C-224.75120591 119.93819528 -219.8902044 118.85390872 -214.34594727 116.93457031 C-206.652907 113.77038538 -199.65279398 109.89525124 -192.5625 105.5625 C-190.20440239 104.1402259 -187.84241965 102.7244571 -185.48046875 101.30859375 C-184.87780685 100.94641754 -184.27514496 100.58424133 -183.65422058 100.21109009 C-177.38356604 96.45001522 -171.05272468 92.79629763 -164.70361328 89.16958618 C-163.49875382 88.48131625 -162.29447436 87.79202986 -161.09082031 87.10165405 C-134.08511872 71.61479019 -114.79122801 74.50824239 -85.5625 82.375 C-84.48170166 82.65931885 -83.40090332 82.9436377 -82.28735352 83.23657227 C-80.76839478 83.66087524 -80.76839478 83.66087524 -79.21875 84.09375 C-78.31962891 84.34060547 -77.42050781 84.58746094 -76.49414062 84.84179688 C-73.63091227 86.05838145 -72.0654793 87.51503995 -70.0625 89.875 C-69.29005033 92.83416382 -69.66469858 94.74231378 -70.0625 97.875 C-71.625 99.875 -71.625 99.875 -74.0625 100.875 C-79.00943588 101.13481413 -83.06704335 100.54300962 -87.80859375 99.16015625 C-89.05833984 98.80373047 -90.30808594 98.44730469 -91.59570312 98.08007812 C-92.89735968 97.69998592 -94.19879083 97.31912099 -95.5 96.9375 C-107.86221592 92.45012258 -107.86221592 92.45012258 -120.5 92.6875 C-122.21293305 93.80794306 -122.21293305 93.80794306 -123.0625 95.875 C-123.42072281 99.17064984 -123.5732341 101.1190555 -121.6875 103.91015625 C-117.74147017 106.86380655 -113.51624528 107.42752471 -108.75 108.4375 C-94.39675665 111.72109009 -80.76009684 116.73469284 -66.98144531 121.84692383 C-56.89524932 125.39936372 -48.76362627 124.07461144 -39.0625 119.875 C-35.09078059 117.82122305 -31.2647251 115.55998583 -27.4375 113.25 C-26.40367187 112.63624512 -25.36984375 112.02249023 -24.3046875 111.39013672 C-22.21625397 110.14980623 -20.12995149 108.90587984 -18.04589844 107.65820312 C-13.73284337 105.0802527 -9.39726548 102.54119881 -5.0625 100 C-2.72845648 98.62620075 -0.39543954 97.25067359 1.9375 95.875 C0.64932633 91.66862349 -0.9474687 87.99957608 -3.109375 84.171875 C-3.7075 83.10839844 -4.305625 82.04492188 -4.921875 80.94921875 C-5.54578125 79.85222656 -6.1696875 78.75523438 -6.8125 77.625 C-7.4209375 76.54347656 -8.029375 75.46195313 -8.65625 74.34765625 C-10.4436886 71.18144557 -12.24758468 68.02553256 -14.0625 64.875 C-14.63033203 63.88822266 -15.19816406 62.90144531 -15.78320312 61.88476562 C-16.57887695 60.52641602 -16.57887695 60.52641602 -17.390625 59.140625 C-17.85887695 58.33915039 -18.32712891 57.53767578 -18.80957031 56.71191406 C-19.94103481 54.73285349 -19.94103481 54.73285349 -22.0625 53.875 C-23.5784375 54.8340625 -23.5784375 54.8340625 -25.125 55.8125 C-31.6473969 59.64065532 -38.18623861 57.98476561 -45.17114258 56.23852539 C-47.93886198 55.50353516 -50.69794484 54.73931134 -53.45703125 53.97265625 C-54.93647033 53.57048617 -56.41618659 53.16933448 -57.89616394 52.76914978 C-61.76887819 51.71912355 -65.63777486 50.65566673 -69.50598145 49.58917236 C-73.44646896 48.5052185 -77.39033135 47.43369655 -81.33398438 46.36132812 C-85.76535557 45.15558117 -90.19633055 43.94848642 -94.62495422 42.73268127 C-95.29737656 42.54809357 -95.96979889 42.36350586 -96.66259766 42.17332458 C-98.47467466 41.67552553 -100.28657642 41.17708868 -102.09846497 40.67860413 C-123.0517099 34.99779608 -136.51683059 45.96270938 -153.5859375 56.78125 Z " fill="#000000" transform="translate(445.0625,27.125)"/>
<path d="M0 0 C2.60316969 0.57797825 5.18253444 1.21872506 7.76464844 1.88427734 C9.08529297 2.20428711 9.08529297 2.20428711 10.43261719 2.53076172 C14.92302488 3.66521615 18.87199426 4.74981949 22.63964844 7.57177734 C24.28264807 10.8577766 24.18974664 14.02514955 23.63964844 17.57177734 C22.19362468 21.20436646 20.29943925 24.51422179 18.32714844 27.88427734 C17.82763672 28.77695313 17.328125 29.66962891 16.81347656 30.58935547 C11.4566585 40.01877428 11.4566585 40.01877428 6.76464844 41.44677734 C2.92720763 41.60027498 1.57031402 41.02719986 -1.36035156 38.57177734 C-3.17285156 35.38427734 -3.17285156 35.38427734 -4.36035156 32.57177734 C-29.90563231 47.1105744 -46.26020032 71.15282582 -54.35644531 98.99755859 C-61.56383189 126.68909649 -57.49966881 156.26626784 -43.42285156 181.13427734 C-39.86095123 187.03646286 -35.86791201 192.36598695 -31.36035156 197.57177734 C-30.72355469 198.34134766 -30.08675781 199.11091797 -29.43066406 199.90380859 C-27.47777887 202.20570339 -25.45497099 204.39841283 -23.36035156 206.57177734 C-22.71582031 207.26271484 -22.07128906 207.95365234 -21.40722656 208.66552734 C-11.24649742 218.16836755 4.33624839 220.61759349 17.51464844 223.69677734 C26.76142481 225.94242303 31.97793056 228.9556384 37.51074219 236.70458984 C39.66254897 240.26363358 39.74990472 243.19999358 39.70214844 247.25927734 C39.693125 248.25314453 39.68410156 249.24701172 39.67480469 250.27099609 C39.65740234 251.40988281 39.65740234 251.40988281 39.63964844 252.57177734 C42.88671499 250.70242184 46.1332878 248.83221149 49.37942505 246.96124268 C50.55454226 246.28399019 51.72973373 245.60686651 52.90499878 244.92987061 C60.3524357 240.63916306 67.78252744 236.3212041 75.19140625 231.96411133 C114.84428875 208.68749631 114.84428875 208.68749631 131.04980469 212.07568359 C138.18683794 214.16079348 142.73457101 217.57977541 146.51464844 223.94677734 C149.85178994 231.16105088 149.94335784 239.40552516 148.01074219 247.06396484 C143.67741231 257.05199872 132.3181875 262.45519159 123.45214844 267.69677734 C122.19889067 268.4461467 120.94621222 269.1964857 119.6940918 269.94775391 C117.80233296 271.08272697 115.91030545 272.21720823 114.01649475 273.34875488 C108.5444861 276.6188283 103.11554274 279.95555664 97.70214844 283.32177734 C96.86039062 283.84425049 96.01863281 284.36672363 95.15136719 284.9050293 C93.47726786 285.94438752 91.8034361 286.98417685 90.12988281 288.02441406 C84.17988413 291.72157991 78.2232063 295.40795742 72.26464844 299.09130859 C68.71644259 301.28468692 65.1720016 303.48397939 61.63056946 305.6882782 C59.3088594 307.13220184 56.98486831 308.57242779 54.66049194 310.01205444 C53.00366895 311.03981804 51.34956698 312.07196406 49.69555664 313.10424805 C33.23054808 323.28941167 18.64330446 328.77568472 -0.75594044 324.34130001 C-4.35094048 323.42875095 -7.91173293 322.41338996 -11.47363281 321.38037109 C-13.02712295 320.94966493 -14.58127333 320.52133402 -16.1360321 320.0952301 C-20.16889922 318.98482523 -24.19418138 317.84931114 -28.21777344 316.70581055 C-34.69854715 314.86714235 -41.18844348 313.06151677 -47.68193626 311.26835823 C-49.93458844 310.64124069 -52.18258364 309.99920068 -54.43049622 309.35533142 C-55.80712436 308.97052877 -57.18388238 308.58619034 -58.56079102 308.20239258 C-59.75670364 307.86263901 -60.95261627 307.52288544 -62.18476868 307.1728363 C-65.34533197 306.57462018 -67.30037864 306.6841559 -70.36035156 307.57177734 C-70.07160156 308.10544922 -69.78285156 308.63912109 -69.48535156 309.18896484 C-65.99225401 316.19941756 -65.03191256 322.25435059 -67.36035156 329.82177734 C-70.1607508 333.6723263 -73.39140453 335.99164324 -77.36035156 338.57177734 C-78.2975 339.18666016 -79.23464844 339.80154297 -80.20019531 340.43505859 C-87.06295403 344.7010978 -93.4940564 348.25633691 -101.77050781 347.29052734 C-109.17114115 345.4125703 -112.16927813 340.2233386 -115.92578125 333.96289062 C-117.60192702 331.01548759 -119.23653054 328.04831794 -120.86035156 325.07177734 C-125.62590357 316.44145561 -130.48131425 307.8785314 -135.48535156 299.38427734 C-141.56923542 289.03324269 -147.39104578 278.55482415 -153.05053711 267.96606445 C-153.93495201 266.34939027 -154.84887281 264.74856103 -155.78930664 263.16381836 C-159.55070358 256.78179242 -160.463905 251.98892976 -159.36035156 244.57177734 C-156.79217992 238.54215697 -151.81119358 235.79633069 -146.36035156 232.57177734 C-144.81347656 231.61464844 -144.81347656 231.61464844 -143.23535156 230.63818359 C-136.55465909 226.72273058 -131.16730968 224.03877466 -123.36035156 225.57177734 C-118.09724049 227.35924903 -115.53643603 230.18130763 -112.36035156 234.57177734 C-112.36035156 235.23177734 -112.36035156 235.89177734 -112.36035156 236.57177734 C-105.40788389 233.27638804 -98.72085173 229.68690541 -92.11035156 225.75927734 C-91.39363281 225.33388672 -90.67691406 224.90849609 -89.93847656 224.47021484 C-89.2153125 224.04095703 -88.49214844 223.61169922 -87.74707031 223.16943359 C-62.80324295 208.36717568 -62.80324295 208.36717568 -48.36035156 205.57177734 C-48.91722656 204.80736328 -49.47410156 204.04294922 -50.04785156 203.25537109 C-70.6112886 174.39014106 -79.91161837 140.52140706 -74.17285156 105.13427734 C-69.8789857 81.51408058 -59.83231209 60.86264579 -44.36035156 42.57177734 C-43.53470703 41.54503906 -43.53470703 41.54503906 -42.69238281 40.49755859 C-35.67187443 32.00958052 -22.53499201 18.43853862 -11.36035156 16.57177734 C-12.10285156 15.51990234 -12.10285156 15.51990234 -12.86035156 14.44677734 C-14.59243016 11.12696004 -14.75348154 9.26719918 -14.36035156 5.57177734 C-11.87433298 -1.3125818 -6.4649801 -1.17289771 0 0 Z M-72.98535156 234.19677734 C-74.01917969 234.81053223 -75.05300781 235.42428711 -76.11816406 236.05664062 C-78.20659759 237.29697112 -80.29290007 238.54089751 -82.37695312 239.78857422 C-86.69000819 242.36652464 -91.02558608 244.90557854 -95.36035156 247.44677734 C-97.69439508 248.82057659 -100.02741202 250.19610375 -102.36035156 251.57177734 C-101.07217789 255.77815385 -99.47538286 259.44720126 -97.31347656 263.27490234 C-96.71535156 264.33837891 -96.11722656 265.40185547 -95.50097656 266.49755859 C-94.87707031 267.59455078 -94.25316406 268.69154297 -93.61035156 269.82177734 C-93.00191406 270.90330078 -92.39347656 271.98482422 -91.76660156 273.09912109 C-89.97916296 276.26533178 -88.17526688 279.42124478 -86.36035156 282.57177734 C-85.79251953 283.55855469 -85.2246875 284.54533203 -84.63964844 285.56201172 C-84.10919922 286.46757812 -83.57875 287.37314453 -83.03222656 288.30615234 C-82.56397461 289.10762695 -82.09572266 289.90910156 -81.61328125 290.73486328 C-80.48181676 292.71392385 -80.48181676 292.71392385 -78.36035156 293.57177734 C-77.34972656 292.93240234 -76.33910156 292.29302734 -75.29785156 291.63427734 C-69.32521307 288.13583648 -63.47956143 289.17244728 -57.01102829 290.79120636 C-54.21836939 291.52990272 -51.43621562 292.30203941 -48.65721893 293.09049988 C-46.36247985 293.74070617 -44.06389777 294.37525594 -41.76373291 295.00598145 C-35.2302357 296.80067928 -28.70491228 298.62436712 -22.18115234 300.45410156 C-18.17396406 301.57686147 -14.16248998 302.6831239 -10.14823151 303.78031921 C-8.63324213 304.19808848 -7.1199748 304.62216264 -5.60866547 305.05305481 C11.33808898 309.94345177 11.33808898 309.94345177 27.95214844 306.00927734 C28.7827478 305.55887085 28.7827478 305.55887085 29.63012695 305.09936523 C37.73003442 300.58917731 45.52718086 295.49781486 53.35449219 290.53662109 C59.24012707 286.80950543 65.17880485 283.17702282 71.13964844 279.57177734 C80.01394922 274.19495491 88.82683995 268.72663442 97.61083984 263.20361328 C102.77793076 259.96135068 107.96497752 256.75967818 113.19433594 253.61865234 C114.25394531 252.98121094 115.31355469 252.34376953 116.40527344 251.68701172 C118.43568723 250.46901852 120.46941167 249.25652261 122.50683594 248.05029297 C123.41433594 247.50566406 124.32183594 246.96103516 125.25683594 246.39990234 C126.05718262 245.92456055 126.8575293 245.44921875 127.68212891 244.95947266 C129.90805242 243.55699579 129.90805242 243.55699579 131.63964844 240.57177734 C132.33473412 234.8674426 132.33473412 234.8674426 129.76464844 230.00927734 C124.32997702 227.50932849 119.47062625 228.59244097 113.92749023 230.51000977 C106.19129586 233.69111799 99.14712099 237.59401535 92.01464844 241.94677734 C90.25293145 243.00810994 88.48924376 244.06611325 86.72538757 245.12388611 C85.51745656 245.84835933 84.31002995 246.57367419 83.10310364 247.29981995 C76.63420067 251.18858346 70.11231553 254.98321418 63.57714844 258.75927734 C62.52640137 259.37013184 61.4756543 259.98098633 60.39306641 260.61035156 C36.06702278 274.65558292 18.44142949 273.74163371 -8.05175781 266.85302734 C-10.32263501 266.24343607 -12.59219309 265.62890779 -14.86035156 265.00927734 C-15.9411499 264.71657959 -17.02194824 264.42388184 -18.13549805 264.12231445 C-19.14813721 263.83622314 -20.16077637 263.55013184 -21.20410156 263.25537109 C-22.5527832 262.87723267 -22.5527832 262.87723267 -23.92871094 262.49145508 C-26.51387459 261.51371296 -28.30342657 260.41062368 -30.36035156 258.57177734 C-31.11262795 255.51842024 -30.91746484 252.6560024 -30.36035156 249.57177734 C-28.79785156 247.50927734 -28.79785156 247.50927734 -26.36035156 246.57177734 C-21.41294378 246.31792033 -17.3566025 246.90353607 -12.61425781 248.28662109 C-11.36451172 248.64304687 -10.11476563 248.99947266 -8.82714844 249.36669922 C-7.52549188 249.74679143 -6.22406073 250.12765636 -4.92285156 250.50927734 C7.43936436 254.99665476 7.43936436 254.99665476 20.07714844 254.75927734 C21.79008149 253.63883429 21.79008149 253.63883429 22.63964844 251.57177734 C22.99787125 248.2761275 23.15038254 246.32772185 21.26464844 243.53662109 C17.31861861 240.58297079 13.09339372 240.01925263 8.32714844 239.00927734 C-6.02609491 235.72568725 -19.66275472 230.71208451 -33.44140625 225.59985352 C-48.34466106 220.35080651 -60.16204103 226.45705343 -72.98535156 234.19677734 Z M-136.54785156 247.07177734 C-138.17787109 248.04630859 -138.17787109 248.04630859 -139.84082031 249.04052734 C-140.67226562 249.54583984 -141.50371094 250.05115234 -142.36035156 250.57177734 C-136.73326969 262.27279758 -130.47521516 273.52635374 -123.9765625 284.76269531 C-121.21863768 289.55615196 -118.51103827 294.37790604 -115.79785156 299.19677734 C-110.0628832 309.36715609 -104.23539524 319.48177247 -98.36035156 329.57177734 C-94.66159065 328.19890393 -91.40890396 326.50822281 -88.04785156 324.44677734 C-87.16484375 323.90794922 -86.28183594 323.36912109 -85.37207031 322.81396484 C-84.70820312 322.40404297 -84.04433594 321.99412109 -83.36035156 321.57177734 C-90.06997972 308.74037364 -97.1926598 296.15165534 -104.36035156 283.57177734 C-104.69176147 282.98992676 -105.02317139 282.40807617 -105.36462402 281.80859375 C-107.81930135 277.49921336 -110.27648296 273.19126751 -112.73535156 268.88427734 C-113.38890625 267.73934814 -114.04246094 266.59441895 -114.71582031 265.41479492 C-115.97458421 263.2130797 -117.23715758 261.01353717 -118.50390625 258.81640625 C-119.78384412 256.5793765 -121.04378403 254.3308261 -122.28710938 252.07324219 C-122.90166992 250.97318848 -123.51623047 249.87313477 -124.14941406 248.73974609 C-124.69549316 247.74612061 -125.24157227 246.75249512 -125.80419922 245.72875977 C-126.57449463 244.66105347 -126.57449463 244.66105347 -127.36035156 243.57177734 C-131.30010111 243.57177734 -133.18971249 245.0496721 -136.54785156 247.07177734 Z " fill="#000000" transform="translate(167.3603515625,137.42822265625)"/>
<path d="M0 0 C7.35897437 6.68699675 10.44370397 15.76948449 11.3125 25.5 C11.20230236 33.78056545 8.16401162 42.54498548 3 49 C4.81075018 50.16938067 6.62364743 51.33543733 8.4375 52.5 C9.95150391 53.47453125 9.95150391 53.47453125 11.49609375 54.46875 C13.65301818 56.08695319 13.65301818 56.08695319 15 56 C14.90460938 55.40574219 14.80921875 54.81148437 14.7109375 54.19921875 C13.31100061 43.73224873 14.88054192 34.72948632 21 26 C23.5 23.1875 23.5 23.1875 26 21 C27.11375 19.9790625 27.11375 19.9790625 28.25 18.9375 C36.75355455 12.94635929 45.37521593 11.11605521 55.625 12.6875 C64.61563631 14.59959308 72.22105182 18.82240664 77.69921875 26.328125 C83.35793704 35.26150109 85.54013691 44.05866904 83.5 54.578125 C81.93661019 60.36977361 79.45264964 65.11443252 76 70 C76.85722656 70.56847656 77.71445312 71.13695312 78.59765625 71.72265625 C93.29960596 81.59132387 104.77815415 94.04224979 108.67578125 111.95703125 C110.17113624 121.37956932 110.17113624 121.37956932 107.1219635 125.598526 C102.63930915 129.04666941 99.00115291 128.68153272 93.48999023 128.59936523 C92.43254608 128.60330795 91.37510193 128.60725067 90.28561401 128.61131287 C86.79279098 128.61802183 83.30127676 128.58886237 79.80859375 128.55859375 C77.38151808 128.5543436 74.95443835 128.55201507 72.52735901 128.55152893 C67.44228683 128.5453629 62.35765502 128.52265789 57.27270508 128.48706055 C50.75004151 128.44176427 44.22777668 128.42703336 37.70497036 128.42332363 C32.6941585 128.41889789 27.68343057 128.40359938 22.67265511 128.3844471 C20.26726027 128.37555957 17.86185647 128.36883216 15.45644951 128.36428642 C12.09768448 128.35525707 8.73928223 128.33287762 5.38061523 128.30639648 C4.38362106 128.30573181 3.38662689 128.30506714 2.35942078 128.30438232 C0.9862973 128.28941963 0.9862973 128.28941963 -0.41456604 128.27415466 C-1.60499937 128.2671789 -1.60499937 128.2671789 -2.81948185 128.26006222 C-5.28379283 127.96615309 -6.88879773 127.28855439 -9 126 C-11.28297054 122.79681673 -11.12331361 120.32255792 -10.6875 116.5 C-10.58824219 115.5615625 -10.48898437 114.623125 -10.38671875 113.65625 C-10 111 -10 111 -9 107 C-18.9 107 -28.8 107 -39 107 C-38.01 111.455 -38.01 111.455 -37 116 C-36.70361101 119.92715408 -36.66812069 122.73536897 -39 126 C-41.94300947 127.7942563 -44.16246811 128.2540966 -47.58543396 128.27415466 C-48.50084961 128.28412979 -49.41626526 128.29410492 -50.35942078 128.30438232 C-51.35641495 128.305047 -52.35340912 128.30571167 -53.38061523 128.30639648 C-54.43630707 128.31472 -55.4919989 128.32304352 -56.5796814 128.33161926 C-60.07268958 128.35573356 -63.56551114 128.36449253 -67.05859375 128.37109375 C-69.48470619 128.38005783 -71.91081805 128.38917963 -74.33692932 128.39845276 C-79.42360784 128.4149484 -84.51022047 128.42264414 -89.59692383 128.42553711 C-96.11857539 128.4309264 -102.63960917 128.46862748 -109.16108608 128.51428127 C-114.17192353 128.54400261 -119.18261119 128.55125958 -124.19352913 128.55226326 C-126.59813331 128.55647406 -129.0027376 128.56894255 -131.40725517 128.58978081 C-134.76863146 128.61659624 -138.12856209 128.61189844 -141.48999023 128.59936523 C-142.98244514 128.62161667 -142.98244514 128.62161667 -144.50505066 128.64431763 C-149.20532266 128.59433941 -151.3003858 128.54138065 -155.11756897 125.58753967 C-157.56640117 122.22144 -157.66508724 120.66912211 -157.41796875 116.6484375 C-154.71937796 99.54895564 -146.00961118 85.67960265 -132.125 75.5 C-129.43799347 73.63210942 -126.72285252 71.81523501 -124 70 C-124.40992188 69.3709375 -124.81984375 68.741875 -125.2421875 68.09375 C-131.10397992 58.78219457 -133.55135962 50.48684968 -131.53515625 39.45703125 C-128.81423905 29.07246561 -123.0528041 21.6947554 -114 16 C-104.945868 11.19936861 -94.68178171 11.16076783 -85 14 C-76.3580538 17.46796546 -68.56286436 24.05445512 -64.74609375 32.671875 C-62.14910594 40.77556472 -61.58480538 48.65035174 -63 57 C-61.37327315 55.87749844 -59.74867418 54.75191267 -58.125 53.625 C-57.22007812 52.99851563 -56.31515625 52.37203125 -55.3828125 51.7265625 C-52.96505875 50.0701905 -52.96505875 50.0701905 -51 48 C-51.763125 47.071875 -52.52625 46.14375 -53.3125 45.1875 C-57.97966539 38.63755766 -60.07474845 29.98597807 -59 22 C-57.19967442 11.93317949 -52.99589349 3.72302474 -44.92578125 -2.71875 C-30.44658432 -12.35196824 -13.32641662 -10.84529875 0 0 Z M-37.3125 14.3125 C-40.70664607 18.65047278 -42.2857961 22.44898605 -41.875 28 C-41.00270662 33.31490388 -38.39794603 36.73843895 -34.4375 40.3125 C-29.59593377 43.66435355 -24.68721723 43.47985895 -19 43 C-13.81520398 41.23912588 -11.13539268 38.4418063 -8 34 C-5.69615621 29.18287207 -5.60659425 25.07525161 -7 20 C-9.38298311 15.49880968 -12.44253243 11.43907113 -17 9 C-25.03134822 6.83618221 -31.55969153 8.06065272 -37.3125 14.3125 Z M-108.7578125 33.58984375 C-112.25512887 37.45040795 -114.9640205 40.94688254 -115.02734375 46.3203125 C-114.70338657 51.88573067 -113.847195 55.74783711 -110 60 C-105.00584722 63.62320888 -100.24314146 65.44056592 -94 65 C-88.18097404 63.31801943 -84.31628815 60.07197012 -81 55 C-78.43811583 49.54718231 -78.849829 44.94885284 -80.8359375 39.3359375 C-83.21893863 34.55394195 -86.43678691 31.9726851 -91.3984375 30.08984375 C-98.09004778 28.37061465 -103.52008241 28.85260787 -108.7578125 33.58984375 Z M37.171875 33.44921875 C33.14421597 37.6430676 31.15616476 42.17310239 31 48 C31.69110459 53.22647844 33.45136921 56.90022236 37.375 60.4375 C41.72056196 63.69667147 44.87389102 65.23740414 50.375 64.875 C56.33359622 64.01244115 60.27258793 61.90924492 64.375 57.375 C66.81831935 52.30041365 67.9204912 47.28746858 66.37109375 41.75390625 C63.94819096 36.39107957 60.48861141 32.43493828 54.9296875 30.1484375 C48.34836214 28.24512738 42.59471144 29.15034627 37.171875 33.44921875 Z M-55.4765625 73.2890625 C-57.07742167 75.08695049 -58.03202657 76.80528797 -59 79 C-58.54109375 79.37511719 -58.0821875 79.75023437 -57.609375 80.13671875 C-56.68898438 80.90435547 -56.68898438 80.90435547 -55.75 81.6875 C-54.84507812 82.43580078 -54.84507812 82.43580078 -53.921875 83.19921875 C-52 85 -52 85 -50.54077148 87.56005859 C-46.61489556 91.33013681 -42.68751939 90.8105979 -37.42578125 90.83984375 C-35.86817329 90.86480675 -35.86817329 90.86480675 -34.27909851 90.89027405 C-32.0811163 90.91557968 -29.88294219 90.9273169 -27.68481445 90.92651367 C-24.33933623 90.93741257 -21.00221216 91.02805363 -17.65820312 91.12304688 C-6.51574721 91.76085623 -6.51574721 91.76085623 3.45556641 87.77783203 C5.69860363 85.28422128 7.37283628 82.92027797 9 80 C9.66 79.34 10.32 78.68 11 78 C3.32110454 67.83065196 -7.26052072 61.96636331 -19.8125 60.1875 C-33.48869132 59.21515873 -45.38550131 64.21988092 -55.4765625 73.2890625 Z M-128 94 C-132.7366767 99.44756455 -135.70325765 104.10977294 -138 111 C-111.27 111 -84.54 111 -57 111 C-58.6757709 102.6211455 -64.15997135 95.15960639 -71 90 C-90.19916765 78.91503022 -110.92209465 78.28205036 -128 94 Z M15.76171875 96.84375 C12.36652585 100.99928543 9 105.51344274 9 111 C35.73 111 62.46 111 90 111 C85.3370094 98.56535839 78.29196777 90.40420976 66.22265625 84.68359375 C47.85694205 77.60847969 29.05230569 82.82528101 15.76171875 96.84375 Z " fill="#000000" transform="translate(280,175)"/>
<path d="M0 0 C1.9375 1.0625 1.9375 1.0625 3 3 C2.875 6.5625 2.875 6.5625 2 10 C-1 12 -1 12 -4.0625 11.75 C-7 11 -7 11 -9 9 C-9.33015665 5.89652746 -9.50531294 3.84218824 -7.875 1.125 C-5.11909116 -0.52854531 -3.14924548 -0.39365568 0 0 Z " fill="#000000" transform="translate(40,387)"/>
<path d="M0 0 C2.9375 0.75 2.9375 0.75 4.9375 2.75 C5.26765665 5.85347254 5.44281294 7.90781176 3.8125 10.625 C1.05659116 12.27854531 -0.91325452 12.14365568 -4.0625 11.75 C-6 10.6875 -6 10.6875 -7.0625 8.75 C-6.9375 5.1875 -6.9375 5.1875 -6.0625 1.75 C-3.0625 -0.25 -3.0625 -0.25 0 0 Z " fill="#000000" transform="translate(476.0625,113.25)"/>
</svg>
