<?xml version="1.0" encoding="UTF-8"?>
<svg version="1.1" xmlns="http://www.w3.org/2000/svg" width="512" height="512">
<path d="M0 0 C1.3423468 -0.00668677 1.3423468 -0.00668677 2.71181172 -0.01350862 C3.70118491 -0.01332426 4.6905581 -0.01313989 5.7099123 -0.01294994 C6.75615515 -0.01662663 7.80239799 -0.02030332 8.88034517 -0.02409142 C12.40942063 -0.03516284 15.93846669 -0.03897796 19.46755695 -0.04278088 C21.9884828 -0.04904292 24.50940772 -0.05568949 27.03033161 -0.0626936 C34.61283621 -0.0819474 42.19533565 -0.09252608 49.77785847 -0.10142139 C53.34782449 -0.10580315 56.91778902 -0.1111703 60.48775387 -0.11641026 C72.35426208 -0.13342453 84.22076936 -0.14791848 96.0872879 -0.155159 C99.16765755 -0.15706893 102.24802718 -0.15898925 105.3283968 -0.16094494 C106.09401762 -0.16142868 106.85963844 -0.16191242 107.64845989 -0.16241082 C120.04968099 -0.17071024 132.45080561 -0.19604474 144.85198458 -0.22852562 C157.58167334 -0.26159525 170.31131307 -0.27960772 183.04104501 -0.28280324 C190.18924458 -0.28496857 197.33730351 -0.29372035 204.48546124 -0.31926441 C211.21020854 -0.34323967 217.93465893 -0.3467977 224.6594553 -0.33650303 C227.12857561 -0.33600638 229.59770819 -0.34236455 232.06679058 -0.35605907 C235.43641785 -0.37370349 238.80512875 -0.36670762 242.17475605 -0.35352612 C243.15297563 -0.36449536 244.13119521 -0.37546461 245.13905782 -0.38676625 C253.69938928 -0.30586271 258.51807758 2.5311815 264.62185383 8.59222889 C265.50934818 9.46703907 266.39684254 10.34184925 267.31123066 11.24316883 C268.25678181 12.19077177 269.20186429 13.13884255 270.14651203 14.08734608 C271.13547442 15.07173857 272.12480505 16.05576124 273.11448383 17.03943348 C275.17944879 19.09550119 277.2386927 21.15709581 279.29421711 23.22259998 C281.91492085 25.8547918 284.55114493 28.47079084 287.19213867 31.08260441 C289.23682771 33.10885372 291.27202466 35.14443624 293.30466366 37.18276691 C294.27232699 38.15058249 295.24305399 39.11534583 296.21701336 40.07682514 C305.55537312 49.31226338 309.26456221 54.83656839 309.34122944 68.12755299 C309.33738887 69.55035224 309.33235033 70.97314869 309.32619953 72.39593983 C309.33144209 73.8746883 309.33772087 75.35343342 309.3449831 76.83217335 C309.35534666 79.917799 309.35088121 83.00296223 309.3362093 86.08856678 C309.31896963 90.03655305 309.34259933 93.98309089 309.3776989 97.93091583 C309.39967952 100.97909088 309.398231 104.02691903 309.38993359 107.07514858 C309.38911551 108.53077064 309.39595148 109.98641853 309.41070461 111.44196606 C309.42817083 113.47563196 309.41027645 115.50950805 309.3908968 117.54315662 C309.38993504 118.69817173 309.38897327 119.85318684 309.38798237 121.0432024 C308.56445373 125.09539378 306.95878374 126.59451877 303.75979328 129.13422108 C299.59225114 129.87842503 297.64848649 129.70136731 294.07156086 127.41864491 C289.99054483 123.0437733 291.1558681 116.5280093 291.27151203 110.95843983 C291.27858677 109.67814396 291.28566151 108.39784809 291.29295063 107.07875538 C291.31197614 103.68676796 291.3610349 100.29586334 291.41647053 96.90430164 C291.46776129 93.43877273 291.4904854 89.9730676 291.51565266 86.50726795 C291.57075918 79.71578421 291.65441682 72.92510078 291.75979328 66.13422108 C290.54396564 66.14993153 289.32813801 66.16564198 288.07546711 66.1818285 C283.55616625 66.23620908 279.03689422 66.2706008 274.51736164 66.299016 C272.56288505 66.31408408 270.60844217 66.33454232 268.65408039 66.36053944 C265.84157705 66.39700973 263.02952155 66.4139673 260.21682453 66.42718983 C258.91029675 66.45041561 258.91029675 66.45041561 257.57737446 66.4741106 C252.79221302 66.47543214 249.6534888 66.23382313 245.75979328 63.13422108 C234.96715133 50.79977313 241.75979328 29.95954135 241.75979328 16.13422108 C162.55979328 16.13422108 83.35979328 16.13422108 1.75979328 16.13422108 C1.75979328 24.38422108 1.75979328 32.63422108 1.75979328 41.13422108 C5.66402874 41.12089741 5.66402874 41.12089741 9.64713764 41.10730457 C34.14731473 41.02560407 58.64747387 40.96605568 83.14775658 40.92697239 C95.74432025 40.90634418 108.34078399 40.87821847 120.93728352 40.83246326 C131.91595175 40.79260363 142.89454761 40.76679015 153.87328619 40.7578671 C159.68686026 40.75265092 165.50022727 40.74038529 171.31373501 40.71130085 C176.78594639 40.68414576 182.25786546 40.67577638 187.73013783 40.68179035 C189.73807266 40.68069017 191.7460173 40.67273699 193.75389385 40.65739918 C196.49747529 40.63746994 199.23995601 40.64229266 201.98356342 40.65320301 C202.77638173 40.64155164 203.56920003 40.62990028 204.38604313 40.61789584 C212.33231584 40.70319027 217.21261391 44.22539135 222.82131672 49.77582264 C223.75208027 50.69067432 224.68284382 51.60552601 225.64181232 52.54810047 C226.63479603 53.5398169 227.62723498 54.53207902 228.61916828 55.52484608 C229.65544075 56.55400536 230.69200599 57.58286993 231.72884846 58.61145496 C233.89231152 60.76152447 236.04980758 62.91737808 238.20364094 65.07709217 C240.95278843 67.83214021 243.71976355 70.56847995 246.4919672 73.30030155 C248.63518445 75.4175687 250.76672043 77.54630683 252.89517689 79.6784029 C253.91023073 80.69177331 254.9292316 81.70120724 255.95235157 82.7064333 C262.41560092 89.06894458 266.89494819 93.78821621 268.14797688 102.98260975 C268.15136066 103.83057117 268.15474445 104.6785326 268.15823078 105.55218983 C268.16209797 106.49642811 268.16596516 107.44066639 268.16994953 108.41351795 C268.15254719 109.8530785 268.15254719 109.8530785 268.13479328 111.32172108 C268.14639484 112.29302967 268.15799641 113.26433826 268.16994953 114.26508045 C268.13327686 123.18265229 268.13327686 123.18265229 264.75979328 127.13422108 C261.24726182 129.47590872 259.89509973 129.63045785 255.75979328 129.13422108 C253.08401203 127.68890858 253.08401203 127.68890858 250.75979328 125.13422108 C250.14331992 122.03005215 250.28737949 119.03329267 250.44729328 115.88422108 C250.46985188 115.04375233 250.49241047 114.20328358 250.51565266 113.33734608 C250.57441614 111.26887144 250.66409443 109.20131619 250.75979328 107.13422108 C248.84517292 107.16564198 248.84517292 107.16564198 246.89187336 107.19769764 C242.14898651 107.27018539 237.40614848 107.31605294 232.66286945 107.35394764 C230.61135336 107.37404307 228.55989439 107.40132432 226.50857258 107.43597889 C223.55701303 107.48458777 220.6062118 107.5072106 217.65432453 107.52484608 C216.73955845 107.54549122 215.82479237 107.56613636 214.8823061 107.58740711 C210.7454298 107.58885956 208.38600524 107.50542314 204.76638508 105.35980701 C193.43873175 92.79588346 200.75979328 74.38547051 200.75979328 58.13422108 C121.55979328 58.13422108 42.35979328 58.13422108 -39.24020672 58.13422108 C-39.24020672 66.05422108 -39.24020672 73.97422108 -39.24020672 82.13422108 C-36.66243923 82.12755924 -34.08467175 82.12089741 -31.42879009 82.1140337 C-7.16405875 82.05275738 17.10066239 82.00809657 41.36545372 81.97878456 C53.84092545 81.96331366 66.31634041 81.94221979 78.7917757 81.90790272 C89.66496822 81.8780073 100.53811963 81.8586477 111.4113521 81.85195559 C117.16899545 81.8480436 122.92652119 81.83884505 128.68412685 81.81703091 C134.10377527 81.79666362 139.52325766 81.79038783 144.94294071 81.79489803 C146.93151788 81.79407295 148.92010062 81.78810881 150.90864468 81.77660465 C153.62579695 81.76165685 156.34232412 81.76527588 159.05949116 81.77345753 C159.84452756 81.764719 160.62956397 81.75598048 161.43838936 81.74697715 C169.27342965 81.81065038 174.42106268 84.2908506 180.02077961 89.90936756 C180.49651417 90.38130543 180.97224873 90.85324329 181.46239948 91.33948231 C183.01545566 92.88519372 184.55374425 94.44471245 186.09182453 96.00531483 C187.1748893 97.09076701 188.25869797 98.17547738 189.34321308 99.25948048 C191.60609477 101.5254794 193.86213218 103.79800363 196.11306477 106.07587147 C198.99567366 108.99253977 201.89135499 111.89578727 204.79179573 114.79471207 C207.02717246 117.03063292 209.25729699 119.27173013 211.48569012 121.51460934 C212.55180845 122.58708075 213.61913245 123.65835507 214.68768978 124.72839642 C216.17882093 126.22387176 217.66317923 127.72575305 219.14577961 129.22968006 C219.99070469 130.08222874 220.83562977 130.93477741 221.70615864 131.8131609 C225.81056876 136.45204977 226.03882904 140.13913553 225.95510578 146.18109608 C225.95086094 147.33789875 225.95086094 147.33789875 225.94653034 148.51807117 C225.93536341 150.9736144 225.91026557 153.42878868 225.88479328 155.88422108 C225.87475896 157.55218455 225.8656339 159.22015375 225.85744953 160.88812733 C225.83543553 164.97030005 225.80092995 169.05219807 225.75979328 173.13422108 C226.64529865 172.78851063 227.53080402 172.44280018 228.44314289 172.08661366 C229.60853596 171.63439442 230.77392902 171.18217518 231.97463703 170.71625233 C233.1282674 170.26741688 234.28189777 169.81858143 235.47048664 169.35614491 C253.35586114 162.71201967 273.7972801 165.06688294 290.95608234 172.71796131 C299.60701909 176.84083404 306.14291152 182.27960704 312.75979328 189.13422108 C313.49713703 189.84062733 314.23448078 190.54703358 314.99416828 191.27484608 C328.04335358 204.52634432 333.01910243 223.6924345 333.00857258 241.79535389 C332.75750183 257.62545459 327.19690879 272.48814125 317.75979328 285.13422108 C316.80520977 285.82943867 316.80520977 285.82943867 315.83134174 286.53870106 C311.51301052 290.10000043 309.60006565 293.497903 309.04169941 299.02614307 C308.6961386 305.39556557 308.80994311 311.76297796 308.90041828 318.13812733 C308.90305887 320.50506454 308.90159074 322.87200958 308.89620686 325.23894215 C308.89044005 331.45543065 308.9288215 337.67077696 308.98006916 343.88702869 C309.0577143 353.83868055 309.08152563 363.79025294 309.07997608 373.7421751 C309.08779877 377.21014614 309.1226235 380.67709738 309.16024494 384.14485645 C309.1673241 386.27875966 309.1735347 388.41266599 309.17873859 390.54657459 C309.19633732 391.504202 309.21393604 392.46182941 309.23206806 393.44847584 C309.21635489 399.45104126 308.31480583 404.17948412 304.75979328 409.13422108 C299.59055186 413.24851527 295.84195739 414.26128969 289.34182453 414.23187733 C287.46140461 414.22704334 287.46140461 414.22704334 285.54299641 414.2221117 C283.57749836 414.20954334 283.57749836 414.20954334 281.57229328 414.19672108 C280.23700847 414.19170425 278.90172187 414.18714166 277.56643391 414.1830492 C274.29750855 414.17124803 271.02867337 414.15478405 267.75979328 414.13422108 C267.77550373 414.91547352 267.79121418 415.69672596 267.8074007 416.50165272 C267.87004567 420.06660087 267.90887817 423.63143285 267.94729328 427.19672108 C267.98499836 429.04040272 267.98499836 429.04040272 268.02346516 430.92133045 C268.08990844 439.13815032 267.85041066 444.5681241 262.32229328 450.94672108 C257.75427945 454.84624508 254.84073076 455.3806697 248.80666828 455.32953358 C248.14644672 455.32670368 247.48622517 455.32387379 246.80599689 455.32095814 C244.70707432 455.30980522 242.60858586 455.28471054 240.50979328 455.25922108 C239.08271613 455.24918492 237.65563226 455.24006018 236.22854328 455.23187733 C232.73882 455.20988219 229.24934905 455.17538644 225.75979328 455.13422108 C225.78074055 456.00635242 225.80168781 456.87848377 225.82326984 457.77704334 C225.89180523 461.04049906 225.94176505 464.30318032 225.97951984 467.56708241 C225.99952574 468.97443241 226.02673991 470.38170045 226.06155109 471.78876209 C226.41938818 486.63373901 226.41938818 486.63373901 221.75979328 492.13422108 C216.20034083 497.12415541 210.80750051 496.70035945 203.58231831 496.64888477 C202.34481435 496.6558303 201.1073104 496.66277583 199.83230633 496.66993183 C196.40439738 496.68505235 192.9773568 496.68225717 189.54948699 496.6717788 C185.84999926 496.66478474 182.15060014 496.68078627 178.4511385 496.69377613 C171.20646294 496.71541812 163.96194445 496.71528874 156.7172472 496.70715059 C150.82879984 496.70085058 144.94039828 496.70198762 139.05195141 496.70842266 C138.21385095 496.70932432 137.3757505 496.71022597 136.51225306 496.71115495 C134.80965137 496.71300615 133.10704969 496.71486871 131.40444802 496.71674251 C115.43827731 496.73332173 99.47219495 496.72460081 83.50602954 496.70775693 C68.89994601 496.69306051 54.29406821 496.70768729 39.68801118 496.73652709 C24.68911037 496.76592194 9.6903045 496.77689308 -5.30862385 496.76734489 C-7.00526558 496.76632234 -8.70190732 496.76532773 -10.39854908 496.76436138 C-11.23331958 496.76388499 -12.06809008 496.7634086 -12.92815666 496.76291778 C-18.80851547 496.76075372 -24.68878439 496.77055726 -30.56912327 496.78513241 C-37.73691404 496.80265085 -44.90444256 496.80254558 -52.072223 496.77978075 C-55.7288987 496.7686338 -59.38511227 496.76548565 -63.04176807 496.78408146 C-67.00667005 496.80398528 -70.97084888 496.7851116 -74.9357481 496.76241016 C-76.09022283 496.77424589 -77.24469755 496.78608162 -78.43415636 496.79827601 C-84.17365707 496.73137548 -88.23352651 496.35288695 -92.84856659 492.7918238 C-96.6509713 488.26272444 -97.61548109 484.09808601 -97.62052345 478.2906847 C-97.62518337 477.62371673 -97.62984329 476.95674876 -97.63464442 476.26956964 C-97.64658709 474.03658926 -97.63720225 471.80421816 -97.62788677 469.5712328 C-97.63206001 467.95340511 -97.63753747 466.33558036 -97.64420658 464.71776104 C-97.65868105 460.27342561 -97.65441024 455.82927531 -97.64703977 451.38492966 C-97.64231541 446.59140174 -97.6548114 441.7979143 -97.66505718 437.0043993 C-97.68226433 427.61442682 -97.68308129 418.22452119 -97.67784428 408.83453703 C-97.67380525 401.20409847 -97.67524295 393.57367969 -97.68059254 385.94324207 C-97.68134096 384.85784574 -97.68208938 383.77244941 -97.68286048 382.65416229 C-97.68439193 380.44930187 -97.68593028 378.24444146 -97.68747545 376.03958106 C-97.70120719 355.35746406 -97.69575785 334.67538487 -97.68429024 313.99326873 C-97.67435506 295.06367651 -97.68730228 276.13418201 -97.71122443 257.20460486 C-97.73559391 237.77494254 -97.74522873 218.34532577 -97.7385717 198.91564846 C-97.73507496 188.00440727 -97.73734161 177.09324126 -97.75482273 166.1820116 C-97.76951773 156.89449483 -97.77021549 147.60710619 -97.75275182 138.319592 C-97.74421753 133.57960301 -97.7421514 128.83984317 -97.75740337 124.09986591 C-97.77118811 119.76224944 -97.7665679 115.42505978 -97.74716414 111.08746839 C-97.74338467 109.51689316 -97.74638183 107.94628424 -97.75677579 106.37573886 C-97.76989133 104.2425619 -97.75841351 102.11087 -97.74077797 99.97775745 C-97.74067063 98.79248526 -97.7405633 97.60721306 -97.74045271 96.38602352 C-96.96128477 91.32111492 -94.43636667 88.24066903 -90.74020672 84.82172108 C-86.47713675 81.94414885 -82.80607449 82.01346713 -77.72458172 82.03656483 C-76.47419109 82.03978748 -75.22380047 82.04301014 -73.93551922 82.04633045 C-71.98258953 82.05889881 -71.98258953 82.05889881 -69.99020672 82.07172108 C-68.01407391 82.07848866 -68.01407391 82.07848866 -65.99801922 82.08539295 C-62.74536931 82.09717792 -59.49281087 82.11363096 -56.24020672 82.13422108 C-56.26115398 81.2923827 -56.28210125 80.45054432 -56.30368328 79.58319569 C-56.37223634 76.43170756 -56.42218934 73.28060202 -56.45993328 70.12860584 C-56.479933 68.76975394 -56.50714248 67.41098684 -56.54196453 66.05243397 C-56.89230184 52.0234854 -56.89230184 52.0234854 -52.24020672 46.13422108 C-47.42873168 41.67480519 -44.05045595 41.00841213 -37.60348797 41.03656483 C-35.65539227 41.04139881 -35.65539227 41.04139881 -33.66794109 41.04633045 C-32.29619564 41.05468576 -30.92445085 41.06315071 -29.55270672 41.07172108 C-28.16924477 41.07673772 -26.78578109 41.08130034 -25.40231609 41.08539295 C-22.01490277 41.09719579 -18.62757639 41.11366089 -15.24020672 41.13422108 C-15.25591717 40.35820545 -15.27162762 39.58218983 -15.28781414 38.78265858 C-15.35055345 35.23325489 -15.38932119 31.68396832 -15.42770672 28.13422108 C-15.45284344 26.91347889 -15.47798016 25.6927367 -15.50387859 24.43500233 C-15.62305998 9.73596484 -15.62305998 9.73596484 -10.78757 4.58759022 C-7.14454445 1.44013548 -4.73122154 0.01090267 0 0 Z M258.75979328 29.13422108 C258.75979328 35.73422108 258.75979328 42.33422108 258.75979328 49.13422108 C265.35979328 49.13422108 271.95979328 49.13422108 278.75979328 49.13422108 C274.17775749 43.72916923 274.17775749 43.72916923 269.36526203 38.60687733 C268.80258625 38.04291248 268.23991047 37.47894764 267.66018391 36.89789295 C267.09493 36.33650623 266.52967609 35.77511951 265.94729328 35.19672108 C265.36270344 34.60826405 264.77811359 34.01980701 264.17580891 33.41351795 C261.84356329 30.49999346 261.84356329 30.49999346 258.75979328 29.13422108 Z M217.75979328 71.13422108 C217.75979328 77.73422108 217.75979328 84.33422108 217.75979328 91.13422108 C224.35979328 91.13422108 230.95979328 91.13422108 237.75979328 91.13422108 C233.17775749 85.72916923 233.17775749 85.72916923 228.36526203 80.60687733 C227.80258625 80.04291248 227.23991047 79.47894764 226.66018391 78.89789295 C226.09493 78.33650623 225.52967609 77.77511951 224.94729328 77.19672108 C224.36270344 76.60826405 223.77811359 76.01980701 223.17580891 75.41351795 C220.84356329 72.49999346 220.84356329 72.49999346 217.75979328 71.13422108 Z M-80.24020672 99.13422108 C-80.24020672 224.86422108 -80.24020672 350.59422108 -80.24020672 480.13422108 C-67.70020672 480.13422108 -55.16020672 480.13422108 -42.24020672 480.13422108 C-42.20153484 471.74049061 -42.20153484 471.74049061 -42.16208172 463.17718983 C-42.13692076 459.63612807 -42.11059385 456.09515236 -42.08005047 452.55414295 C-42.03166189 446.93133665 -41.98763787 441.30872946 -41.96921062 435.68573475 C-41.95408738 431.15325584 -41.91971974 426.6212971 -41.8718977 422.08904934 C-41.85703898 420.35830991 -41.84916314 418.62749623 -41.84832287 416.89669323 C-41.84596483 414.47554649 -41.81898208 412.05585102 -41.78610516 409.6349535 C-41.7936507 408.55709583 -41.7936507 408.55709583 -41.80134869 407.45746326 C-41.73541335 404.32757521 -41.6278707 402.56887474 -39.50589275 400.18968678 C-36.95152411 398.99973881 -35.25490055 398.75410536 -32.44333172 398.74603748 C-31.49554852 398.736581 -30.54776531 398.72712452 -29.57126141 398.71738148 C-28.04613934 398.72649052 -28.04613934 398.72649052 -26.49020672 398.73578358 C-25.43994305 398.7329134 -24.38967937 398.73004322 -23.30758953 398.72708607 C-21.08850852 398.72504586 -18.86940951 398.73057263 -16.65036297 398.7431078 C-13.25281866 398.75916148 -9.85646401 398.743257 -6.45895672 398.72406483 C-4.30270409 398.72604727 -2.1464522 398.72989095 0.00979328 398.73578358 C1.02654133 398.72971088 2.04328938 398.72363819 3.09084797 398.71738148 C4.03863117 398.72683796 4.98641438 398.73629444 5.96291828 398.74603748 C6.79468586 398.74842426 7.62645344 398.75081104 8.48342609 398.75327015 C11.47537177 399.25397341 12.72729738 399.85536149 14.75979328 402.13422108 C15.17140175 404.76888078 15.32416074 406.9967119 15.30569172 409.6349535 C15.3160294 410.39617008 15.32636707 411.15738667 15.33701801 411.94167042 C15.36651722 414.457891 15.36794663 416.97330969 15.36916828 419.48968983 C15.3841452 421.23419708 15.40087131 422.97869012 15.41927814 424.72316456 C15.46301907 429.3148001 15.48296558 433.90624436 15.4980135 438.49805164 C15.51756038 443.1835308 15.55953303 447.86880263 15.59963703 452.55414295 C15.67501235 461.74747357 15.7231869 470.94065425 15.75979328 480.13422108 C22.02979328 480.13422108 28.29979328 480.13422108 34.75979328 480.13422108 C34.7612183 478.54173038 34.76264332 476.94923969 34.76411152 475.30849171 C34.78076776 460.31413398 34.82320184 445.32010117 34.89188385 430.32589912 C34.92653324 422.61687336 34.95188928 414.9080264 34.95534992 407.19891834 C34.95838992 400.47942569 34.97888474 393.76025147 35.02031785 387.04088181 C35.04164688 383.48310831 35.05424932 379.92578749 35.04594707 376.36794949 C35.03700468 372.39560498 35.06703286 368.4240739 35.10036945 364.45184803 C35.09174381 363.27292988 35.08311817 362.09401173 35.07423115 360.87936878 C35.18591159 352.96120323 35.18591159 352.96120323 38.00083637 348.90480518 C40.85555333 347.07276625 42.21871759 346.50369516 45.56252766 346.48724842 C46.48698689 346.47148762 47.41144611 346.45572681 48.36391926 346.43948841 C49.35049519 346.44960957 50.33707111 346.45973072 51.35354328 346.47015858 C52.37782429 346.46537495 53.40210529 346.46059132 54.45742512 346.45566273 C56.61926532 346.45226594 58.78115704 346.46145279 60.94289875 346.48236561 C64.24891588 346.50913301 67.55153781 346.48260891 70.85744953 346.45062733 C72.9603216 346.45393146 75.06319155 346.46033777 77.16604328 346.47015858 C78.15261921 346.46003742 79.13919514 346.44991627 80.1556673 346.43948841 C81.54235615 346.46312962 81.54235615 346.46312962 82.95705891 346.48724842 C83.76582478 346.49122639 84.57459064 346.49520435 85.40786457 346.49930286 C89.22935512 347.5309387 90.49134357 348.86531135 92.75979328 352.13422108 C93.51077289 356.23558305 93.44965384 360.29187775 93.41921711 364.45184803 C93.42970081 365.70103519 93.44018452 366.95022236 93.45098591 368.23726368 C93.47482376 371.6546599 93.47666655 375.07073419 93.46869206 378.4881146 C93.46556473 382.0623166 93.49060787 385.63631927 93.51264668 389.21043873 C93.55008498 395.97475785 93.56223451 402.73887594 93.56527108 409.50328845 C93.56996217 417.20589393 93.60288701 424.90829805 93.63816893 432.61081469 C93.71009856 448.45194194 93.74561792 464.29293103 93.75979328 480.13422108 C100.02979328 480.13422108 106.29979328 480.13422108 112.75979328 480.13422108 C112.76565952 478.73773838 112.77152576 477.34125568 112.77756977 475.90245533 C112.834706 462.76175714 112.90741974 449.62122588 112.99550819 436.48069763 C113.0404937 429.72451492 113.07990186 422.96838524 113.10622883 416.21210194 C113.13163667 409.6956971 113.17252273 403.1794973 113.22297955 396.66323757 C113.23970438 394.17330631 113.25118353 391.68333426 113.25740719 389.19335461 C113.26698716 385.71399914 113.29497365 382.23525387 113.32742023 378.75604725 C113.32598515 377.71955036 113.32455006 376.68305347 113.32307148 375.61514759 C113.33560963 374.66863834 113.34814777 373.7221291 113.36106586 372.74693775 C113.36567483 371.92377662 113.37028379 371.10061548 113.37503242 370.25251007 C113.85159217 367.62882514 114.66408444 366.73748717 116.75979328 365.13422108 C118.99856281 364.75327015 118.99856281 364.75327015 121.64260578 364.74603748 C122.63373371 364.736581 123.62486164 364.72712452 124.64602375 364.71738148 C125.7148177 364.72345417 126.78361164 364.72952686 127.88479328 364.73578358 C128.98323566 364.7329134 130.08167805 364.73004322 131.21340656 364.72708607 C133.53681675 364.72504372 135.86024407 364.73058545 138.18362141 364.7431078 C141.7458604 364.7591583 145.3069647 364.7432641 148.86916828 364.72406483 C151.12437913 364.72604723 153.37958926 364.72989084 155.63479328 364.73578358 C156.70358723 364.72971088 157.77238117 364.72363819 158.87356281 364.71738148 C159.86469074 364.72683796 160.85581867 364.73629444 161.87698078 364.74603748 C162.74951496 364.74842426 163.62204914 364.75081104 164.52102375 364.75327015 C167.30795464 365.22749668 168.02997409 365.93043304 169.75979328 368.13422108 C170.14455414 370.25251007 170.14455414 370.25251007 170.1585207 372.74693775 C170.17105885 373.693447 170.18359699 374.63995625 170.19651508 375.61514759 C170.19507999 376.65164448 170.19364491 377.68814137 170.19216633 378.75604725 C170.2074538 380.39530422 170.2074538 380.39530422 170.22305012 382.0676775 C170.25329569 385.68756631 170.26246391 389.30719101 170.27151203 392.92718983 C170.2883501 395.43397884 170.30649915 397.94075937 170.32590961 400.44752979 C170.36864231 406.37603847 170.3981312 412.30451976 170.421233 418.23312885 C170.45092338 425.64491264 170.50112424 433.05653338 170.55080891 440.46820545 C170.63695657 453.69016241 170.70269944 466.9121067 170.75979328 480.13422108 C183.29979328 480.13422108 195.83979328 480.13422108 208.75979328 480.13422108 C208.7743758 476.58583485 208.78895832 473.03744862 208.80398273 469.38153553 C208.85428606 457.66674254 208.92072313 445.95207188 208.99550819 434.23741341 C209.04046208 427.1337765 209.07987761 420.03018968 209.10622883 412.92645741 C209.1316677 406.07287604 209.17257513 399.21952672 209.22297955 392.3660841 C209.23968367 389.7494143 209.25117579 387.13270595 209.25740719 384.51599026 C209.26700941 380.85504818 209.29502362 377.19468062 209.32742023 373.53387928 C209.32598515 372.44846851 209.32455006 371.36305775 209.32307148 370.24475574 C209.44100124 360.84149095 209.44100124 360.84149095 212.75979328 357.13422108 C216.17374571 356.02097572 218.12234997 355.95007079 221.57229328 356.94672108 C223.75979328 358.13422108 223.75979328 358.13422108 224.75979328 360.13422108 C224.88188944 362.60494616 224.94541414 365.04939316 224.96511555 367.52142811 C224.97501514 368.28249866 224.98491474 369.04356922 224.99511433 369.82770252 C225.02676006 372.34911431 225.05149885 374.87054496 225.07619953 377.39203358 C225.09676641 379.13795944 225.11776281 380.8838803 225.13917255 382.62979603 C225.19442074 387.2296185 225.24381789 391.82948611 225.29201984 396.42938709 C225.34221483 401.12140397 225.39791134 405.81335513 225.45315266 410.50531483 C225.56076784 419.71489624 225.66169708 428.92453334 225.75979328 438.13422108 C234.00979328 438.13422108 242.25979328 438.13422108 250.75979328 438.13422108 C250.7743758 435.78707996 250.78895832 433.43993885 250.80398273 431.02167225 C250.8542775 423.27426346 250.92086329 415.52705675 250.99550819 407.77984619 C251.04027168 403.08182642 251.07951446 398.38389457 251.10622883 393.68573475 C251.13220238 389.15332443 251.17256213 384.62125137 251.22297955 380.08904934 C251.23968865 378.35830658 251.25117769 376.62750543 251.25740719 374.89669323 C251.2670046 372.47575204 251.29500999 370.05568159 251.32742023 367.6349535 C251.32598515 366.91638172 251.32455006 366.19780994 251.32307148 365.45746326 C251.37803919 362.56212199 251.41888161 360.60852853 253.1383791 358.21620655 C255.38740943 356.71540671 257.06158267 356.32695041 259.75979328 356.13422108 C262.54572153 356.8469004 264.19326535 357.33450421 265.87844563 359.71332264 C267.13420216 363.16265276 267.11760555 366.55352014 267.17385578 370.18109608 C267.20290501 371.33789875 267.20290501 371.33789875 267.23254108 372.51807117 C267.29216405 374.97334313 267.33865243 377.42866241 267.38479328 379.88422108 C267.42298903 381.5522099 267.46204169 383.22017934 267.50198078 384.88812733 C267.59945967 388.97005582 267.67916307 393.051786 267.75979328 397.13422108 C275.67979328 397.13422108 283.59979328 397.13422108 291.75979328 397.13422108 C291.75979328 367.10422108 291.75979328 337.07422108 291.75979328 306.13422108 C286.47979328 307.78422108 281.19979328 309.43422108 275.75979328 311.13422108 C254.83049938 315.32007986 234.63250481 311.55827885 216.75979328 300.13422108 C200.32007908 288.90250794 191.13729069 272.24852911 186.75979328 253.13422108 C186.2154229 250.12417309 185.89309641 247.18860141 185.75979328 244.13422108 C185.71983234 243.44457264 185.67987141 242.7549242 185.63869953 242.04437733 C185.17193543 226.86081556 189.44770742 209.36657964 198.75979328 197.13422108 C199.5681966 196.41597157 200.37659992 195.69772205 201.20950031 194.95770741 C206.60051262 190.01076767 209.27856888 186.71620291 209.70983601 179.41206837 C209.75501355 175.24551885 209.59593817 171.10707207 209.38479328 166.94672108 C209.33453492 165.2144288 209.28892475 163.48199512 209.24807453 161.74945545 C209.13884242 157.54083225 208.96689965 153.33911759 208.75979328 149.13422108 C207.57949543 149.11440174 206.39919758 149.09458241 205.18313313 149.07416248 C200.78839127 148.99787452 196.39397052 148.90919323 191.99953938 148.81683826 C190.1005155 148.77864416 188.20142164 148.74377483 186.30227375 148.71234608 C183.56650565 148.66648721 180.83121537 148.60852771 178.09573078 148.54828358 C177.25174732 148.53673237 176.40776386 148.52518116 175.53820515 148.51327991 C170.98532174 148.40025269 166.90031251 148.23033408 162.75979328 146.13422108 C156.92949851 131.55848414 160.13346236 114.82832238 159.75979328 99.13422108 C80.55979328 99.13422108 1.35979328 99.13422108 -80.24020672 99.13422108 Z M176.75979328 112.13422108 C176.75979328 118.73422108 176.75979328 125.33422108 176.75979328 132.13422108 C183.35979328 132.13422108 189.95979328 132.13422108 196.75979328 132.13422108 C192.17775749 126.72916923 192.17775749 126.72916923 187.36526203 121.60687733 C186.80258625 121.04291248 186.23991047 120.47894764 185.66018391 119.89789295 C185.09493 119.33650623 184.52967609 118.77511951 183.94729328 118.19672108 C183.36270344 117.60826405 182.77811359 117.01980701 182.17580891 116.41351795 C179.84356329 113.49999346 179.84356329 113.49999346 176.75979328 112.13422108 Z M216.75979328 201.13422108 C205.68664828 214.99362821 200.51192278 229.80587152 202.22463703 247.68109608 C204.69840747 263.64323523 213.64203166 277.29589986 226.50979328 286.94672108 C240.35277769 296.12474993 256.39381104 298.25264528 272.54494953 295.48578358 C287.53156856 291.22470356 300.14437525 281.92559044 308.44729328 268.69281483 C316.29124021 253.40178734 317.87252817 238.15003283 313.00979328 221.70453358 C307.52730484 206.04517595 296.90966274 195.47848789 282.38088703 187.89203358 C260.76717616 177.59263049 232.73808059 183.15864785 216.75979328 201.13422108 Z M51.75979328 363.13422108 C51.75979328 401.74422108 51.75979328 440.35422108 51.75979328 480.13422108 C60.00979328 480.13422108 68.25979328 480.13422108 76.75979328 480.13422108 C76.75979328 441.52422108 76.75979328 402.91422108 76.75979328 363.13422108 C68.50979328 363.13422108 60.25979328 363.13422108 51.75979328 363.13422108 Z M129.75979328 381.13422108 C129.75979328 413.80422108 129.75979328 446.47422108 129.75979328 480.13422108 C137.67979328 480.13422108 145.59979328 480.13422108 153.75979328 480.13422108 C153.75979328 447.46422108 153.75979328 414.79422108 153.75979328 381.13422108 C145.83979328 381.13422108 137.91979328 381.13422108 129.75979328 381.13422108 Z M-25.24020672 415.13422108 C-25.24020672 436.58422108 -25.24020672 458.03422108 -25.24020672 480.13422108 C-17.32020672 480.13422108 -9.40020672 480.13422108 -1.24020672 480.13422108 C-1.24020672 458.68422108 -1.24020672 437.23422108 -1.24020672 415.13422108 C-9.16020672 415.13422108 -17.08020672 415.13422108 -25.24020672 415.13422108 Z " fill="#000000" transform="translate(125.24020671844482,7.865778923034668)"/>
<path d="M0 0 C2.36497439 1.86708505 3.66030715 3.32061431 5 6 C5.039992 7.99960012 5.04346799 10.00047242 5 12 C5.680625 12.0825 6.36125 12.165 7.0625 12.25 C13.31411536 13.84615711 17.78288215 17.22799822 22 22 C22.46792969 22.51433594 22.93585938 23.02867187 23.41796875 23.55859375 C26.70062077 27.54007366 27.80773809 30.79332375 27.48046875 35.9765625 C27 38 27 38 24.9375 40.5625 C21.19976004 42.39160679 19.11028784 42.73397997 15 42 C12.97640002 39.97640002 11.5620872 38.32128343 10 36 C7.50972555 32.67963407 5.86538633 30.54070072 2 29 C-3.09094333 28.33863878 -8.22029482 27.9974662 -12.625 30.9375 C-15.82576682 33.38021891 -15.82576682 33.38021891 -16.3125 37.3125 C-16.30518378 40.89159048 -16.30518378 40.89159048 -14.65234375 43.04296875 C-10.59263971 46.03842048 -6.10700392 46.83687538 -1.25 48 C8.85509673 50.45872674 19.09836248 53.21013272 25.48046875 62.05078125 C29.90239109 69.61883322 30.56832435 77.95074892 28.37109375 86.42578125 C26.04396594 91.80008987 21.88981894 95.87504948 17 99 C15.07995842 99.67673597 13.14083465 100.30140173 11.1875 100.875 C7.21431343 102.05714491 7.21431343 102.05714491 4.73828125 105.171875 C3.96320949 107.5869734 3.96320949 107.5869734 3.5625 109.9765625 C3 112 3 112 0 114 C-3.01550927 114.33505659 -5.09883544 114.56038591 -8 114 C-10.5 111.9375 -10.5 111.9375 -12 109 C-12.25 105.1875 -12.25 105.1875 -12 102 C-12.969375 101.95875 -13.93875 101.9175 -14.9375 101.875 C-22.26916483 100.80641727 -28.30739518 95.43109052 -32.78125 89.7890625 C-35.9004331 85.21026167 -37.85730842 80.63374104 -37 75 C-35.4375 72.1875 -35.4375 72.1875 -33 70 C-29.6663274 69.10705198 -27.28190061 68.58822313 -23.95703125 69.65625 C-21.28450015 71.49128133 -20.53579273 73.51166593 -19.1875 76.4375 C-17.26350657 80.08497142 -16.3026471 81.78814703 -12.875 84.1875 C-5.15485935 85.80623917 2.1178305 86.34663337 9 82 C9.66 82 10.32 82 11 82 C11.68463393 75.90480124 11.68463393 75.90480124 9.125 70.625 C3.98693809 67.95320781 -1.36800519 66.59288425 -7 65.32421875 C-17.66123319 62.89008515 -25.66665861 59.26316967 -32 50 C-35.3252215 43.33839855 -35.16588049 35.18811439 -33.1953125 28.109375 C-29.98213058 20.88525564 -24.5531139 16.08455817 -17.40625 12.8125 C-15 12 -15 12 -12 12 C-12.103125 10.948125 -12.20625 9.89625 -12.3125 8.8125 C-12 5 -12 5 -9.9375 2.0625 C-6.25937488 -0.52001338 -4.40768137 -0.72125695 0 0 Z " fill="#000000" transform="translate(112,138)"/>
<path d="M0 0 C3.00391875 2.11086182 3.85749648 3.42998593 4.75 7 C6.38427123 10.92225096 8.09627219 11.2402529 11.8359375 12.87890625 C17.40481456 15.76386603 22.06095905 21.0616871 24 27 C24.16564228 30.77376336 23.83214456 33.93485496 21.4375 37 C17.80919247 38.48853642 14.74387061 39.24795687 11 38 C8.91802898 35.86662229 7.3434414 33.67336993 5.73828125 31.1640625 C3.65131535 28.5659072 2.1949498 27.86519821 -1 27 C-3.3434523 26.85849612 -3.3434523 26.85849612 -5.625 27.1875 C-6.38039063 27.26355469 -7.13578125 27.33960938 -7.9140625 27.41796875 C-10.41343135 28.11535819 -11.43160983 28.95169234 -13 31 C-13.25069913 33.62570704 -13.25069913 33.62570704 -13 36 C-7.96230766 38.87868134 -3.12467057 40.57145895 2.5 41.9375 C11.55205518 44.19634106 17.50914057 47.40969432 23 55 C25.90048727 60.06799941 26.58551261 65.70319476 25.56640625 71.44140625 C23.740896 77.53675404 21.06063122 82.14893024 15.55859375 85.4765625 C8.79713687 89 8.79713687 89 5 89 C4.9175 89.9075 4.835 90.815 4.75 91.75 C3.87172124 95.55587463 3.24499591 96.83666939 0 99 C-4.07026042 99.81906678 -6.99455608 99.65353855 -10.5 97.375 C-12.37956836 94.39901677 -12.31424507 92.45669582 -12 89 C-12.680625 88.9175 -13.36125 88.835 -14.0625 88.75 C-21.74678213 86.78805563 -26.37713148 82.2096369 -31 76 C-33.47292439 71.69926193 -33.46249306 67.85617716 -33 63 C-31.5 60.5 -31.5 60.5 -29 59 C-26.21594376 58.4523168 -23.78333378 58.44218311 -21 59 C-18.0313693 61.0615491 -16.68672538 63.51753286 -15 66.625 C-12.96677621 70.05606515 -12.52876643 70.69094148 -9 72 C-3.11486779 72.74778083 2.00387805 72.45885366 7 69 C8.33333333 66 8.33333333 66 7 63 C2.09698209 59.72717332 -3.85581373 58.49345965 -9.5 57.125 C-16.88601619 55.25740877 -22.98393847 53.05706622 -27.65234375 46.77734375 C-31.58232078 39.90804872 -32.37858219 33.15751926 -30.3359375 25.515625 C-28.1945987 19.96676446 -25.01713249 16.1879696 -20 13 C-18.74126152 12.48990638 -17.47024848 12.00878958 -16.1875 11.5625 C-15.135625 11.046875 -14.08375 10.53125 -13 10 C-11.75938783 6.53294462 -11.75938783 6.53294462 -11 3 C-7.84280914 -0.62492284 -4.61474144 -0.57684268 0 0 Z " fill="#000000" transform="translate(388,198)"/>
<path d="M0 0 C3.03515625 1.80078125 3.03515625 1.80078125 6.0625 4.3125 C7.18471694 5.22678212 8.30711983 6.14083604 9.4296875 7.0546875 C10.0081543 7.53518555 10.58662109 8.01568359 11.18261719 8.51074219 C13.05652379 10.04631853 14.9617392 11.53176068 16.8828125 13.0078125 C17.51823975 13.49725342 18.15366699 13.98669434 18.80834961 14.4909668 C20.0399478 15.43902699 21.27249934 16.38585028 22.50610352 17.33129883 C26.41279383 20.37947494 28.77801128 22.28751561 29.4375 27.375 C28.47591818 35.34239225 18.12395567 41.14691377 12 46 C-0.83926789 55.72479201 -0.83926789 55.72479201 -7 55 C-9.875 52.9375 -9.875 52.9375 -12 50 C-12.69151325 45.69725091 -12.51557405 43.79054688 -10.125 40.125 C-8 38 -8 38 -6 37 C-7.26120918 36.99786247 -7.26120918 36.99786247 -8.54789734 36.99568176 C-16.47861857 36.97783915 -24.40878253 36.93618871 -32.33923626 36.86790943 C-36.41625486 36.83364397 -40.49289895 36.80853024 -44.57006836 36.80444336 C-48.50616084 36.8001593 -52.44140856 36.77168924 -56.37723732 36.72656822 C-57.87745045 36.71359639 -59.37776469 36.70928449 -60.87802696 36.71384621 C-62.98300315 36.71875518 -65.08551298 36.69265525 -67.19018555 36.65942383 C-68.38709518 36.65276199 -69.58400482 36.64610016 -70.81718445 36.63923645 C-74.90193571 35.8188553 -76.40080847 34.18145902 -79 31 C-79.9737385 27.9241319 -79.52759439 26.32384464 -79 23 C-76.3306433 20.20620167 -74.652491 19.10639355 -70.81718445 18.48101807 C-69.62027481 18.47213562 -68.42336517 18.46325317 -67.19018555 18.45410156 C-66.52621262 18.44376389 -65.86223969 18.43342621 -65.17814636 18.42277527 C-62.9974206 18.39342734 -60.81762617 18.39184993 -58.63671875 18.390625 C-57.11927021 18.37563778 -55.60183795 18.35890948 -54.08442688 18.34051514 C-50.10109697 18.29688953 -46.11798709 18.2768534 -42.13446045 18.26177979 C-38.06541967 18.24219123 -33.99661591 18.20022325 -29.92773438 18.16015625 C-21.95188502 18.08490617 -13.97612887 18.03458349 -6 18 C-6.804375 17.38125 -7.60875 16.7625 -8.4375 16.125 C-11.87968598 13.27050431 -11.93644385 12.65674686 -12.375 8.125 C-12.32070848 4.80718477 -12.15676121 4.19001359 -9.9375 1.5 C-6.25117764 -0.38237737 -4.11158408 -0.40420435 0 0 Z " fill="#000000" transform="translate(455,125)"/>
<path d="M0 0 C3.00204281 2.42100227 3.00935621 4.07368015 3.5 7.9375 C3.59375 9.90234375 3.59375 9.90234375 3 12 C1.36391551 13.6966977 -0.30123259 15.36606461 -2 17 C-0.79849808 17.00879936 -0.79849808 17.00879936 0.42727661 17.01777649 C7.98971413 17.07576972 15.55182467 17.147884 23.1139698 17.23571491 C27.00141436 17.28037165 30.88875525 17.31963783 34.77636719 17.34643555 C38.53076287 17.37251583 42.28475866 17.41295086 46.0389061 17.46318626 C47.46851488 17.47982321 48.89819278 17.49135723 50.32788467 17.49761391 C52.33605235 17.50728867 54.34409223 17.53707427 56.35205078 17.56762695 C58.0641423 17.58428154 58.0641423 17.58428154 59.81082153 17.60127258 C64.06817758 18.13354903 67.71431636 19.37892062 70.4375 22.8125 C71.23305859 25.90633896 70.89222378 27.94094704 70 31 C67.76349836 33.95384324 66.59576962 34.90027699 62.8994751 35.51898193 C61.07413239 35.5323056 61.07413239 35.5323056 59.21191406 35.54589844 C58.20154335 35.56140495 58.20154335 35.56140495 57.17076111 35.57722473 C54.95213803 35.60664006 52.7344277 35.60815151 50.515625 35.609375 C48.9743272 35.62435766 47.43304546 35.64108499 45.89178467 35.65948486 C41.84103659 35.7031617 37.79050507 35.72315798 33.73956299 35.73822021 C29.60358879 35.75779027 25.46784851 35.79976033 21.33203125 35.83984375 C13.22141537 35.91514936 5.11089134 35.96543844 -3 36 C-2.195625 36.61875 -1.39125 37.2375 -0.5625 37.875 C2 40 2 40 3 42 C3.57784912 49.16532905 3.57784912 49.16532905 1.3125 52.4375 C-1.33817724 54.22849814 -2.79382862 54.92366259 -6 55 C-10.84920842 52.92768871 -14.69161265 50.09904681 -18.75 46.8125 C-19.35618164 46.3278125 -19.96236328 45.843125 -20.58691406 45.34375 C-21.81218412 44.36353395 -23.03584316 43.38130043 -24.2578125 42.39697266 C-25.84947787 41.12069613 -27.45529626 39.86212167 -29.0625 38.60546875 C-29.949375 37.91066406 -30.83625 37.21585937 -31.75 36.5 C-32.52859375 35.8915625 -33.3071875 35.283125 -34.109375 34.65625 C-36.72026114 32.36902743 -37.90135391 30.63415346 -38.4375 27.1875 C-37.7066091 21.86243771 -33.98810721 18.82622857 -30.01953125 15.5078125 C-28.96121094 14.72148437 -27.90289062 13.93515625 -26.8125 13.125 C-25.66461875 12.26531788 -24.51749228 11.40462711 -23.37109375 10.54296875 C-22.52200439 9.9075415 -22.52200439 9.9075415 -21.65576172 9.25927734 C-18.37271705 6.76238198 -15.20374672 4.12169788 -12.0234375 1.49609375 C-7.93716568 -1.52522306 -4.79240539 -1.11252268 0 0 Z " fill="#000000" transform="translate(322,316)"/>
<path d="M0 0 C0.9477681 -0.0071553 1.89553619 -0.01431061 2.87202454 -0.02168274 C3.91518326 -0.02437164 4.95834198 -0.02706055 6.03311157 -0.02983093 C7.67714211 -0.03968773 7.67714211 -0.03968773 9.35438538 -0.04974365 C12.9929002 -0.06950653 16.63137374 -0.08114476 20.26992798 -0.09111023 C21.50978077 -0.09518576 22.74963356 -0.09926128 24.02705765 -0.10346031 C29.90996251 -0.12217821 35.79285418 -0.13674252 41.67578161 -0.14507228 C48.46826928 -0.15484861 55.26043141 -0.18117869 62.05280435 -0.22157317 C67.93462694 -0.25535329 73.81636957 -0.26721568 79.69829178 -0.27127647 C82.20140417 -0.27615983 84.70451264 -0.28782311 87.20756149 -0.30631447 C90.70566771 -0.33055426 94.20291657 -0.32976849 97.70108032 -0.32279968 C98.74019058 -0.33560974 99.77930084 -0.3484198 100.84989929 -0.36161804 C107.83729523 -0.31072775 107.83729523 -0.31072775 111.10870361 1.96170044 C113.10712615 5.10879295 113.49649048 7.42920306 113.49649048 11.14717102 C111.73007875 13.94906548 110.46599226 15.66242013 107.49649048 17.14717102 C106.02548195 17.24761597 104.55005119 17.28656524 103.07563782 17.29434204 C102.14614319 17.30149734 101.21664856 17.30865265 100.25898743 17.31602478 C99.23610123 17.31871368 98.21321503 17.32140259 97.15933228 17.32417297 C95.54697189 17.33402977 95.54697189 17.33402977 93.90203857 17.34408569 C90.33326148 17.36384948 86.76452651 17.37548764 83.19570923 17.38545227 C81.37089995 17.39156556 81.37089995 17.39156556 79.50922585 17.39780235 C73.07147007 17.41867537 66.63373569 17.43297226 60.19595337 17.44233704 C53.53758424 17.45240148 46.87959485 17.48781528 40.2213316 17.52750874 C35.10928209 17.55361957 29.99731274 17.56202393 24.88520241 17.56561852 C22.43036456 17.5704981 19.97553062 17.58215079 17.52075768 17.60065651 C14.08751156 17.62493142 10.65513743 17.62410392 7.22183228 17.61714172 C6.20501877 17.62995178 5.18820526 17.64276184 4.14057922 17.65596008 C-0.20795547 17.62376722 -2.79901107 17.55849712 -6.61134338 15.3326416 C-9.25132627 12.28343529 -9.50350952 10.14327638 -9.50350952 6.14717102 C-7.18461635 1.06769073 -5.40303612 0.02794486 0 0 Z " fill="#000000" transform="translate(93.50350952148438,321.8528289794922)"/>
<path d="M0 0 C0.93224396 -0.00852997 1.86448792 -0.01705994 2.82498169 -0.02584839 C3.84067734 -0.02494202 4.85637299 -0.02403564 5.90284729 -0.02310181 C6.97804626 -0.02981903 8.05324524 -0.03653625 9.161026 -0.04345703 C12.71897488 -0.06247138 16.27673551 -0.06636283 19.83473206 -0.06851196 C22.3056852 -0.07493689 24.77663758 -0.08166502 27.24758911 -0.08868408 C32.4284288 -0.10066503 37.60920176 -0.104364 42.79005432 -0.10317993 C49.43268614 -0.10297656 56.07489098 -0.13029417 62.71742153 -0.16472435 C67.82090221 -0.18694619 72.92427931 -0.19101893 78.02780342 -0.18996048 C80.47705115 -0.19232295 82.92630145 -0.20118262 85.37550163 -0.21662521 C88.79898502 -0.23619145 92.22153683 -0.23048353 95.64503479 -0.21841431 C96.65870621 -0.22965332 97.67237762 -0.24089233 98.71676636 -0.25247192 C103.05551499 -0.2135466 105.63907483 -0.14201847 109.44058228 2.08294678 C112.10599687 5.15058096 112.40936871 7.23579234 112.33863831 11.26742554 C110.57222658 14.06932 109.30814009 15.78267465 106.33863831 17.26742554 C104.85271117 17.36794767 103.36239576 17.40682442 101.87309265 17.41459656 C100.46406174 17.42532951 100.46406174 17.42532951 99.02656555 17.4362793 C97.99275757 17.4389682 96.95894958 17.4416571 95.89381409 17.44442749 C94.8075473 17.45099869 93.72128052 17.45756989 92.60209656 17.46434021 C88.99604734 17.48410269 85.39003978 17.49574124 81.78395081 17.50570679 C80.55513058 17.50978231 79.32631035 17.51385784 78.06025314 17.51805687 C72.22967351 17.53677465 66.39911034 17.55133898 60.56850636 17.55966884 C53.83657791 17.56944508 47.10497793 17.59577497 40.37316525 17.63616973 C34.54365474 17.66995076 28.71425463 17.6818123 22.884655 17.68587303 C20.4038711 17.69075626 17.92309115 17.70241917 15.44237137 17.72091103 C11.97539579 17.74515198 8.50928523 17.74436485 5.04225159 17.73739624 C4.01249207 17.7502063 2.98273254 17.76301636 1.92176819 17.7762146 C-5.00017935 17.7253521 -5.00017935 17.7253521 -8.27565002 15.45680237 C-10.22244582 12.3809319 -10.5322916 9.8813881 -10.66136169 6.26742554 C-9.86067355 3.57420178 -9.26485806 2.63435517 -6.87066555 1.17867088 C-4.40591825 0.16206581 -2.6587624 0.01102383 0 0 Z " fill="#000000" transform="translate(94.66136169433594,280.7325744628906)"/>
<path d="M0 0 C1.08509857 -0.00861557 2.17019714 -0.01723114 3.28817749 -0.02610779 C6.87335085 -0.04880216 10.45774483 -0.04202243 14.04296875 -0.03295898 C16.53491448 -0.03819275 19.02685822 -0.04446832 21.51879883 -0.05174255 C27.4095339 -0.06348618 33.29998987 -0.05387147 39.1907053 -0.0373382 C43.8860972 -0.02639859 48.58103676 -0.03852421 53.27636719 -0.06347656 C59.75317039 -0.0975052 66.22950845 -0.1071457 72.70639038 -0.09669304 C75.1751703 -0.0958722 77.64396515 -0.10276077 80.11270142 -0.11746407 C83.56265183 -0.13486174 87.01104988 -0.12040533 90.4609375 -0.09765625 C91.48238861 -0.10934845 92.50383972 -0.12104065 93.5562439 -0.13308716 C98.24652236 -0.07008447 100.50976726 0.00200412 104.37231445 2.85023499 C106.79958744 6.35526613 106.83879151 8.3512283 106.23046875 12.53344727 C104.47031744 15.71848296 103.73155959 16.36641699 100.23046875 17.53344727 C98.71914549 17.6325867 97.20389711 17.67691924 95.68936157 17.68734741 C94.75849228 17.69594788 93.82762299 17.70454834 92.86854553 17.71340942 C91.33960915 17.71979935 91.33960915 17.71979935 89.77978516 17.72631836 C88.16720573 17.73858459 88.16720573 17.73858459 86.52204895 17.75109863 C82.95871541 17.77594504 79.39542161 17.7924647 75.83203125 17.80688477 C74.00859758 17.81487028 74.00859758 17.81487028 72.14832687 17.82301712 C65.71705506 17.84974238 59.28580263 17.86912139 52.85449219 17.88354492 C46.20389178 17.90021284 39.55393231 17.94501039 32.9034977 17.99591637 C27.79573987 18.02952361 22.68810031 18.0411151 17.58024216 18.046772 C15.12817985 18.05349991 12.67612573 18.06876157 10.22417068 18.09266281 C6.79568072 18.12418266 3.36853744 18.12437056 -0.06005859 18.11694336 C-1.07530106 18.13334869 -2.09054352 18.14975403 -3.1365509 18.16665649 C-7.87804361 18.12454049 -10.04143872 18.09336379 -13.89736938 15.12808228 C-16.79725388 11.10912325 -16.54111005 9.3943937 -15.76953125 4.53344727 C-11.40450755 -0.64280807 -6.2643025 -0.04002157 0 0 Z " fill="#000000" transform="translate(191.76953125,206.466552734375)"/>
<path d="M0 0 C0.92245514 -0.00571014 1.84491028 -0.01142029 2.7953186 -0.01730347 C3.80525879 -0.01842133 4.81519897 -0.01953918 5.85574341 -0.02069092 C7.45369247 -0.02813828 7.45369247 -0.02813828 9.08392334 -0.03573608 C12.61480348 -0.05036426 16.1456387 -0.05716048 19.67654419 -0.06268311 C22.12650555 -0.06843358 24.57646689 -0.07419133 27.02642822 -0.07995605 C32.16615001 -0.09046761 37.30585614 -0.09630942 42.44558716 -0.09979248 C49.03547484 -0.1052805 55.62515624 -0.12931466 62.21497917 -0.15776443 C67.27641406 -0.1763752 72.33779907 -0.18159557 77.39926529 -0.18312836 C79.8289719 -0.18615844 82.25867757 -0.19419886 84.68835068 -0.20731354 C88.08545449 -0.22434258 91.48205188 -0.22250133 94.87918091 -0.21600342 C95.88507263 -0.2252182 96.89096436 -0.23443298 97.92733765 -0.243927 C106.54836875 -0.19219539 106.54836875 -0.19219539 110.49685669 3.14044189 C112.06621263 6.27915377 111.84886772 8.67900011 111.49685669 12.14044189 C109.46972725 15.08857588 107.85524614 16.86191423 104.26208496 17.59866524 C101.40596335 17.78647136 98.58953628 17.80430815 95.72732544 17.77154541 C94.64222687 17.77870071 93.5571283 17.78585602 92.43914795 17.79322815 C88.85378875 17.81013111 85.26967703 17.79070159 81.68435669 17.76934814 C79.19241228 17.77017669 76.70046792 17.77263551 74.20852661 17.7766571 C68.31770827 17.77988236 62.42734563 17.75800957 56.53662014 17.72670454 C51.84127724 17.70385217 47.14633129 17.70367956 42.45095825 17.71685791 C35.97416375 17.73497422 29.49772686 17.7335499 23.02093506 17.71464348 C20.5521701 17.70945839 18.08338653 17.7099474 15.61462402 17.71618843 C12.16480387 17.72163561 8.71608289 17.70127938 5.26638794 17.67388916 C3.73421127 17.68367798 3.73421127 17.68367798 2.17108154 17.69366455 C-2.25013602 17.63394519 -4.79886344 17.56901703 -8.63912964 15.23210144 C-10.66386814 12.96008827 -11.14338273 12.13221619 -11.00314331 9.14044189 C-10.77687041 5.66876909 -10.12851532 3.57134191 -7.50314331 1.14044189 C-4.67415252 0.19744496 -2.93039133 0.01087009 0 0 Z " fill="#000000" transform="translate(186.50314331054688,165.85955810546875)"/>
</svg>
