<?xml version="1.0" encoding="UTF-8"?>
<svg version="1.1" xmlns="http://www.w3.org/2000/svg" width="512" height="512">
<path d="M0 0 C3.00342657 2.25076063 4.95793932 4.88853489 6.62109375 8.21484375 C6.70369213 10.09226277 6.72934395 11.97232943 6.7265625 13.8515625 C6.74879883 15.5540918 6.74879883 15.5540918 6.77148438 17.29101562 C6.79602202 19.67891607 6.80155017 22.06709528 6.78710938 24.45507812 C6.86616966 32.03078371 6.86616966 32.03078371 10.5859375 38.375 C11.11952881 38.87265869 11.65312012 39.37031738 12.20288086 39.88305664 C14.17065557 41.73091531 14.90707759 43.64438558 15.62109375 46.21484375 C15.62109375 47.20484375 15.62109375 48.19484375 15.62109375 49.21484375 C24.92257888 49.15359824 34.22375778 49.07646746 43.52493572 48.97912884 C47.84399737 48.93442664 52.16296472 48.89517027 56.48217773 48.8684082 C60.65151539 48.84237359 64.82049016 48.80197031 68.98960304 48.75165749 C70.57913507 48.73498979 72.16872987 48.72347489 73.75833702 48.71722984 C75.98730769 48.70758741 78.21535023 48.67952827 80.4440918 48.6472168 C81.712061 48.63611374 82.98003021 48.62501068 84.28642273 48.61357117 C91.57091837 47.74256227 95.25379871 42.57727715 99.92578125 37.39453125 C103.23750835 34.71635194 105.3975535 34.29813863 109.62109375 34.21484375 C112.62109375 36.27734375 112.62109375 36.27734375 114.62109375 39.21484375 C114.68800915 43.47309662 113.455758 45.71622383 110.671875 48.7578125 C109.43866635 49.98573408 108.19206052 51.20032197 106.93359375 52.40234375 C106.32064453 53.01787109 105.70769531 53.63339844 105.07617188 54.26757812 C100.97020927 58.28645775 96.98578833 62.13050404 90.94262695 62.28198242 C90.176521 62.25982666 89.41041504 62.2376709 88.62109375 62.21484375 C88.90082031 62.79411621 89.18054688 63.37338867 89.46875 63.97021484 C96.85714439 79.28450338 104.14003337 94.64583636 111.36328125 110.03857422 C111.69790375 110.75130997 112.03252625 111.46404572 112.37728882 112.19837952 C113.00589049 113.53753613 113.63403271 114.87690855 114.2616272 116.21653748 C115.409254 118.66181047 116.55856027 121.09562811 117.81347656 123.48803711 C118.92736777 125.86970353 118.81477701 127.85487978 118.74609375 130.46484375 C118.72804688 131.356875 118.71 132.24890625 118.69140625 133.16796875 C118.65660156 134.18117188 118.65660156 134.18117188 118.62109375 135.21484375 C119.224375 135.18003906 119.82765625 135.14523437 120.44921875 135.109375 C124.01948732 134.98844655 126.85366137 134.89664008 130.18359375 136.27734375 C132.3921722 139.2541234 132.00620096 141.62050979 131.62109375 145.21484375 C129.62109375 148.21484375 129.62109375 148.21484375 126.62109375 149.21484375 C125.22669711 149.28149751 123.829395 149.30022574 122.43359375 149.27734375 C121.17546875 149.25671875 119.91734375 149.23609375 118.62109375 149.21484375 C118.28078125 150.88546875 118.28078125 150.88546875 117.93359375 152.58984375 C115.11861183 163.52199957 109.30003613 171.72051221 99.91015625 178.0390625 C88.99602307 184.35213954 77.19396081 186.12011207 64.875 182.96875 C53.45490412 179.14885658 45.4470262 172.72502737 39.62109375 162.21484375 C35.62109375 153.66995211 35.62109375 153.66995211 35.62109375 149.21484375 C34.40421875 149.27671875 33.18734375 149.33859375 31.93359375 149.40234375 C28.02020323 149.36758895 25.50259942 149.09634942 22.62109375 146.21484375 C22.02384263 143.4583001 21.95709595 140.95936798 22.62109375 138.21484375 C23.859375 136.4765625 23.859375 136.4765625 25.62109375 135.21484375 C27.8828125 134.921875 27.8828125 134.921875 30.30859375 135.02734375 C31.52095703 135.06794922 31.52095703 135.06794922 32.7578125 135.109375 C33.37269531 135.14417969 33.98757813 135.17898438 34.62109375 135.21484375 C34.44513672 133.61382812 34.44513672 133.61382812 34.265625 131.98046875 C34.28370109 125.63437067 37.47813303 120.49073329 40.30859375 114.96484375 C41.19642582 113.18043431 42.08420065 111.39599397 42.96878052 109.60997009 C43.58197899 108.3726506 44.19697219 107.13621905 44.81369019 105.90065002 C48.22585012 99.05073534 51.42627832 92.10557931 54.62109375 85.15234375 C55.66141845 82.89000742 56.70302222 80.62825869 57.74609375 78.3671875 C58.18179688 77.41835693 58.6175 76.46952637 59.06640625 75.49194336 C61.18192991 71.03266665 63.41380631 66.62941862 65.62109375 62.21484375 C49.12109375 62.21484375 32.62109375 62.21484375 15.62109375 62.21484375 C15.29109375 64.19484375 14.96109375 66.17484375 14.62109375 68.21484375 C13.24609375 70.515625 13.24609375 70.515625 11.62109375 72.52734375 C11.08484375 73.20410156 10.54859375 73.88085938 9.99609375 74.578125 C8.62109375 76.21484375 8.62109375 76.21484375 7.62109375 77.21484375 C7.51349925 78.63118094 7.47429053 80.05278755 7.46287537 81.47315979 C7.45308655 82.39167725 7.44329773 83.3101947 7.43321228 84.25654602 C7.42745682 85.27218124 7.42170135 86.28781647 7.41577148 87.33422852 C7.40587189 88.39751373 7.39597229 89.46079895 7.38577271 90.55630493 C7.3540504 94.08959689 7.32935802 97.62290233 7.3046875 101.15625 C7.28412723 103.59863139 7.26313102 106.04100915 7.24171448 108.48338318 C7.18639805 114.92614814 7.13703112 121.36894571 7.08886719 127.81176758 C7.03872186 134.38040078 6.98299951 140.94898635 6.92773438 147.51757812 C6.82003581 160.41662574 6.71842778 173.31571398 6.62109375 186.21484375 C7.73605225 186.18656494 7.73605225 186.18656494 8.87353516 186.15771484 C9.85499512 186.14305176 10.83645508 186.12838867 11.84765625 186.11328125 C13.30292725 186.08500244 13.30292725 186.08500244 14.78759766 186.05615234 C19.77828391 186.33565829 23.52390275 188.26210213 27.15234375 191.640625 C32.73893489 197.92554003 32.89327439 203.51732043 32.74609375 211.52734375 C32.73707031 212.45869141 32.72804688 213.39003906 32.71875 214.34960938 C32.69527638 216.63828735 32.66244104 218.92643047 32.62109375 221.21484375 C33.52033569 221.19127808 33.52033569 221.19127808 34.43774414 221.16723633 C37.18626252 221.10440245 39.93462917 221.0657014 42.68359375 221.02734375 C43.62654297 221.00220703 44.56949219 220.97707031 45.54101562 220.95117188 C51.348807 220.89046325 55.64095937 221.08719248 60.62109375 224.21484375 C66.08512107 230.50379727 65.21549661 237.92923539 65.12109375 245.90234375 C65.14429688 247.87944336 65.14429688 247.87944336 65.16796875 249.89648438 C65.1628125 251.16041016 65.15765625 252.42433594 65.15234375 253.7265625 C65.14783203 254.87600342 65.14332031 256.02544434 65.13867188 257.2097168 C64.49752518 260.93229917 63.56141145 261.90082076 60.62109375 264.21484375 C57.85993958 264.715415 57.85993958 264.715415 54.62426758 264.71604919 C53.39608307 264.72588333 52.16789856 264.73571747 50.90249634 264.74584961 C49.54436978 264.73647792 48.18624599 264.72669861 46.828125 264.71655273 C45.39561431 264.72033639 43.96310728 264.72583682 42.53060913 264.73292542 C38.6421162 264.74689148 34.75406518 264.73570249 30.86559677 264.7192142 C26.79686889 264.70536733 22.72816676 264.71182336 18.65942383 264.71534729 C11.82658768 264.71804971 4.99392717 264.70457119 -1.83886719 264.68139648 C-9.73922095 264.65478647 -17.63928105 264.65303949 -25.53966427 264.66478485 C-33.13867387 264.67556307 -40.73757721 264.66937524 -48.33657837 264.65522957 C-51.57095857 264.64947012 -54.80526099 264.64955211 -58.03964233 264.65429497 C-61.84823528 264.65906639 -65.65650655 264.64895653 -69.4650383 264.62734032 C-70.86305023 264.62177448 -72.26109309 264.62130532 -73.65910721 264.62629318 C-75.566772 264.63224596 -77.47446803 264.61790765 -79.38208008 264.6025238 C-80.44985184 264.60009391 -81.5176236 264.59766401 -82.61775208 264.59516048 C-85.74597359 264.16428451 -87.11280724 263.3749812 -89.37890625 261.21484375 C-91.17749911 256.64265324 -90.56322416 251.30161769 -90.56640625 246.46484375 C-90.57865234 245.500625 -90.59089844 244.53640625 -90.60351562 243.54296875 C-90.63135712 229.88207673 -90.63135712 229.88207673 -87.0637207 225.6574707 C-82.73813665 221.83018527 -79.20085295 221.08136973 -73.61328125 221.1171875 C-72.72382813 221.12041016 -71.834375 221.12363281 -70.91796875 221.12695312 C-69.99757813 221.13533203 -69.0771875 221.14371094 -68.12890625 221.15234375 C-66.72511719 221.15911133 -66.72511719 221.15911133 -65.29296875 221.16601562 C-62.98821584 221.17777457 -60.68359398 221.19420949 -58.37890625 221.21484375 C-58.40210938 220.23644531 -58.4253125 219.25804687 -58.44921875 218.25 C-58.7199384 198.58415138 -58.7199384 198.58415138 -52.37890625 191.21484375 C-47.5370109 187.7658224 -43.12023619 186.07534596 -37.19140625 186.15234375 C-36.29035156 186.16136719 -35.38929688 186.17039062 -34.4609375 186.1796875 C-33.43033203 186.19708984 -33.43033203 186.19708984 -32.37890625 186.21484375 C-32.36933487 172.14098682 -32.39445677 158.06755475 -32.45918465 143.99383545 C-32.48823535 137.45852146 -32.50627737 130.92356613 -32.49902344 124.38818359 C-32.49242796 118.07907081 -32.51492944 111.77066661 -32.55746078 105.46170044 C-32.56858783 103.05683922 -32.56929588 100.65190611 -32.55932999 98.24703979 C-32.54714383 94.87354631 -32.57226628 91.50221104 -32.60595703 88.12890625 C-32.58762566 86.64320381 -32.58762566 86.64320381 -32.56892395 85.12748718 C-32.67799324 79.05194236 -33.75967141 75.68057625 -37.89826775 71.16708374 C-39.37890625 69.21484375 -39.37890625 69.21484375 -41.37890625 63.21484375 C-57.54890625 63.21484375 -73.71890625 63.21484375 -90.37890625 63.21484375 C-87.47078125 69.17546875 -84.56265625 75.13609375 -81.56640625 81.27734375 C-78.71240234 87.15332031 -78.71240234 87.15332031 -77.50869751 89.63421631 C-74.27223302 96.3038631 -71.01963505 102.96162499 -67.66796875 109.57421875 C-67.15339111 110.60409912 -66.63881348 111.63397949 -66.10864258 112.69506836 C-65.19726545 114.51640962 -64.27114807 116.33048879 -63.3269043 118.13500977 C-60.4369603 123.97147185 -59.84677848 128.73248214 -60.37890625 135.21484375 C-59.40377075 135.15272705 -59.40377075 135.15272705 -58.40893555 135.08935547 C-52.1184948 134.74583638 -52.1184948 134.74583638 -48.81640625 136.83984375 C-46.9255601 139.96385043 -46.70575989 141.62472982 -47.37890625 145.21484375 C-50.17070088 148.44285629 -52.57499771 149.43109984 -56.69140625 149.96484375 C-57.90828125 150.04734375 -59.12515625 150.12984375 -60.37890625 150.21484375 C-60.59804688 150.90449219 -60.8171875 151.59414063 -61.04296875 152.3046875 C-64.9959761 164.01908734 -71.12487408 173.98281453 -82.44921875 179.7890625 C-94.78720651 185.07893686 -106.61377408 185.92042188 -119.37890625 181.21484375 C-130.44764336 175.68778612 -137.9050072 167.76461662 -142.37890625 156.21484375 C-142.95540243 153.81918183 -143.21792075 151.68328803 -143.37890625 149.21484375 C-144.59126953 149.30185547 -144.59126953 149.30185547 -145.828125 149.390625 C-154.50803127 149.75708666 -154.50803127 149.75708666 -158.69140625 147.15234375 C-160.37890625 144.21484375 -160.37890625 144.21484375 -160.37890625 140.52734375 C-159.37890625 137.21484375 -159.37890625 137.21484375 -156.37890625 135.21484375 C-153.4609375 135.01953125 -153.4609375 135.01953125 -150.19140625 135.08984375 C-149.10472656 135.10789062 -148.01804688 135.1259375 -146.8984375 135.14453125 C-146.06699219 135.16773438 -145.23554688 135.1909375 -144.37890625 135.21484375 C-144.45665283 133.90725098 -144.53439941 132.5996582 -144.61450195 131.25244141 C-144.60395308 125.94733096 -143.02091767 122.26060301 -140.609375 117.61328125 C-140.21691086 116.82158035 -139.82444672 116.02987946 -139.42008972 115.21418762 C-138.15173089 112.66425968 -136.85936876 110.12737022 -135.56640625 107.58984375 C-134.6910065 105.83988007 -133.81747777 104.08897921 -132.94580078 102.3371582 C-131.22432622 98.88053033 -129.49530402 95.42785927 -127.76025391 91.97802734 C-124.67398786 85.82588132 -121.70170555 79.6220003 -118.75390625 73.40234375 C-117.90776167 71.62490021 -117.06143192 69.8475448 -116.21484375 68.0703125 C-115.8801709 67.36543701 -115.54549805 66.66056152 -115.20068359 65.93432617 C-114.60537919 64.68871449 -113.99630981 63.44965088 -113.37890625 62.21484375 C-114.53390625 62.17359375 -115.68890625 62.13234375 -116.87890625 62.08984375 C-125.86096292 60.92170281 -132.56935953 52.57102178 -138.37890625 46.21484375 C-139.79932446 43.37400734 -139.69342897 41.36007097 -139.37890625 38.21484375 C-137.81640625 35.77734375 -137.81640625 35.77734375 -135.37890625 34.21484375 C-130.95452322 34.29861905 -128.89422349 34.78449169 -125.46484375 37.6484375 C-124.5452086 38.63507464 -123.64162096 39.63689102 -122.75390625 40.65234375 C-118.56858292 45.32196878 -115.54245339 47.98404932 -109.0821991 48.45535278 C-107.83199478 48.45091156 -106.58179047 48.44647034 -105.29370117 48.44189453 C-104.25385071 48.44233261 -104.25385071 48.44233261 -103.19299316 48.44277954 C-100.91499051 48.44139272 -98.6373201 48.42586242 -96.359375 48.41015625 C-94.77468545 48.40642381 -93.18999359 48.40357793 -91.6053009 48.40158081 C-87.44436212 48.39396252 -83.28356404 48.37432963 -79.12268066 48.35217285 C-74.87282209 48.33167547 -70.62294068 48.32257078 -66.37304688 48.3125 C-58.04160226 48.29108195 -49.71027178 48.25696791 -41.37890625 48.21484375 C-41.11589722 47.59212082 -40.85288818 46.96939789 -40.58190918 46.32780457 C-40.23067993 45.51346451 -39.87945068 44.69912445 -39.51757812 43.86010742 C-39.17206909 43.05175949 -38.82656006 42.24341156 -38.47058105 41.41056824 C-37.37890625 39.21484375 -37.37890625 39.21484375 -35.16015625 36.890625 C-31.76044465 31.78360209 -32.86878245 25.16445314 -32.890625 19.20507812 C-32.80212005 12.74823987 -32.30218187 7.53357988 -28.37890625 2.21484375 C-20.4614879 -4.21805866 -8.91865338 -5.2102736 0 0 Z M-18.37890625 12.21484375 C-18.37890625 17.16484375 -18.37890625 22.11484375 -18.37890625 27.21484375 C-14.41890625 27.21484375 -10.45890625 27.21484375 -6.37890625 27.21484375 C-6.32506104 24.92343089 -6.28618538 22.63166187 -6.25390625 20.33984375 C-6.23070312 19.06367188 -6.2075 17.7875 -6.18359375 16.47265625 C-6.02249101 13.12891037 -6.02249101 13.12891037 -8.37890625 11.21484375 C-10.29071174 10.93479317 -10.29071174 10.93479317 -12.37890625 11.02734375 C-13.43078125 11.03701172 -13.43078125 11.03701172 -14.50390625 11.046875 C-16.46946998 11.10778242 -16.46946998 11.10778242 -18.37890625 12.21484375 Z M-25.75390625 47.02734375 C-28.30562699 52.03264212 -28.93322502 55.42870549 -27.25390625 60.83984375 C-24.85756766 65.15325321 -22.34630722 68.01254316 -18.12890625 70.58984375 C-13.26029154 71.69634709 -8.65286762 71.61188996 -4.3125 68.9453125 C-0.58175207 65.86880846 2.17323572 63.0321832 2.95703125 58.1015625 C3.05544064 52.56111405 2.35245318 48.4635303 -1.37890625 44.21484375 C-5.28661898 40.87102881 -9.26492325 39.53379823 -14.39453125 39.83203125 C-19.38666917 40.79508148 -22.51863522 43.19610174 -25.75390625 47.02734375 Z M-102.37890625 72.21484375 C-107.84743256 83.09268064 -113.23701164 94.00699171 -118.56298828 104.95532227 C-119.77186465 107.43924352 -120.98355802 109.92177863 -122.1953125 112.40429688 C-122.97282658 114.00121916 -123.75017663 115.59822133 -124.52734375 117.1953125 C-124.88565277 117.92864304 -125.24396179 118.66197357 -125.61312866 119.41752625 C-129.45419905 126.94286488 -129.45419905 126.94286488 -130.37890625 135.21484375 C-129.15260498 135.22418945 -127.92630371 135.23353516 -126.6628418 135.24316406 C-122.11706082 135.28300839 -117.57196063 135.34875131 -113.02661133 135.42236328 C-111.05860127 135.45060524 -109.0904771 135.47180369 -107.12231445 135.48583984 C-104.29448895 135.50722496 -101.4680401 135.55385115 -98.640625 135.60546875 C-97.75928391 135.60669739 -96.87794281 135.60792603 -95.96989441 135.60919189 C-89.89954929 135.75505509 -89.89954929 135.75505509 -87.29223633 138.05761719 C-85.98863259 141.1366449 -86.41822088 143.05830612 -87.37890625 146.21484375 C-91.28443095 148.81852688 -94.66554514 148.56632872 -99.203125 148.62890625 C-100.06452591 148.6482724 -100.92592682 148.66763855 -101.81343079 148.68759155 C-104.56432193 148.74736405 -107.31525498 148.79376323 -110.06640625 148.83984375 C-111.93165886 148.87802569 -113.79689388 148.91707755 -115.66210938 148.95703125 C-120.23423211 149.05306365 -124.80643739 149.13710325 -129.37890625 149.21484375 C-126.4055456 158.40409307 -122.14467403 163.28487992 -113.74609375 168.0859375 C-107.63575055 170.99994606 -100.46573024 171.30204372 -93.94140625 169.56640625 C-85.13906791 165.9904563 -79.15311088 160.26613092 -75.27734375 151.6171875 C-74.07879397 148.41236961 -73.55906841 145.63792488 -73.37890625 142.21484375 C-73.3010791 141.46187012 -73.22325195 140.70889648 -73.14306641 139.93310547 C-72.60614193 131.34392621 -75.66821988 125.23913684 -79.56640625 117.77734375 C-80.52546565 115.88290657 -81.47679604 113.98470591 -82.42807007 112.08634949 C-83.08273916 110.78151493 -83.74000861 109.47798196 -84.39981079 108.17573547 C-88.30799665 100.44438147 -91.88621619 92.56209772 -95.47006226 84.67654419 C-96.25370152 82.95455664 -97.04273762 81.23502814 -97.83203125 79.515625 C-98.27708008 78.53762939 -98.72212891 77.55963379 -99.18066406 76.55200195 C-100.28444647 74.10488469 -100.28444647 74.10488469 -102.37890625 72.21484375 Z M76.62109375 72.21484375 C73.75660375 78.06309738 70.89431789 83.91242617 68.03344727 89.76245117 C67.06323217 91.7457629 66.09254226 93.72884244 65.12133789 95.71166992 C62.35775416 101.35428363 59.60365443 107.00132775 56.86395264 112.65557861 C56.06617949 114.29833389 55.26522418 115.93954979 54.46026611 117.57879639 C53.44359454 119.6498364 52.43887772 121.72622073 51.4375 123.8046875 C50.88650635 124.93640381 50.3355127 126.06812012 49.76782227 127.23413086 C48.64131779 130.16227502 48.36128313 132.11621471 48.62109375 135.21484375 C49.84739502 135.22942627 51.07369629 135.24400879 52.3371582 135.2590332 C56.88286641 135.31696458 61.42807656 135.39419756 65.97338867 135.47729492 C67.94140546 135.51056861 69.90951824 135.5385929 71.87768555 135.5612793 C74.70533187 135.59478053 77.53209657 135.64709338 80.359375 135.703125 C81.24071609 135.70951492 82.12205719 135.71590485 83.03010559 135.7224884 C83.85072983 135.74228256 84.67135406 135.76207672 85.5168457 135.7824707 C86.59939384 135.79912529 86.59939384 135.79912529 87.70381165 135.81611633 C90.20800833 136.33690139 91.12433728 137.16094144 92.62109375 139.21484375 C92.49609375 142.77734375 92.49609375 142.77734375 91.62109375 146.21484375 C87.71556905 148.81852688 84.33445486 148.56632872 79.796875 148.62890625 C78.93547409 148.6482724 78.07407318 148.66763855 77.18656921 148.68759155 C74.43567807 148.74736405 71.68474502 148.79376323 68.93359375 148.83984375 C67.06834114 148.87802569 65.20310612 148.91707755 63.33789062 148.95703125 C58.76576789 149.05306365 54.19356261 149.13710325 49.62109375 149.21484375 C50.07310804 150.48486968 50.53136899 151.75267329 50.9921875 153.01953125 C51.24669678 153.72577637 51.50120605 154.43202148 51.76342773 155.15966797 C54.74621578 162.30715153 60.94415475 165.88180266 67.62109375 169.21484375 C75.1018054 171.65452574 83.18406053 170.80286829 90.265625 167.60546875 C97.04449005 163.60335273 101.99929533 157.63586641 104.62109375 150.21484375 C108.33083752 133.75828995 103.11058488 123.15876124 95.55859375 108.71484375 C94.60330798 106.83997169 93.65081483 104.96367401 92.70117188 103.0859375 C90.86792887 99.4654225 89.02180025 95.85194454 87.16748047 92.2421875 C83.80208392 85.65037834 80.6808954 78.95331261 77.62109375 72.21484375 C77.29109375 72.21484375 76.96109375 72.21484375 76.62109375 72.21484375 Z M-18.37890625 84.21484375 C-18.37890625 117.87484375 -18.37890625 151.53484375 -18.37890625 186.21484375 C-14.41890625 186.21484375 -10.45890625 186.21484375 -6.37890625 186.21484375 C-6.37890625 152.55484375 -6.37890625 118.89484375 -6.37890625 84.21484375 C-10.33890625 84.21484375 -14.29890625 84.21484375 -18.37890625 84.21484375 Z M-43.37890625 203.21484375 C-46.0663255 208.58968225 -44.37890625 215.20559162 -44.37890625 221.21484375 C-23.58890625 221.21484375 -2.79890625 221.21484375 18.62109375 221.21484375 C18.62109375 215.27484375 18.62109375 209.33484375 18.62109375 203.21484375 C15.19646048 199.79021048 14.76203715 199.83781137 10.1875 199.82666016 C8.52062134 199.81247543 8.52062134 199.81247543 6.82006836 199.79800415 C5.62003174 199.80407684 4.41999512 199.81014954 3.18359375 199.81640625 C1.9519751 199.81353607 0.72035645 199.81066589 -0.54858398 199.80770874 C-3.82238582 199.80514217 -7.09576162 199.81722765 -10.36950684 199.83398438 C-12.3770101 199.83983822 -14.38411994 199.8340058 -16.39160156 199.82373047 C-20.2417232 199.80523395 -24.09126059 199.80743383 -27.94140625 199.81640625 C-29.74146118 199.80729721 -29.74146118 199.80729721 -31.57788086 199.79800415 C-32.6891333 199.80746063 -33.80038574 199.81691711 -34.9453125 199.82666016 C-36.4139978 199.83024033 -36.4139978 199.83024033 -37.91235352 199.83389282 C-40.78965914 200.27828318 -41.6365347 200.93413365 -43.37890625 203.21484375 Z M-76.37890625 235.21484375 C-76.37890625 240.16484375 -76.37890625 245.11484375 -76.37890625 250.21484375 C-34.46890625 250.21484375 7.44109375 250.21484375 50.62109375 250.21484375 C50.62109375 245.26484375 50.62109375 240.31484375 50.62109375 235.21484375 C8.71109375 235.21484375 -33.19890625 235.21484375 -76.37890625 235.21484375 Z " fill="#000000" transform="translate(329.37890625,190.78515625)"/>
<path d="M0 0 C1.03852232 -0.00523668 2.07704464 -0.01047336 3.14703733 -0.01586872 C6.63218742 -0.03088835 10.11719095 -0.03157432 13.60237122 -0.03224182 C16.0991694 -0.03986204 18.59596523 -0.0482893 21.09275818 -0.0574646 C27.88011789 -0.07943163 34.66741854 -0.08823348 41.45480514 -0.09329104 C45.69542324 -0.09655043 49.9360323 -0.10307442 54.17664528 -0.11029243 C65.92488786 -0.12985695 77.67312203 -0.14626174 89.42138195 -0.14916897 C90.54870642 -0.14945032 90.54870642 -0.14945032 91.69880511 -0.14973736 C93.22229087 -0.15010361 94.74577663 -0.1504673 96.2692624 -0.15082847 C97.02549202 -0.15101128 97.78172164 -0.1511941 98.56086731 -0.15138245 C99.31802346 -0.151563 100.07517962 -0.15174354 100.8552799 -0.15192956 C113.11851922 -0.15546972 125.38158278 -0.18248277 137.64476117 -0.21988034 C150.24461542 -0.25799609 162.84438254 -0.27732669 175.4442957 -0.27762848 C182.51488436 -0.27821236 189.58526339 -0.28665891 196.65579796 -0.31562614 C203.30837765 -0.34275624 209.96061525 -0.34401706 216.61325455 -0.3279705 C219.0520919 -0.32615517 221.49095303 -0.33285423 223.929739 -0.34878922 C227.26549783 -0.36925235 230.59980579 -0.35869475 233.93554688 -0.34057617 C234.89519968 -0.35377614 235.85485248 -0.36697611 236.84358567 -0.38057607 C243.70140096 -0.29580066 249.0778541 1.40064349 254.78523254 5.27415466 C259.96836352 10.79755169 260.50512514 16.2540977 260.40046692 23.58982849 C260.40601593 24.59079559 260.41156494 25.5917627 260.4172821 26.62306213 C260.42902992 29.9096004 260.40485998 33.19474553 260.37898254 36.48118591 C260.37727074 38.77184995 260.37733783 41.06251594 260.37910461 43.35317993 C260.37745438 48.14205284 260.35880335 52.93045591 260.32722473 57.71922302 C260.2874362 63.86420469 260.28319434 70.00857464 260.29068756 76.15366077 C260.29375219 80.87792591 260.28165662 85.60205287 260.26455688 90.32628441 C260.25751748 92.59294964 260.25440349 94.85963053 260.25524902 97.12630653 C260.2534568 100.28631232 260.23212738 103.44557566 260.20515442 106.60545349 C260.20808502 107.54522537 260.21101563 108.48499725 260.21403503 109.45324707 C260.19701035 110.74207794 260.19701035 110.74207794 260.17964172 112.0569458 C260.17591301 112.80334729 260.1721843 113.54974878 260.16834259 114.3187685 C259.67110682 116.85665013 258.84482362 117.74248516 256.78523254 119.27415466 C250.65919229 119.93051612 250.65919229 119.93051612 248.09098244 118.00173855 C246.50753041 115.90673841 246.40542112 114.86204473 246.39323425 112.2578125 C246.38214127 111.4432962 246.37104828 110.62877991 246.35961914 109.7895813 C246.36262527 108.89962967 246.36563141 108.00967804 246.36872864 107.09275818 C246.36014328 106.15264893 246.35155792 105.21253967 246.3427124 104.24394226 C246.31757926 101.1302397 246.31326651 98.01685578 246.30867004 94.90306091 C246.29436484 92.7421572 246.2786087 90.58126265 246.26145935 88.42037964 C246.21953715 82.72553835 246.19458851 77.03075377 246.17396545 71.33580017 C246.138202 62.22327249 246.07717035 53.11088502 246.01547623 43.99850273 C245.99637467 40.81219387 245.98465093 37.62592236 245.9740448 34.4395752 C245.96383259 32.48803121 245.95347467 30.53648799 245.94294739 28.58494568 C245.94190506 27.69701828 245.94086273 26.80909088 245.93978882 25.89425659 C245.93433548 25.07692047 245.92888214 24.25958435 245.92326355 23.41748047 C245.91942941 22.35588888 245.91942941 22.35588888 245.91551781 21.27285099 C245.77843298 19.16984313 245.318818 17.30831472 244.78523254 15.27415466 C212.60562553 15.16016543 180.42607579 15.07164454 148.24631415 15.01882802 C144.44979768 15.01257426 140.65328162 15.00610267 136.85676575 14.99949646 C136.10092714 14.99818491 135.34508854 14.99687336 134.56634573 14.99552206 C122.31747591 14.97374764 110.06872306 14.93431499 97.81992271 14.88839068 C85.25756766 14.84168254 72.69527401 14.81387125 60.13283569 14.80371219 C52.37702482 14.79684125 44.62154454 14.77511728 36.86583541 14.73457233 C30.92523203 14.70509264 24.9847996 14.70186623 19.04412079 14.70861626 C16.60233583 14.70723559 14.16053888 14.6972224 11.7188282 14.67812729 C8.39570139 14.65340413 5.07401163 14.65917453 1.75085449 14.67288208 C0.7751831 14.65831787 -0.2004883 14.64375367 -1.20572549 14.62874812 C-6.21950191 14.59621122 -6.21950191 14.59621122 -10.31269836 17.14537811 C-11.64459495 21.76498747 -11.63632247 26.14890343 -11.61349487 30.93585205 C-11.6201417 32.02226555 -11.62678853 33.10867905 -11.63363677 34.22801417 C-11.65231519 37.87475537 -11.64965815 41.52116986 -11.6471405 45.16795349 C-11.65615467 47.77949997 -11.66648103 50.39104221 -11.67802429 53.00257874 C-11.70081614 58.62830022 -11.7126964 64.25395977 -11.71715355 69.8797245 C-11.72361361 78.0136057 -11.74654841 86.14737491 -11.77349684 94.28121098 C-11.81677234 107.47798049 -11.84673473 120.67474529 -11.86833191 133.87156677 C-11.88933932 146.69060076 -11.91661232 159.50959618 -11.95231628 172.32859802 C-11.95451511 173.11883823 -11.95671393 173.90907844 -11.95897939 174.72326533 C-11.97004898 178.68769133 -11.9812418 182.65211697 -11.99249589 186.61654246 C-12.0856918 219.5023811 -12.15728475 252.38823391 -12.21476746 285.27415466 C-11.16764587 285.26527222 -10.12052429 285.25638977 -9.04167175 285.24723816 C0.84502423 285.16601583 10.73165217 285.10612381 20.61860657 285.06690598 C25.70114591 285.04606556 30.78341508 285.01781272 35.86579895 284.97239685 C40.77414085 284.92881261 45.68222348 284.9049909 50.59074402 284.89464569 C52.45978372 284.88727687 54.32880985 284.8728873 56.19773865 284.85123444 C58.82356501 284.82203291 61.44833143 284.81820559 64.07429504 284.8200531 C64.84034561 284.805672 65.60639618 284.79129089 66.3956604 284.776474 C72.51220112 284.82278733 77.65928651 286.53723936 82.31712341 290.61539841 C87.5737025 296.37351194 88.08464779 303.13290673 88.01228333 310.59617615 C88.01257538 311.39699112 88.01286743 312.19780609 88.01316833 313.02288818 C88.01178459 315.64712182 87.99626883 318.27106491 87.98054504 320.89524841 C87.97681151 322.72370244 87.97396615 324.55215848 87.9719696 326.38061523 C87.96435995 331.17609755 87.94473452 335.97145733 87.92256165 340.76689148 C87.90204558 345.66708214 87.8929556 350.56729274 87.88288879 355.46751404 C87.86148599 365.0697812 87.82738245 374.67195771 87.78523254 384.27415466 C88.51328598 384.26305161 89.24133942 384.25194855 89.99145508 384.24050903 C96.86219381 384.14020603 103.73282273 384.06413859 110.60410595 384.0150938 C114.13656099 383.98903078 117.66840967 383.953696 121.20051575 383.8969574 C125.26396916 383.83209402 129.32678853 383.80794734 133.39070129 383.78587341 C134.65544785 383.76006699 135.9201944 383.73426056 137.2232666 383.70767212 C146.9941472 383.70454722 146.9941472 383.70454722 150.1184845 386.60935974 C151.78523254 389.27415466 151.78523254 389.27415466 151.84773254 392.39915466 C150.60672632 395.75717149 149.85170553 396.5144033 146.78523254 398.27415466 C143.73854065 398.68202209 143.73854065 398.68202209 140.12409973 398.72581482 C139.4633696 398.73749695 138.80263947 398.74917908 138.12188721 398.76121521 C135.94181216 398.79475264 133.76241773 398.80553389 131.58210754 398.81321716 C130.05999009 398.82540446 128.537875 398.83789069 127.01576233 398.85066223 C123.82476937 398.87312896 120.63401499 398.882691 117.44294739 398.88499451 C113.36927744 398.89026773 109.29761423 398.94153681 105.22448349 399.00451088 C102.0792627 399.04554175 98.93451918 399.05463794 95.78905487 399.05511093 C94.28839397 399.06047114 92.78772607 399.07723124 91.28733063 399.10596085 C89.17809453 399.1429705 87.07333026 399.13489172 84.96394348 399.11643982 C83.17002167 399.12618332 83.17002167 399.12618332 81.33985901 399.13612366 C76.18417607 397.88591105 73.48079131 394.95491348 69.78523254 391.27415466 C69.05633757 390.56847351 68.32744259 389.86279236 67.57645988 389.13572693 C65.11843746 386.73783882 62.68923433 384.31333585 60.26399231 381.88230896 C59.34759476 380.96766373 58.4311972 380.05301849 57.48703003 379.11065674 C54.99758653 376.62573225 52.51126813 374.13770364 50.02567792 371.64892554 C47.41716251 369.0378623 44.80619 366.42925786 42.19561768 363.82025146 C37.82045229 359.44689879 33.44738535 355.07145613 29.07551575 350.69480896 C24.01946077 345.63329264 18.95978592 340.57541629 13.89825588 335.5193755 C9.54468243 331.17033448 5.19305362 326.81935489 0.84305614 322.46673709 C-1.75197604 319.87014548 -4.34768029 317.27423542 -6.94514275 314.68007469 C-9.83272211 311.79591077 -12.71621203 308.90769238 -15.59928894 306.01902771 C-16.89349762 304.72785538 -16.89349762 304.72785538 -18.21385193 303.41059875 C-18.99459579 302.62703506 -19.77533966 301.84347137 -20.57974243 301.03616333 C-21.26161841 300.35391032 -21.9434944 299.67165731 -22.64603329 298.96872997 C-25.23287741 296.17437369 -25.3407552 294.36420048 -25.34619522 290.65633774 C-25.35195694 289.18766365 -25.35195694 289.18766365 -25.35783505 287.68931937 C-25.35696857 286.6058813 -25.35610209 285.52244323 -25.35520935 284.40617371 C-25.35818047 283.26122004 -25.3611516 282.11626637 -25.36421275 280.93661714 C-25.37140789 277.74886866 -25.37407322 274.56115296 -25.37481022 271.37339759 C-25.376658 267.93906024 -25.38420399 264.50473464 -25.39094543 261.07040405 C-25.40454133 253.55589808 -25.41055558 246.04139744 -25.41495609 238.52688122 C-25.4177167 233.83621545 -25.42195375 229.14555176 -25.42646027 224.45488739 C-25.43865516 211.47233077 -25.44895366 198.48977581 -25.45233536 185.50721359 C-25.45255492 184.67589445 -25.45277449 183.8445753 -25.45300071 182.98806466 C-25.45321899 182.15473323 -25.45343726 181.3214018 -25.45366216 180.46281791 C-25.45410563 178.77411636 -25.45455219 177.08541481 -25.45500183 175.39671326 C-25.45522326 174.55905537 -25.45544469 173.72139749 -25.45567283 172.85835603 C-25.45962062 159.28603946 -25.47707305 145.7137766 -25.50036135 132.14148077 C-25.52406846 118.21285349 -25.53653694 104.28425315 -25.53770328 90.35560536 C-25.53862046 82.53286012 -25.54438357 74.7101848 -25.56252289 66.8874588 C-25.57791532 60.22575522 -25.58304948 53.56414318 -25.57478479 46.9024252 C-25.57087505 43.50320172 -25.57182339 40.10416263 -25.58584213 36.70496178 C-25.5984886 33.01983797 -25.59272411 29.33519022 -25.58226013 25.65007019 C-25.59031654 24.57555501 -25.59837294 23.50103982 -25.60667348 22.39396358 C-25.56421392 16.01813353 -25.00910324 11.37308629 -20.56632996 6.44602966 C-19.99656433 5.97681091 -19.42679871 5.50759216 -18.83976746 5.02415466 C-17.99285339 4.30485779 -17.99285339 4.30485779 -17.12882996 3.57102966 C-11.61538493 -0.16461064 -6.44454077 -0.01603214 0 0 Z M-1.21476746 299.27415466 C2.89707496 304.1735536 7.163869 308.79714778 11.69270325 313.3110199 C12.35521591 313.97528488 13.01772858 314.63954987 13.70031738 315.32394409 C15.86805862 317.49605014 18.03939313 319.66452146 20.21101379 321.83274841 C21.72476573 323.34717445 23.23836924 324.86174887 24.75183105 326.37646484 C27.91148928 329.53759234 31.07293696 332.69691619 34.235672 335.85496521 C38.29913788 339.91270487 42.35805873 343.97495672 46.41567707 348.03854275 C49.53383394 351.1603011 52.65435362 354.27968875 55.77560997 357.39834785 C57.27434481 358.89641379 58.77233216 360.39522793 60.2695713 361.89478874 C62.35222391 363.97996423 64.43802589 366.06193577 66.5247345 368.14305115 C67.14756317 368.76790405 67.77039185 369.39275696 68.41209412 370.0365448 C70.72904178 372.91899107 70.72904178 372.91899107 73.78523254 374.27415466 C73.85474087 365.08602544 73.90804794 355.89798672 73.94066906 346.70965195 C73.95632552 342.44313521 73.9775633 338.17679835 74.0115509 333.91038513 C74.04414526 329.79310081 74.0620857 325.67598951 74.06986427 321.55858612 C74.07540767 319.98769151 74.08623259 318.41680637 74.10242271 316.84598541 C74.12419856 314.64572684 74.12719949 312.44618334 74.12580872 310.24583435 C74.13247055 308.99340942 74.13913239 307.7409845 74.14599609 306.4506073 C73.7493109 302.95787157 73.49034649 301.52617238 70.78523254 299.27415466 C67.57792639 298.69077343 67.57792639 298.69077343 63.83528137 298.8200531 C63.13258621 298.81946899 62.42989105 298.81888489 61.7059021 298.81828308 C59.38418605 298.82106896 57.06375539 298.8521821 54.74226379 298.88352966 C53.13230084 298.89099032 51.5223288 298.89668408 49.91235352 298.90068054 C45.67557183 298.91595082 41.43933894 298.95524411 37.20277405 298.99949646 C32.87942428 299.04041943 28.5559858 299.05868517 24.23249817 299.07884216 C15.74982449 299.12173749 7.26759679 299.19000508 -1.21476746 299.27415466 Z " fill="#000000" transform="translate(76.21476745605469,56.72584533691406)"/>
<path d="M0 0 C9.21474921 5.00575662 14.41210545 11.60856903 18.0625 21.4375 C18.8287459 25.96357383 18.86106042 30.35514167 18.7890625 34.9375 C18.79005951 36.1762085 18.79105652 37.41491699 18.79208374 38.69116211 C18.78743541 41.28619875 18.7681759 43.88124725 18.73486328 46.47607422 C18.70309523 49.13312803 18.68461706 51.78518396 18.69384766 54.44189453 C18.70664887 58.29505889 18.6908865 62.14692659 18.6640625 66 C18.66679672 67.78277344 18.66679672 67.78277344 18.66958618 69.6015625 C18.65052216 70.70371094 18.63145813 71.80585938 18.61181641 72.94140625 C18.60260162 73.90892822 18.59338684 74.8764502 18.58389282 75.87329102 C17.90895567 79.19263073 16.74539112 80.4198135 14.0625 82.4375 C7.84821429 82.22321429 7.84821429 82.22321429 5.0625 79.4375 C4.83544922 77.37451172 4.83544922 77.37451172 4.8671875 74.8671875 C4.87218262 74.06007324 4.87717773 73.25295898 4.88232422 72.42138672 C4.90053223 71.3954541 4.91874023 70.36952148 4.9375 69.3125 C4.97875 66.05375 5.02 62.795 5.0625 59.4375 C-6.4875 59.4375 -18.0375 59.4375 -29.9375 59.4375 C-29.77973543 65.5109838 -29.77973543 65.5109838 -29.57714844 71.58300781 C-29.49570363 77.791204 -29.49570363 77.791204 -31.7265625 81.0546875 C-33.9375 82.4375 -33.9375 82.4375 -37.5625 82.3125 C-40.9375 81.4375 -40.9375 81.4375 -42.9375 79.4375 C-43.19819641 77.04891968 -43.19819641 77.04891968 -43.2121582 74.01318359 C-43.22169022 72.87795258 -43.23122223 71.74272156 -43.24104309 70.5730896 C-43.24013168 69.33982941 -43.23922028 68.10656921 -43.23828125 66.8359375 C-43.24256638 65.57037018 -43.2468515 64.30480286 -43.25126648 63.00088501 C-43.25702119 60.31571683 -43.25843324 57.63093147 -43.25317383 54.94580078 C-43.24740965 51.52289149 -43.26423056 48.10052869 -43.2875185 44.67770958 C-43.3059082 41.39712368 -43.30206765 38.11656559 -43.30078125 34.8359375 C-43.309991 33.61482269 -43.31920074 32.39370789 -43.32868958 31.1355896 C-43.26943041 20.15534987 -40.96874178 13.72975269 -33.35546875 5.64453125 C-24.75604445 -2.20470095 -10.83617208 -4.44074302 0 0 Z M-25.375 17.25 C-29.94835247 21.90152944 -30.15638613 27.63654313 -30.11767578 33.81396484 C-30.09946777 34.80348145 -30.08125977 35.79299805 -30.0625 36.8125 C-30.02125 39.98875 -29.98 43.165 -29.9375 46.4375 C-18.3875 46.4375 -6.8375 46.4375 5.0625 46.4375 C5.96995018 29.79865523 5.96995018 29.79865523 -1.078125 15.9140625 C-8.70723479 9.85565178 -18.35132543 10.62618809 -25.375 17.25 Z " fill="#000000" transform="translate(202.9375,100.5625)"/>
<path d="M0 0 C6.40473555 0.99383827 9.86886571 6.89746267 13.875 11.6875 C14.34663574 12.24791992 14.81827148 12.80833984 15.30419922 13.38574219 C19.22842306 18.06001083 23.09775283 22.77806042 26.9453125 27.515625 C28.46246979 29.43265567 28.46246979 29.43265567 29.625 30.5625 C30.09808594 29.96824219 30.57117188 29.37398437 31.05859375 28.76171875 C35.4702121 23.23214644 39.88355428 17.70359948 44.3984375 12.2578125 C45.86605436 10.48122367 47.30962305 8.68445185 48.7265625 6.8671875 C53.69723182 0.74501177 53.69723182 0.74501177 58.4375 -0.1875 C61.625 0.5625 61.625 0.5625 63.5625 1.625 C65.25913546 4.71886466 64.95870564 7.08191434 64.625 10.5625 C63.11883237 13.03225912 61.73580608 14.9653096 59.875 17.125 C59.14422241 18.01529907 59.14422241 18.01529907 58.39868164 18.92358398 C55.74900934 22.12939676 53.01982918 25.26608355 50.29296875 28.40625 C49.75317383 29.02943115 49.21337891 29.6526123 48.65722656 30.29467773 C47.61667645 31.48895271 46.56816135 32.67634782 45.51074219 33.85571289 C42.79912477 36.93340778 40.86189751 39.63223987 39.625 43.5625 C40.78515625 44.90441406 40.78515625 44.90441406 41.96875 46.2734375 C47.40659781 52.58011603 52.81003849 58.89337397 57.93359375 65.4609375 C59.55467623 67.53768976 59.55467623 67.53768976 61.22265625 69.2265625 C63.8609656 71.97510761 64.97662977 74.00195168 65.1875 77.75 C64.625 81.5625 64.625 81.5625 63.0625 83.625 C59.49216431 84.99820604 57.31856977 84.50437975 53.625 83.5625 C51.38985872 81.52158891 49.70648344 79.7275684 47.875 77.375 C47.36984863 76.75729736 46.86469727 76.13959473 46.34423828 75.50317383 C44.74863658 73.53979511 43.18358134 71.55536097 41.625 69.5625 C41.10196289 68.89702148 40.57892578 68.23154297 40.04003906 67.54589844 C35.87788649 62.24506827 35.87788649 62.24506827 34.10253906 59.91918945 C31.78169848 56.76698391 31.78169848 56.76698391 28.625 54.5625 C27.97015625 55.41070312 27.3153125 56.25890625 26.640625 57.1328125 C21.59398768 63.63362902 16.46228057 70.04721173 11.125 76.3125 C10.62129883 76.90820801 10.11759766 77.50391602 9.59863281 78.11767578 C7.3915906 80.68707936 5.46173251 82.67134499 2.625 84.5625 C-0.9375 84.375 -0.9375 84.375 -4.375 83.5625 C-6.7107611 80.05885835 -6.82621664 78.68568656 -6.375 74.5625 C-4.94140625 72.17578125 -4.94140625 72.17578125 -2.9375 69.875 C-1.84115234 68.58529297 -1.84115234 68.58529297 -0.72265625 67.26953125 C0.05207031 66.37621094 0.82679688 65.48289062 1.625 64.5625 C3.13039232 62.73359183 4.63038527 60.90022629 6.125 59.0625 C7.23681641 57.70705078 7.23681641 57.70705078 8.37109375 56.32421875 C11.82160451 52.09629656 15.22610263 47.83195964 18.625 43.5625 C17.18337378 39.12359441 14.73756718 36.05910269 11.6875 32.625 C6.97510202 27.19917756 2.47751099 21.64203254 -1.93334961 15.96899414 C-4.04383736 13.17078239 -4.04383736 13.17078239 -6.375 10.5625 C-6.66051032 7.3505089 -6.63787757 5.1501087 -5.3125 2.1875 C-3.375 0.5625 -3.375 0.5625 0 0 Z " fill="#000000" transform="translate(236.375,98.4375)"/>
<path d="M0 0 C1.90228615 -0.01902626 1.90228615 -0.01902626 3.84300232 -0.03843689 C5.22875125 -0.03638537 6.61449906 -0.03339728 8.00024414 -0.02954102 C9.42127228 -0.03410193 10.84229821 -0.03940723 12.26332092 -0.04542542 C15.24171915 -0.05436145 18.21984933 -0.05192832 21.19824219 -0.04199219 C25.01288405 -0.03050567 28.82659979 -0.05070519 32.64111996 -0.07990932 C35.5759925 -0.0982675 38.51064299 -0.09797967 41.44555855 -0.0922718 C42.85176454 -0.09211852 44.25798551 -0.09816907 45.66413689 -0.11056328 C47.63150832 -0.12545988 49.59903198 -0.11217306 51.56640625 -0.09765625 C52.68542831 -0.09749008 53.80445038 -0.09732391 54.9573822 -0.09715271 C58.51808325 0.52026003 59.73647672 1.50643689 61.84790039 4.40405273 C61.63361468 10.61833845 61.63361468 10.61833845 58.84790039 13.40405273 C56.23413086 13.63110352 56.23413086 13.63110352 52.96508789 13.59936523 C51.79848633 13.59291992 50.63188477 13.58647461 49.42993164 13.57983398 C48.20661133 13.56307617 46.98329102 13.54631836 45.72290039 13.52905273 C44.4918457 13.5200293 43.26079102 13.51100586 41.99243164 13.50170898 C38.94406224 13.47807821 35.89607657 13.44513328 32.84790039 13.40405273 C32.85678284 14.23455139 32.86566528 15.06505005 32.87481689 15.92071533 C32.95497389 23.74840073 33.0158703 31.57594824 33.05514908 39.40394974 C33.07602172 43.42841351 33.10433274 47.45253809 33.1496582 51.47680664 C33.19312859 55.36068809 33.21703993 59.24424335 33.22740936 63.1283493 C33.2347987 64.60995367 33.24922857 66.09154023 33.27082062 67.57300568 C33.29987251 69.64891595 33.30385595 71.7234796 33.30200195 73.79956055 C33.3108844 74.9809259 33.31976685 76.16229126 33.32891846 77.37945557 C32.84790039 80.40405273 32.84790039 80.40405273 31.04217529 82.8168335 C28.84790039 84.40405273 28.84790039 84.40405273 25.28540039 84.40405273 C21.4278632 83.2818601 20.74897144 82.815718 18.84790039 79.40405273 C18.48713684 76.41741943 18.48713684 76.41741943 18.50732422 72.89135742 C18.5066671 71.92487778 18.5066671 71.92487778 18.5059967 70.93887329 C18.50808015 68.81757892 18.53138858 66.69708335 18.55493164 64.57592773 C18.56052921 63.10191276 18.56479855 61.62789219 18.5677948 60.15386963 C18.57923098 56.28052267 18.60868725 52.40751498 18.64190674 48.53430176 C18.67263429 44.57947376 18.68630585 40.62459078 18.70141602 36.66967773 C18.73355843 28.914315 18.78473954 21.15923146 18.84790039 13.40405273 C18.10628662 13.41976318 17.36467285 13.43547363 16.60058594 13.45166016 C13.24560143 13.51395988 9.89073853 13.5530278 6.53540039 13.59155273 C4.78453125 13.62925781 4.78453125 13.62925781 2.99829102 13.66772461 C1.8800293 13.67739258 0.76176758 13.68706055 -0.39038086 13.69702148 C-1.42203369 13.71273193 -2.45368652 13.72844238 -3.51660156 13.74462891 C-6.15209961 13.40405273 -6.15209961 13.40405273 -7.98876953 12.10449219 C-9.93918184 9.25357472 -9.50893738 6.73453856 -9.15209961 3.40405273 C-6.72820457 -0.20007893 -4.12852436 0.01994797 0 0 Z " fill="#000000" transform="translate(89.152099609375,98.595947265625)"/>
<path d="M0 0 C0.87022797 -0.00817749 1.74045593 -0.01635498 2.63705444 -0.02478027 C5.51860873 -0.04960595 8.40011393 -0.06614115 11.28173828 -0.08056641 C12.26567692 -0.08589008 13.24961555 -0.09121376 14.26337051 -0.09669876 C19.46919221 -0.12341529 24.67499002 -0.14279687 29.88085938 -0.15722656 C35.26025417 -0.17389047 40.63903825 -0.2186872 46.01820183 -0.26959801 C50.153175 -0.3032284 54.28800225 -0.31479923 58.42309952 -0.32045364 C60.40626836 -0.32717541 62.38942729 -0.34242141 64.37246323 -0.36634445 C67.1472559 -0.39791506 69.92038786 -0.39804535 72.6953125 -0.390625 C73.51418945 -0.40703033 74.33306641 -0.42343567 75.17675781 -0.44033813 C79.40857682 -0.39400783 81.03512232 -0.14138085 84.52590942 2.49887085 C86.47705078 5.19287109 86.47705078 5.19287109 86.47705078 8.88037109 C85.47705078 12.19287109 85.47705078 12.19287109 82.47705078 14.19287109 C79.53831235 14.39308382 76.69408993 14.47616576 73.75463867 14.4675293 C72.86329727 14.47264023 71.97195587 14.47775116 71.05360413 14.48301697 C68.10223711 14.49693612 65.151103 14.49595446 62.19970703 14.49365234 C60.15091362 14.49753799 58.10212102 14.50187238 56.05332947 14.50663757 C51.75679921 14.51410478 47.46035112 14.51380487 43.16381836 14.50854492 C37.65443875 14.50274953 32.14539523 14.51968064 26.63607121 14.5428896 C22.40419036 14.55761235 18.17239073 14.55850062 13.94048882 14.55537987 C11.90908581 14.55589381 9.87767835 14.56114518 7.84630013 14.57119179 C5.00692958 14.58351059 2.16821721 14.57679189 -0.67114258 14.56518555 C-1.51231628 14.57282928 -2.35348999 14.58047302 -3.22015381 14.58834839 C-6.54615469 14.55825597 -9.06863804 14.42714169 -12.05274963 12.88835144 C-13.52294922 11.19287109 -13.52294922 11.19287109 -13.89794922 7.69287109 C-13.52294922 4.19287109 -13.52294922 4.19287109 -11.52294922 1.19287109 C-7.6701086 -0.09140911 -4.01664614 0.02079254 0 0 Z " fill="#000000" transform="translate(96.52294921875,283.80712890625)"/>
<path d="M0 0 C0.90109497 -0.00686325 1.80218994 -0.0137265 2.73059082 -0.02079773 C5.71451496 -0.03912551 8.69791632 -0.03521964 11.68188477 -0.02954102 C13.75309928 -0.03410004 15.82431229 -0.03940477 17.89552307 -0.04542542 C22.23916769 -0.05436834 26.58262856 -0.05192004 30.92626953 -0.04199219 C36.49629183 -0.03050278 42.06568017 -0.05070779 47.63561916 -0.07990932 C51.91384418 -0.09824434 56.19191654 -0.09798421 60.47017097 -0.0922718 C62.52390494 -0.09211825 64.57764904 -0.09819067 66.63134575 -0.11056328 C69.50203227 -0.12541989 72.37153825 -0.11483532 75.2421875 -0.09765625 C76.09271194 -0.10732422 76.94323639 -0.11699219 77.8195343 -0.12695312 C81.62169793 -0.07924102 83.57890046 -0.02267232 86.75257874 2.20884705 C88.18579102 4.40405273 88.18579102 4.40405273 88.06079102 8.02905273 C87.18579102 11.40405273 87.18579102 11.40405273 85.18579102 13.40405273 C82.21919805 13.60816871 79.34557692 13.68719162 76.37744141 13.67871094 C75.0089782 13.68637733 75.0089782 13.68637733 73.61286926 13.69419861 C70.58632919 13.7081395 67.56001569 13.70713445 64.53344727 13.70483398 C62.43598851 13.70871848 60.33853054 13.71305263 58.24107361 13.71781921 C53.84021456 13.72529113 49.43943573 13.72498314 45.03857422 13.71972656 C39.39118714 13.71393103 33.74412793 13.73086036 28.09679508 13.75407124 C23.76372855 13.76878347 19.43074143 13.7696837 15.09765434 13.76656151 C13.01518543 13.767076 10.93271221 13.77233753 8.85026741 13.78237343 C5.94113825 13.79467172 3.03265353 13.7879859 0.12353516 13.77636719 C-0.74150635 13.78401093 -1.60654785 13.79165466 -2.49780273 13.79953003 C-8.3609227 13.74761433 -8.3609227 13.74761433 -10.53551579 12.09941387 C-12.65484208 9.28949555 -12.17652032 6.7856252 -11.81420898 3.40405273 C-8.71842449 -0.68818516 -4.74109581 -0.02503405 0 0 Z " fill="#000000" transform="translate(94.814208984375,242.595947265625)"/>
</svg>
